Klei-Thin.ufo
<glyph name="exclam" format="1">
  <advance width="229"/>
  <unicode hex="0021"/>
  <outline>
    <contour>
      <point x="112" y="210" type="curve" smooth="yes"/>
      <point x="124" y="210"/>
      <point x="133" y="219"/>
      <point x="134" y="234" type="curve"/>
      <point x="154" y="701" type="line"/>
      <point x="154" y="703"/>
      <point x="154" y="705"/>
      <point x="154" y="707" type="curve" smooth="yes"/>
      <point x="152" y="732"/>
      <point x="130" y="744"/>
      <point x="110" y="744" type="curve" smooth="yes"/>
      <point x="90" y="744"/>
      <point x="69" y="732"/>
      <point x="67" y="707" type="curve" smooth="yes"/>
      <point x="67" y="705"/>
      <point x="67" y="703"/>
      <point x="67" y="701" type="curve"/>
      <point x="90" y="234" type="line"/>
      <point x="91" y="219"/>
      <point x="99" y="210"/>
    </contour>
    <component base="period"/>
  </outline>
</glyph>
<glyph name="numbersign" format="1">
  <advance width="695"/>
  <unicode hex="0023"/>
  <outline>
    <contour>
      <point x="336" y="10" type="curve" smooth="yes"/>
      <point x="365" y="10" type="line" smooth="yes"/>
      <point x="371" y="10"/>
      <point x="374" y="14"/>
      <point x="375" y="20" type="curve" smooth="yes"/>
      <point x="542" y="716" type="line" smooth="yes"/>
      <point x="543" y="721"/>
      <point x="543" y="721"/>
      <point x="543" y="723" type="curve" smooth="yes"/>
      <point x="543" y="729"/>
      <point x="538" y="730"/>
      <point x="533" y="730" type="curve" smooth="yes"/>
      <point x="506" y="730" type="line" smooth="yes"/>
      <point x="500" y="730"/>
      <point x="495" y="726"/>
      <point x="494" y="720" type="curve" smooth="yes"/>
      <point x="327" y="25" type="line" smooth="yes"/>
      <point x="326" y="21"/>
      <point x="326" y="21"/>
      <point x="326" y="18" type="curve" smooth="yes"/>
      <point x="326" y="14"/>
      <point x="330" y="10"/>
    </contour>
    <contour>
      <point x="57" y="224" type="curve" smooth="yes"/>
      <point x="199" y="224" type="line"/>
      <point x="212" y="279" type="line"/>
      <point x="71" y="279" type="line" smooth="yes"/>
      <point x="65" y="279"/>
      <point x="60" y="275"/>
      <point x="58" y="269" type="curve" smooth="yes"/>
      <point x="47" y="232" type="line" smooth="yes"/>
      <point x="47" y="227"/>
      <point x="52" y="224"/>
    </contour>
    <contour>
      <point x="220" y="224" type="line"/>
      <point x="389" y="224" type="line"/>
      <point x="402" y="279" type="line"/>
      <point x="233" y="279" type="line"/>
    </contour>
    <contour>
      <point x="146" y="10" type="curve" smooth="yes"/>
      <point x="175" y="10" type="line" smooth="yes"/>
      <point x="181" y="10"/>
      <point x="184" y="14"/>
      <point x="185" y="20" type="curve" smooth="yes"/>
      <point x="352" y="716" type="line" smooth="yes"/>
      <point x="353" y="721"/>
      <point x="353" y="721"/>
      <point x="353" y="723" type="curve" smooth="yes"/>
      <point x="353" y="729"/>
      <point x="348" y="730"/>
      <point x="343" y="730" type="curve" smooth="yes"/>
      <point x="316" y="730" type="line" smooth="yes"/>
      <point x="310" y="730"/>
      <point x="305" y="726"/>
      <point x="304" y="720" type="curve" smooth="yes"/>
      <point x="137" y="24" type="line" smooth="yes"/>
      <point x="136" y="20"/>
      <point x="136" y="20"/>
      <point x="136" y="18" type="curve" smooth="yes"/>
      <point x="136" y="13"/>
      <point x="141" y="10"/>
    </contour>
    <contour>
      <point x="108" y="483" type="curve" smooth="yes"/>
      <point x="261" y="483" type="line"/>
      <point x="274" y="538" type="line"/>
      <point x="122" y="538" type="line" smooth="yes"/>
      <point x="116" y="538"/>
      <point x="111" y="534"/>
      <point x="109" y="528" type="curve" smooth="yes"/>
      <point x="98" y="491" type="line" smooth="yes"/>
      <point x="98" y="486"/>
      <point x="103" y="483"/>
    </contour>
    <contour>
      <point x="410" y="224" type="line"/>
      <point x="576" y="224" type="line" smooth="yes"/>
      <point x="582" y="224"/>
      <point x="587" y="228"/>
      <point x="589" y="234" type="curve" smooth="yes"/>
      <point x="601" y="272" type="line" smooth="yes"/>
      <point x="601" y="277"/>
      <point x="596" y="279"/>
      <point x="591" y="279" type="curve" smooth="yes"/>
      <point x="423" y="279" type="line"/>
    </contour>
    <contour>
      <point x="282" y="483" type="line"/>
      <point x="451" y="483" type="line"/>
      <point x="464" y="538" type="line"/>
      <point x="295" y="538" type="line"/>
    </contour>
    <contour>
      <point x="472" y="483" type="line"/>
      <point x="627" y="483" type="line" smooth="yes"/>
      <point x="633" y="483"/>
      <point x="638" y="489"/>
      <point x="640" y="495" type="curve" smooth="yes"/>
      <point x="645" y="506"/>
      <point x="652" y="529"/>
      <point x="652" y="531" type="curve" smooth="yes"/>
      <point x="652" y="536"/>
      <point x="647" y="538"/>
      <point x="642" y="538" type="curve" smooth="yes"/>
      <point x="485" y="538" type="line"/>
    </contour>
  </outline>
</glyph>
<glyph name="dollar" format="1">
  <advance width="555"/>
  <unicode hex="0024"/>
  <outline>
    <contour>
      <point x="269" y="28" type="curve" smooth="yes"/>
      <point x="339" y="28"/>
      <point x="372" y="51"/>
      <point x="392" y="66" type="curve" smooth="yes"/>
      <point x="434" y="98"/>
      <point x="461" y="142"/>
      <point x="461" y="210" type="curve" smooth="yes"/>
      <point x="461" y="279"/>
      <point x="397" y="317"/>
      <point x="321" y="361" type="curve" smooth="yes"/>
      <point x="313" y="365"/>
      <point x="306" y="371"/>
      <point x="298" y="375" type="curve" smooth="yes"/>
      <point x="238" y="410"/>
      <point x="191" y="441"/>
      <point x="191" y="491" type="curve" smooth="yes"/>
      <point x="191" y="527"/>
      <point x="213" y="579"/>
      <point x="294" y="579" type="curve" smooth="yes"/>
      <point x="307" y="579"/>
      <point x="314" y="578"/>
      <point x="324" y="576" type="curve" smooth="yes"/>
      <point x="372" y="566"/>
      <point x="397" y="539"/>
      <point x="411" y="522" type="curve" smooth="yes"/>
      <point x="417" y="514"/>
      <point x="423" y="506"/>
      <point x="426" y="506" type="curve" smooth="yes"/>
      <point x="433" y="506"/>
      <point x="449" y="554"/>
      <point x="449" y="565" type="curve" smooth="yes"/>
      <point x="449" y="585"/>
      <point x="354" y="606"/>
      <point x="311" y="606" type="curve" smooth="yes"/>
      <point x="201" y="606"/>
      <point x="130" y="541"/>
      <point x="130" y="455" type="curve" smooth="yes"/>
      <point x="130" y="393"/>
      <point x="209" y="344"/>
      <point x="280" y="303" type="curve" smooth="yes"/>
      <point x="306" y="288" type="line"/>
      <point x="364" y="255"/>
      <point x="406" y="231"/>
      <point x="406" y="173" type="curve" smooth="yes"/>
      <point x="406" y="110"/>
      <point x="355" y="65"/>
      <point x="284" y="65" type="curve" smooth="yes"/>
      <point x="212" y="65"/>
      <point x="178" y="116"/>
      <point x="152" y="171" type="curve" smooth="yes"/>
      <point x="146" y="183"/>
      <point x="142" y="191"/>
      <point x="140" y="191" type="curve" smooth="yes"/>
      <point x="131" y="191"/>
      <point x="105" y="141"/>
      <point x="105" y="122" type="curve" smooth="yes"/>
      <point x="105" y="86"/>
      <point x="191" y="28"/>
    </contour>
    <contour>
      <point x="248" y="-47" type="curve" smooth="yes"/>
      <point x="259" y="-47"/>
      <point x="271" y="-42"/>
      <point x="277" y="-31" type="curve"/>
      <point x="278" y="-17"/>
      <point x="280" y="6"/>
      <point x="284" y="35" type="curve"/>
      <point x="237" y="42" type="line"/>
      <point x="235" y="16"/>
      <point x="231" y="-12"/>
      <point x="226" y="-40" type="curve"/>
      <point x="231" y="-44"/>
      <point x="239" y="-47"/>
    </contour>
    <contour>
      <point x="286" y="56" type="line"/>
      <point x="291" y="118"/>
      <point x="300" y="206"/>
      <point x="310" y="299" type="curve"/>
      <point x="270" y="320" type="line"/>
      <point x="262" y="237"/>
      <point x="252" y="151"/>
      <point x="239" y="60" type="curve"/>
    </contour>
    <contour>
      <point x="316" y="351" type="line"/>
      <point x="323" y="431"/>
      <point x="332" y="511"/>
      <point x="341" y="583" type="curve"/>
      <point x="294" y="583" type="line"/>
      <point x="289" y="511"/>
      <point x="284" y="446"/>
      <point x="276" y="375" type="curve"/>
    </contour>
    <contour>
      <point x="295" y="593" type="curve"/>
      <point x="343" y="593" type="line"/>
      <point x="345" y="615"/>
      <point x="347" y="636"/>
      <point x="350" y="659" type="curve" smooth="yes"/>
      <point x="351" y="665"/>
      <point x="335" y="675"/>
      <point x="324" y="675" type="curve" smooth="yes"/>
      <point x="315" y="675"/>
      <point x="300" y="669"/>
      <point x="300" y="662" type="curve" smooth="yes"/>
      <point x="299" y="639"/>
      <point x="297" y="616"/>
    </contour>
  </outline>
</glyph>
<glyph name="quotesingle" format="1">
  <advance width="178"/>
  <unicode hex="0027"/>
  <outline>
    <contour>
      <point x="82" y="501" type="curve" smooth="yes"/>
      <point x="96" y="501" type="line" smooth="yes"/>
      <point x="102" y="501"/>
      <point x="105" y="503"/>
      <point x="106" y="511" type="curve" smooth="yes"/>
      <point x="118" y="629" type="line" smooth="yes"/>
      <point x="118" y="631"/>
      <point x="118" y="634"/>
      <point x="118" y="636" type="curve" smooth="yes"/>
      <point x="118" y="654"/>
      <point x="108" y="667"/>
      <point x="89" y="667" type="curve" smooth="yes"/>
      <point x="71" y="667"/>
      <point x="60" y="654"/>
      <point x="60" y="634" type="curve" smooth="yes"/>
      <point x="60" y="633"/>
      <point x="60" y="631"/>
      <point x="60" y="629" type="curve" smooth="yes"/>
      <point x="72" y="511" type="line" smooth="yes"/>
      <point x="73" y="503"/>
      <point x="76" y="501"/>
    </contour>
  </outline>
</glyph>
<glyph name="parenleft" format="1">
  <advance width="281"/>
  <unicode hex="0028"/>
  <outline>
    <contour>
      <point x="231" y="-99" type="curve"/>
      <point x="231" y="-69" type="line"/>
      <point x="193" y="-28"/>
      <point x="113" y="64"/>
      <point x="113" y="350" type="curve" smooth="yes"/>
      <point x="113" y="636"/>
      <point x="193" y="728"/>
      <point x="231" y="769" type="curve"/>
      <point x="231" y="799" type="line"/>
      <point x="151" y="728"/>
      <point x="50" y="565"/>
      <point x="50" y="350" type="curve" smooth="yes"/>
      <point x="50" y="135"/>
      <point x="151" y="-28"/>
    </contour>
  </outline>
</glyph>
<glyph name="parenright" format="1">
  <advance width="281"/>
  <unicode hex="0029"/>
  <outline>
    <contour>
      <point x="50" y="-98" type="line"/>
      <point x="130" y="-27"/>
      <point x="231" y="136"/>
      <point x="231" y="351" type="curve" smooth="yes"/>
      <point x="231" y="566"/>
      <point x="130" y="729"/>
      <point x="50" y="800" type="curve"/>
      <point x="50" y="770" type="line"/>
      <point x="88" y="729"/>
      <point x="168" y="637"/>
      <point x="168" y="351" type="curve" smooth="yes"/>
      <point x="168" y="65"/>
      <point x="88" y="-27"/>
      <point x="50" y="-68" type="curve"/>
    </contour>
  </outline>
</glyph>
<glyph name="asterisk" format="1">
  <advance width="388"/>
  <unicode hex="002A"/>
  <outline>
    <contour>
      <point x="193" y="337" type="curve" smooth="yes"/>
      <point x="196" y="337" type="line" smooth="yes"/>
      <point x="202" y="337"/>
      <point x="208" y="342"/>
      <point x="208" y="347" type="curve" smooth="yes"/>
      <point x="212" y="458" type="line"/>
      <point x="311" y="407" type="line" smooth="yes"/>
      <point x="313" y="406"/>
      <point x="315" y="406"/>
      <point x="316" y="406" type="curve" smooth="yes"/>
      <point x="320" y="406"/>
      <point x="324" y="408"/>
      <point x="326" y="412" type="curve" smooth="yes"/>
      <point x="327" y="414"/>
      <point x="328" y="416"/>
      <point x="328" y="419" type="curve" smooth="yes"/>
      <point x="328" y="423"/>
      <point x="326" y="426"/>
      <point x="323" y="428" type="curve" smooth="yes"/>
      <point x="231" y="489" type="line"/>
      <point x="323" y="550" type="line" smooth="yes"/>
      <point x="326" y="552"/>
      <point x="328" y="556"/>
      <point x="328" y="559" type="curve" smooth="yes"/>
      <point x="328" y="562"/>
      <point x="328" y="565"/>
      <point x="326" y="567" type="curve" smooth="yes"/>
      <point x="323" y="570"/>
      <point x="320" y="572"/>
      <point x="316" y="572" type="curve" smooth="yes"/>
      <point x="315" y="572"/>
      <point x="313" y="572"/>
      <point x="311" y="571" type="curve" smooth="yes"/>
      <point x="211" y="520" type="line"/>
      <point x="207" y="632" type="line" smooth="yes"/>
      <point x="207" y="637"/>
      <point x="202" y="642"/>
      <point x="196" y="642" type="curve" smooth="yes"/>
      <point x="193" y="642" type="line" smooth="yes"/>
      <point x="187" y="642"/>
      <point x="182" y="636"/>
      <point x="182" y="632" type="curve" smooth="yes"/>
      <point x="178" y="520" type="line"/>
      <point x="78" y="571" type="line" smooth="yes"/>
      <point x="75" y="572"/>
      <point x="74" y="572"/>
      <point x="72" y="572" type="curve" smooth="yes"/>
      <point x="66" y="572"/>
      <point x="60" y="567"/>
      <point x="60" y="560" type="curve" smooth="yes"/>
      <point x="60" y="556"/>
      <point x="62" y="552"/>
      <point x="65" y="550" type="curve"/>
      <point x="158" y="489" type="line"/>
      <point x="65" y="428" type="line" smooth="yes"/>
      <point x="63" y="427"/>
      <point x="61" y="422"/>
      <point x="61" y="419" type="curve" smooth="yes"/>
      <point x="61" y="416"/>
      <point x="62" y="414"/>
      <point x="63" y="412" type="curve" smooth="yes"/>
      <point x="65" y="409"/>
      <point x="68" y="406"/>
      <point x="71" y="406" type="curve" smooth="yes"/>
      <point x="73" y="406"/>
      <point x="75" y="406"/>
      <point x="77" y="407" type="curve" smooth="yes"/>
      <point x="177" y="458" type="line"/>
      <point x="181" y="347" type="line" smooth="yes"/>
      <point x="181" y="342"/>
      <point x="187" y="337"/>
    </contour>
  </outline>
</glyph>
<glyph name="one" format="1">
  <advance width="480"/>
  <unicode hex="0031"/>
  <outline>
    <contour>
      <point x="173" y="0" type="line"/>
      <point x="319" y="0" type="line"/>
      <point x="319" y="16" type="line"/>
      <point x="312" y="16" type="line"/>
      <point x="297" y="17"/>
      <point x="283" y="20"/>
      <point x="283" y="37" type="curve" smooth="yes"/>
      <point x="283" y="634" type="line" smooth="yes"/>
      <point x="283" y="640"/>
      <point x="278" y="644"/>
      <point x="273" y="644" type="curve" smooth="yes"/>
      <point x="271" y="644"/>
      <point x="268" y="643"/>
      <point x="263" y="639" type="curve" smooth="yes"/>
      <point x="238" y="617"/>
      <point x="204" y="598"/>
      <point x="168" y="583" type="curve"/>
      <point x="168" y="563" type="line"/>
      <point x="172" y="564"/>
      <point x="185" y="565"/>
      <point x="193" y="565" type="curve" smooth="yes"/>
      <point x="207" y="565"/>
      <point x="209" y="549"/>
      <point x="209" y="532" type="curve" smooth="yes"/>
      <point x="209" y="37" type="line" smooth="yes"/>
      <point x="209" y="21"/>
      <point x="195" y="17"/>
      <point x="178" y="16" type="curve"/>
      <point x="173" y="16" type="line"/>
    </contour>
  </outline>
</glyph>
<glyph name="two" format="1">
  <advance width="480"/>
  <unicode hex="0032"/>
  <outline>
    <contour>
      <point x="55" y="0" type="curve"/>
      <point x="380" y="0" type="line"/>
      <point x="418" y="103" type="line"/>
      <point x="404" y="105" type="line"/>
      <point x="402" y="99" type="line"/>
      <point x="391" y="71"/>
      <point x="365" y="54"/>
      <point x="318" y="54" type="curve"/>
      <point x="80" y="54" type="line"/>
      <point x="113" y="41" type="line"/>
      <point x="121" y="46"/>
      <point x="162" y="101"/>
      <point x="197" y="150" type="curve" smooth="yes"/>
      <point x="225" y="189"/>
      <point x="260" y="235"/>
      <point x="296" y="282" type="curve" smooth="yes"/>
      <point x="379" y="390"/>
      <point x="419" y="456"/>
      <point x="419" y="514" type="curve" smooth="yes"/>
      <point x="419" y="594"/>
      <point x="363" y="642"/>
      <point x="264" y="642" type="curve" smooth="yes"/>
      <point x="164" y="642"/>
      <point x="110" y="558"/>
      <point x="104" y="546" type="curve"/>
      <point x="124" y="530" type="line"/>
      <point x="155" y="569"/>
      <point x="182" y="601"/>
      <point x="242" y="601" type="curve" smooth="yes"/>
      <point x="303" y="601"/>
      <point x="352" y="569"/>
      <point x="352" y="496" type="curve" smooth="yes"/>
      <point x="352" y="451"/>
      <point x="320" y="392"/>
      <point x="282" y="341" type="curve" smooth="yes"/>
      <point x="258" y="308"/>
      <point x="231" y="270"/>
      <point x="201" y="227" type="curve" smooth="yes"/>
      <point x="162" y="170"/>
      <point x="115" y="105"/>
      <point x="56" y="34" type="curve"/>
      <point x="54" y="31"/>
      <point x="52" y="24"/>
      <point x="52" y="16" type="curve" smooth="yes"/>
      <point x="52" y="11"/>
      <point x="53" y="5"/>
    </contour>
  </outline>
</glyph>
<glyph name="seven" format="1">
  <advance width="480"/>
  <unicode hex="0037"/>
  <outline>
    <contour>
      <point x="109" y="0" type="curve"/>
      <point x="171" y="0" type="line"/>
      <point x="196" y="174"/>
      <point x="326" y="450"/>
      <point x="426" y="596" type="curve" smooth="yes"/>
      <point x="429" y="601"/>
      <point x="433" y="609"/>
      <point x="433" y="612" type="curve" smooth="yes"/>
      <point x="433" y="618"/>
      <point x="429" y="622"/>
      <point x="423" y="622" type="curve" smooth="yes"/>
      <point x="82" y="622" type="line" smooth="yes"/>
      <point x="76" y="622"/>
      <point x="69" y="617"/>
      <point x="68" y="612" type="curve" smooth="yes"/>
      <point x="55" y="553" type="line" smooth="yes"/>
      <point x="55" y="551"/>
      <point x="65" y="546"/>
      <point x="68" y="546" type="curve"/>
      <point x="73" y="553"/>
      <point x="83" y="562"/>
      <point x="95" y="562" type="curve" smooth="yes"/>
      <point x="363" y="562" type="line"/>
      <point x="259" y="413"/>
      <point x="134" y="165"/>
    </contour>
  </outline>
</glyph>
<glyph name="eight" format="1">
  <advance width="480"/>
  <unicode hex="0038"/>
  <outline>
    <contour>
      <point x="258" y="370" type="curve"/>
      <point x="279" y="358" type="line"/>
      <point x="394" y="456"/>
      <point x="413" y="472"/>
      <point x="413" y="510" type="curve" smooth="yes"/>
      <point x="413" y="587"/>
      <point x="353" y="643"/>
      <point x="258" y="643" type="curve" smooth="yes"/>
      <point x="161" y="643"/>
      <point x="95" y="585"/>
      <point x="95" y="512" type="curve" smooth="yes"/>
      <point x="95" y="451"/>
      <point x="142" y="387"/>
      <point x="217" y="336" type="curve"/>
      <point x="227" y="335" type="line"/>
      <point x="334" y="269"/>
      <point x="386" y="206"/>
      <point x="386" y="142" type="curve" smooth="yes"/>
      <point x="386" y="74"/>
      <point x="327" y="16"/>
      <point x="258" y="16" type="curve" smooth="yes"/>
      <point x="188" y="16"/>
      <point x="132" y="74"/>
      <point x="132" y="147" type="curve" smooth="yes"/>
      <point x="132" y="209"/>
      <point x="171" y="275"/>
      <point x="243" y="335" type="curve"/>
      <point x="219" y="349" type="line"/>
      <point x="103" y="257"/>
      <point x="65" y="207"/>
      <point x="65" y="146" type="curve" smooth="yes"/>
      <point x="65" y="57"/>
      <point x="146" y="-8"/>
      <point x="257" y="-8" type="curve" smooth="yes"/>
      <point x="367" y="-8"/>
      <point x="445" y="55"/>
      <point x="445" y="143" type="curve" smooth="yes"/>
      <point x="445" y="217"/>
      <point x="391" y="294"/>
      <point x="283" y="372" type="curve"/>
      <point x="275" y="373" type="line"/>
      <point x="197" y="419"/>
      <point x="158" y="461"/>
      <point x="158" y="513" type="curve" smooth="yes"/>
      <point x="158" y="569"/>
      <point x="203" y="623"/>
      <point x="258" y="623" type="curve" smooth="yes"/>
      <point x="315" y="623"/>
      <point x="364" y="566"/>
      <point x="364" y="508" type="curve" smooth="yes"/>
      <point x="364" y="466"/>
      <point x="338" y="441"/>
    </contour>
  </outline>
</glyph>
<glyph name="less" format="1">
  <advance width="488"/>
  <unicode hex="003C"/>
  <outline>
    <contour>
      <point x="438" y="94" type="line"/>
      <point x="438" y="162" type="line"/>
      <point x="118" y="346" type="line"/>
      <point x="118" y="302" type="line"/>
      <point x="438" y="486" type="line"/>
      <point x="438" y="550" type="line"/>
      <point x="50" y="330" type="line"/>
      <point x="50" y="314" type="line"/>
    </contour>
  </outline>
</glyph>
<glyph name="equal" format="1">
  <advance width="408"/>
  <unicode hex="003D"/>
  <outline>
    <contour>
      <point x="79" y="329" type="curve"/>
      <point x="332" y="329" type="line"/>
      <point x="337" y="329"/>
      <point x="338" y="338"/>
      <point x="338" y="348" type="curve" smooth="yes"/>
      <point x="338" y="360"/>
      <point x="336" y="373"/>
      <point x="332" y="373" type="curve"/>
      <point x="79" y="373" type="line"/>
      <point x="73" y="373"/>
      <point x="70" y="364"/>
      <point x="70" y="353" type="curve" smooth="yes"/>
      <point x="70" y="342"/>
      <point x="73" y="330"/>
    </contour>
    <contour>
      <point x="79" y="223" type="curve"/>
      <point x="332" y="223" type="line"/>
      <point x="337" y="223"/>
      <point x="338" y="232"/>
      <point x="338" y="242" type="curve" smooth="yes"/>
      <point x="338" y="254"/>
      <point x="336" y="267"/>
      <point x="332" y="267" type="curve"/>
      <point x="79" y="267" type="line"/>
      <point x="73" y="267"/>
      <point x="70" y="258"/>
      <point x="70" y="247" type="curve" smooth="yes"/>
      <point x="70" y="236"/>
      <point x="73" y="223"/>
    </contour>
  </outline>
</glyph>
<glyph name="greater" format="1">
  <advance width="488"/>
  <unicode hex="003E"/>
  <outline>
    <contour>
      <point x="50" y="94" type="line"/>
      <point x="438" y="314" type="line"/>
      <point x="438" y="330" type="line"/>
      <point x="50" y="550" type="line"/>
      <point x="50" y="486" type="line"/>
      <point x="370" y="302" type="line"/>
      <point x="370" y="346" type="line"/>
      <point x="50" y="162" type="line"/>
    </contour>
  </outline>
</glyph>
<glyph name="at" format="1">
  <advance width="781"/>
  <unicode hex="0040"/>
  <outline>
    <contour>
      <point x="390" y="-54" type="curve" smooth="yes"/>
      <point x="530" y="-54"/>
      <point x="593" y="-3"/>
      <point x="627" y="31" type="curve" smooth="yes"/>
      <point x="629" y="33"/>
      <point x="630" y="35"/>
      <point x="630" y="37" type="curve" smooth="yes"/>
      <point x="630" y="45"/>
      <point x="619" y="53"/>
      <point x="610" y="53" type="curve"/>
      <point x="577" y="23"/>
      <point x="505" y="-14"/>
      <point x="390" y="-14" type="curve" smooth="yes"/>
      <point x="278" y="-14"/>
      <point x="139" y="43"/>
      <point x="139" y="221" type="curve" smooth="yes"/>
      <point x="139" y="388"/>
      <point x="257" y="481"/>
      <point x="404" y="481" type="curve" smooth="yes"/>
      <point x="553" y="481"/>
      <point x="654" y="400"/>
      <point x="654" y="263" type="curve" smooth="yes"/>
      <point x="654" y="189"/>
      <point x="610" y="115"/>
      <point x="558" y="115" type="curve" smooth="yes"/>
      <point x="531" y="115"/>
      <point x="507" y="121"/>
      <point x="506" y="141" type="curve"/>
      <point x="537" y="305" type="line" smooth="yes"/>
      <point x="543" y="338"/>
      <point x="548" y="364"/>
      <point x="556" y="383" type="curve"/>
      <point x="550" y="389"/>
      <point x="543" y="394"/>
      <point x="531" y="394" type="curve"/>
      <point x="527" y="390"/>
      <point x="518" y="382"/>
      <point x="508" y="382" type="curve" smooth="yes"/>
      <point x="506" y="382"/>
      <point x="499" y="383"/>
      <point x="491" y="385" type="curve" smooth="yes"/>
      <point x="476" y="388"/>
      <point x="450" y="393"/>
      <point x="431" y="393" type="curve" smooth="yes"/>
      <point x="344" y="393"/>
      <point x="223" y="331"/>
      <point x="223" y="190" type="curve" smooth="yes"/>
      <point x="223" y="121"/>
      <point x="277" y="73"/>
      <point x="353" y="73" type="curve" smooth="yes"/>
      <point x="390" y="73"/>
      <point x="419" y="89"/>
      <point x="435" y="100" type="curve" smooth="yes"/>
      <point x="445" y="107"/>
      <point x="449" y="109"/>
      <point x="453" y="109" type="curve" smooth="yes"/>
      <point x="456" y="109"/>
      <point x="458" y="107"/>
      <point x="461" y="100" type="curve" smooth="yes"/>
      <point x="464" y="93"/>
      <point x="472" y="77"/>
      <point x="494" y="77" type="curve" smooth="yes"/>
      <point x="620" y="77"/>
      <point x="711" y="158"/>
      <point x="711" y="266" type="curve" smooth="yes"/>
      <point x="711" y="425"/>
      <point x="577" y="533"/>
      <point x="431" y="533" type="curve" smooth="yes"/>
      <point x="203" y="533"/>
      <point x="70" y="398"/>
      <point x="70" y="221" type="curve" smooth="yes"/>
      <point x="70" y="7"/>
      <point x="265" y="-54"/>
    </contour>
    <contour>
      <point x="390" y="113" type="curve" smooth="yes"/>
      <point x="326" y="113"/>
      <point x="290" y="170"/>
      <point x="290" y="209" type="curve" smooth="yes"/>
      <point x="290" y="301"/>
      <point x="350" y="361"/>
      <point x="422" y="361" type="curve" smooth="yes"/>
      <point x="456" y="361"/>
      <point x="495" y="349"/>
      <point x="495" y="308" type="curve"/>
      <point x="463" y="168" type="line" smooth="yes"/>
      <point x="457" y="142"/>
      <point x="450" y="113"/>
    </contour>
  </outline>
</glyph>
<glyph name="B" format="1">
  <advance width="601"/>
  <unicode hex="0042"/>
  <outline>
    <contour>
      <point x="335" y="-3" type="curve" smooth="yes"/>
      <point x="471" y="-3"/>
      <point x="552" y="67"/>
      <point x="552" y="185" type="curve" smooth="yes"/>
      <point x="552" y="292"/>
      <point x="460" y="379"/>
      <point x="341" y="384" type="curve"/>
      <point x="442" y="404"/>
      <point x="511" y="470"/>
      <point x="511" y="549" type="curve" smooth="yes"/>
      <point x="511" y="657"/>
      <point x="411" y="734"/>
      <point x="272" y="734" type="curve" smooth="yes"/>
      <point x="240" y="734"/>
      <point x="208" y="734"/>
      <point x="176" y="732" type="curve" smooth="yes"/>
      <point x="144" y="730"/>
      <point x="112" y="730"/>
      <point x="80" y="730" type="curve" smooth="yes"/>
      <point x="71" y="730"/>
      <point x="63" y="730"/>
      <point x="54" y="730" type="curve"/>
      <point x="54" y="714" type="line"/>
      <point x="62" y="714"/>
      <point x="71" y="714"/>
      <point x="78" y="712" type="curve" smooth="yes"/>
      <point x="96" y="707"/>
      <point x="104" y="687"/>
      <point x="106" y="668" type="curve" smooth="yes"/>
      <point x="108" y="652"/>
      <point x="108" y="514"/>
      <point x="108" y="371" type="curve" smooth="yes"/>
      <point x="108" y="229"/>
      <point x="108" y="82"/>
      <point x="106" y="49" type="curve" smooth="yes"/>
      <point x="105" y="32"/>
      <point x="94" y="20"/>
      <point x="78" y="18" type="curve" smooth="yes"/>
      <point x="70" y="17"/>
      <point x="62" y="16"/>
      <point x="54" y="16" type="curve"/>
      <point x="54" y="0" type="line"/>
      <point x="134" y="0" type="line" smooth="yes"/>
      <point x="153" y="0"/>
      <point x="170" y="0"/>
      <point x="186" y="0" type="curve" smooth="yes"/>
      <point x="203" y="0"/>
      <point x="218" y="0"/>
      <point x="234" y="-1" type="curve" smooth="yes"/>
      <point x="268" y="-3"/>
      <point x="299" y="-3"/>
    </contour>
    <contour>
      <point x="257" y="24" type="curve" smooth="yes"/>
      <point x="242" y="24"/>
      <point x="225" y="24"/>
      <point x="209" y="25" type="curve" smooth="yes"/>
      <point x="193" y="26"/>
      <point x="187" y="34"/>
      <point x="187" y="50" type="curve" smooth="yes"/>
      <point x="187" y="685" type="line" smooth="yes"/>
      <point x="187" y="697"/>
      <point x="194" y="700"/>
      <point x="204" y="702" type="curve" smooth="yes"/>
      <point x="209" y="703"/>
      <point x="244" y="704"/>
      <point x="260" y="704" type="curve" smooth="yes"/>
      <point x="373" y="704"/>
      <point x="436" y="648"/>
      <point x="436" y="548" type="curve" smooth="yes"/>
      <point x="436" y="457"/>
      <point x="353" y="394"/>
      <point x="233" y="394" type="curve" smooth="yes"/>
      <point x="215" y="394"/>
      <point x="192" y="394"/>
      <point x="179" y="396" type="curve"/>
      <point x="169" y="355" type="line"/>
      <point x="226" y="358"/>
      <point x="250" y="358"/>
      <point x="262" y="358" type="curve" smooth="yes"/>
      <point x="395" y="358"/>
      <point x="468" y="300"/>
      <point x="468" y="195" type="curve" smooth="yes"/>
      <point x="468" y="80"/>
      <point x="399" y="24"/>
    </contour>
  </outline>
</glyph>
<glyph name="D" format="1">
  <advance width="776"/>
  <unicode hex="0044"/>
  <outline>
    <contour>
      <point x="326" y="-3" type="curve" smooth="yes"/>
      <point x="573" y="-3"/>
      <point x="709" y="132"/>
      <point x="709" y="363" type="curve" smooth="yes"/>
      <point x="709" y="582"/>
      <point x="562" y="731"/>
      <point x="345" y="731" type="curve" smooth="yes"/>
      <point x="293" y="731"/>
      <point x="241" y="730"/>
      <point x="189" y="730" type="curve"/>
      <point x="54" y="730" type="line"/>
      <point x="54" y="714" type="line"/>
      <point x="62" y="714"/>
      <point x="70" y="714"/>
      <point x="78" y="712" type="curve" smooth="yes"/>
      <point x="96" y="707"/>
      <point x="106" y="696"/>
      <point x="106" y="682" type="curve"/>
      <point x="108" y="623"/>
      <point x="109" y="500"/>
      <point x="109" y="375" type="curve" smooth="yes"/>
      <point x="109" y="249"/>
      <point x="109" y="120"/>
      <point x="106" y="49" type="curve" smooth="yes"/>
      <point x="105" y="32"/>
      <point x="94" y="20"/>
      <point x="78" y="18" type="curve" smooth="yes"/>
      <point x="70" y="17"/>
      <point x="62" y="16"/>
      <point x="54" y="16" type="curve"/>
      <point x="54" y="0" type="line"/>
      <point x="176" y="0" type="line"/>
      <point x="183" y="0"/>
      <point x="223" y="-1"/>
      <point x="260" y="-2" type="curve"/>
      <point x="287" y="-3"/>
      <point x="322" y="-3"/>
    </contour>
    <contour>
      <point x="206" y="29" type="line"/>
      <point x="193" y="29"/>
      <point x="189" y="34"/>
      <point x="189" y="50" type="curve" smooth="yes"/>
      <point x="189" y="684" type="line" smooth="yes"/>
      <point x="189" y="691"/>
      <point x="194" y="696"/>
      <point x="201" y="696" type="curve" smooth="yes"/>
      <point x="209" y="696"/>
      <point x="298" y="696"/>
      <point x="306" y="696" type="curve" smooth="yes"/>
      <point x="513" y="696"/>
      <point x="621" y="578"/>
      <point x="621" y="353" type="curve" smooth="yes"/>
      <point x="621" y="149"/>
      <point x="509" y="29"/>
      <point x="308" y="29" type="curve" smooth="yes"/>
    </contour>
    <contour>
      <point x="325" y="731" type="move" name="top"/>
    </contour>
  </outline>
</glyph>
<glyph name="K" format="1">
  <advance width="660"/>
  <unicode hex="004B"/>
  <outline>
    <contour>
      <point x="405" y="0" type="line"/>
      <point x="610" y="0" type="line"/>
      <point x="610" y="16" type="line"/>
      <point x="602" y="16"/>
      <point x="590" y="17"/>
      <point x="581" y="18" type="curve" smooth="yes"/>
      <point x="571" y="19"/>
      <point x="563" y="28"/>
      <point x="554" y="39" type="curve" smooth="yes"/>
      <point x="531" y="67"/>
      <point x="486" y="127"/>
      <point x="432" y="210" type="curve" smooth="yes"/>
      <point x="386" y="280"/>
      <point x="333" y="360"/>
      <point x="269" y="450" type="curve"/>
      <point x="262" y="386" type="line"/>
      <point x="477" y="678" type="line" smooth="yes"/>
      <point x="489" y="694"/>
      <point x="500" y="708"/>
      <point x="515" y="711" type="curve" smooth="yes"/>
      <point x="524" y="713"/>
      <point x="532" y="714"/>
      <point x="540" y="714" type="curve"/>
      <point x="540" y="730" type="line"/>
      <point x="390" y="730" type="line"/>
      <point x="390" y="714" type="line"/>
      <point x="409" y="714"/>
      <point x="434" y="711"/>
      <point x="434" y="696" type="curve" smooth="yes"/>
      <point x="434" y="688"/>
      <point x="429" y="675"/>
      <point x="414" y="656" type="curve" smooth="yes"/>
      <point x="252" y="443" type="line" smooth="yes"/>
      <point x="221" y="402"/>
      <point x="203" y="392"/>
      <point x="178" y="385" type="curve"/>
      <point x="178" y="335" type="line"/>
      <point x="193" y="339"/>
      <point x="215" y="345"/>
      <point x="229" y="363" type="curve"/>
      <point x="434" y="70" type="line"/>
      <point x="433" y="70" type="line"/>
      <point x="443" y="55"/>
      <point x="447" y="44"/>
      <point x="447" y="36" type="curve" smooth="yes"/>
      <point x="447" y="20"/>
      <point x="425" y="16"/>
      <point x="405" y="16" type="curve"/>
    </contour>
    <contour>
      <point x="54" y="0" type="line"/>
      <point x="244" y="0" type="line"/>
      <point x="244" y="16" type="line"/>
      <point x="236" y="16"/>
      <point x="228" y="17"/>
      <point x="220" y="18" type="curve" smooth="yes"/>
      <point x="201" y="20"/>
      <point x="193" y="35"/>
      <point x="192" y="49" type="curve" smooth="yes"/>
      <point x="188" y="153"/>
      <point x="187" y="259"/>
      <point x="187" y="363" type="curve" smooth="yes"/>
      <point x="187" y="469"/>
      <point x="188" y="577"/>
      <point x="192" y="683" type="curve" smooth="yes"/>
      <point x="193" y="696"/>
      <point x="201" y="707"/>
      <point x="220" y="712" type="curve" smooth="yes"/>
      <point x="228" y="714"/>
      <point x="236" y="714"/>
      <point x="244" y="714" type="curve"/>
      <point x="244" y="730" type="line"/>
      <point x="180" y="730"/>
      <point x="66" y="730"/>
      <point x="54" y="730" type="curve"/>
      <point x="54" y="714" type="line"/>
      <point x="62" y="714"/>
      <point x="70" y="714"/>
      <point x="78" y="712" type="curve" smooth="yes"/>
      <point x="97" y="707"/>
      <point x="105" y="695"/>
      <point x="106" y="682" type="curve" smooth="yes"/>
      <point x="108" y="634"/>
      <point x="109" y="491"/>
      <point x="109" y="350" type="curve" smooth="yes"/>
      <point x="109" y="226"/>
      <point x="108" y="105"/>
      <point x="106" y="49" type="curve" smooth="yes"/>
      <point x="106" y="35"/>
      <point x="97" y="23"/>
      <point x="78" y="18" type="curve" smooth="yes"/>
      <point x="70" y="16"/>
      <point x="62" y="16"/>
      <point x="54" y="16" type="curve"/>
    </contour>
    <contour>
      <point x="302" y="0" type="move" name="bottom"/>
    </contour>
  </outline>
</glyph>
<glyph name="M" format="1">
  <advance width="840"/>
  <unicode hex="004D"/>
  <outline>
    <contour>
      <point x="45" y="0" type="line"/>
      <point x="192" y="0" type="line"/>
      <point x="192" y="16" type="line"/>
      <point x="184" y="16"/>
      <point x="176" y="17"/>
      <point x="168" y="18" type="curve" smooth="yes"/>
      <point x="157" y="19"/>
      <point x="148" y="26"/>
      <point x="144" y="34" type="curve" smooth="yes"/>
      <point x="141" y="38"/>
      <point x="140" y="43"/>
      <point x="140" y="48" type="curve" smooth="yes"/>
      <point x="161" y="656" type="line"/>
      <point x="139" y="651" type="line"/>
      <point x="406" y="127" type="line"/>
      <point x="409" y="121"/>
      <point x="414" y="120"/>
      <point x="417" y="120" type="curve" smooth="yes"/>
      <point x="419" y="120"/>
      <point x="424" y="121"/>
      <point x="427" y="127" type="curve" smooth="yes"/>
      <point x="429" y="131"/>
      <point x="430" y="133"/>
      <point x="431" y="135" type="curve" smooth="yes"/>
      <point x="681" y="658" type="line"/>
      <point x="660" y="664" type="line"/>
      <point x="661" y="653"/>
      <point x="691" y="88"/>
      <point x="691" y="49" type="curve" smooth="yes"/>
      <point x="691" y="33"/>
      <point x="683" y="23"/>
      <point x="663" y="18" type="curve" smooth="yes"/>
      <point x="655" y="16"/>
      <point x="647" y="16"/>
      <point x="639" y="16" type="curve"/>
      <point x="639" y="0" type="line"/>
      <point x="825" y="0" type="line"/>
      <point x="825" y="16" type="line"/>
      <point x="816" y="16"/>
      <point x="807" y="17"/>
      <point x="799" y="18" type="curve" smooth="yes"/>
      <point x="780" y="20"/>
      <point x="772" y="34"/>
      <point x="771" y="47" type="curve" smooth="yes"/>
      <point x="738" y="681"/>
      <point x="738" y="681"/>
      <point x="738" y="685" type="curve" smooth="yes"/>
      <point x="738" y="696"/>
      <point x="748" y="710"/>
      <point x="766" y="712" type="curve" smooth="yes"/>
      <point x="774" y="713"/>
      <point x="783" y="714"/>
      <point x="792" y="714" type="curve"/>
      <point x="792" y="730" type="line"/>
      <point x="668" y="730" type="line"/>
      <point x="443" y="259" type="line"/>
      <point x="206" y="730" type="line"/>
      <point x="65" y="730" type="line"/>
      <point x="65" y="714" type="line"/>
      <point x="74" y="714"/>
      <point x="82" y="714"/>
      <point x="90" y="712" type="curve" smooth="yes"/>
      <point x="108" y="708"/>
      <point x="118" y="693"/>
      <point x="118" y="680" type="curve" smooth="yes"/>
      <point x="118" y="483"/>
      <point x="110" y="259"/>
      <point x="98" y="52" type="curve" smooth="yes"/>
      <point x="97" y="38"/>
      <point x="89" y="23"/>
      <point x="70" y="18" type="curve" smooth="yes"/>
      <point x="62" y="16"/>
      <point x="54" y="16"/>
      <point x="45" y="16" type="curve"/>
    </contour>
  </outline>
</glyph>
<glyph name="Q" format="1">
  <advance width="810"/>
  <unicode hex="0051"/>
  <outline>
    <contour>
      <point x="400" y="-16" type="curve" smooth="yes"/>
      <point x="579" y="-16"/>
      <point x="756" y="127"/>
      <point x="756" y="357" type="curve" smooth="yes"/>
      <point x="756" y="583"/>
      <point x="616" y="733"/>
      <point x="405" y="733" type="curve" smooth="yes"/>
      <point x="198" y="733"/>
      <point x="55" y="582"/>
      <point x="55" y="348" type="curve" smooth="yes"/>
      <point x="55" y="103"/>
      <point x="221" y="-16"/>
    </contour>
    <contour>
      <point x="557" y="-147" type="curve" smooth="yes"/>
      <point x="580" y="-147"/>
      <point x="606" y="-146"/>
      <point x="632" y="-143" type="curve"/>
      <point x="626" y="-115" type="line"/>
      <point x="618" y="-116"/>
      <point x="610" y="-116"/>
      <point x="602" y="-116" type="curve" smooth="yes"/>
      <point x="482" y="-116"/>
      <point x="436" y="-66"/>
      <point x="436" y="-2" type="curve"/>
      <point x="335" y="5" type="line"/>
      <point x="336" y="-100"/>
      <point x="412" y="-147"/>
    </contour>
    <contour>
      <point x="412" y="20" type="curve" smooth="yes"/>
      <point x="337" y="20"/>
      <point x="144" y="40"/>
      <point x="144" y="381" type="curve" smooth="yes"/>
      <point x="144" y="461"/>
      <point x="172" y="698"/>
      <point x="395" y="698" type="curve" smooth="yes"/>
      <point x="598" y="698"/>
      <point x="668" y="543"/>
      <point x="668" y="373" type="curve" smooth="yes"/>
      <point x="668" y="90"/>
      <point x="543" y="20"/>
    </contour>
  </outline>
</glyph>
<glyph name="X" format="1">
  <advance width="761"/>
  <unicode hex="0058"/>
  <unicode hex="03A7"/>
  <outline>
    <contour>
      <point x="368" y="340" type="line"/>
      <point x="346" y="373" type="line"/>
      <point x="115" y="52" type="line" smooth="yes"/>
      <point x="103" y="36"/>
      <point x="91" y="22"/>
      <point x="76" y="18" type="curve" smooth="yes"/>
      <point x="68" y="16"/>
      <point x="59" y="16"/>
      <point x="51" y="16" type="curve"/>
      <point x="51" y="0" type="line"/>
      <point x="199" y="0" type="line"/>
      <point x="199" y="16" type="line"/>
      <point x="191" y="16"/>
      <point x="184" y="16"/>
      <point x="176" y="17" type="curve" smooth="yes"/>
      <point x="166" y="18"/>
      <point x="156" y="23"/>
      <point x="156" y="34" type="curve" smooth="yes"/>
      <point x="156" y="42"/>
      <point x="161" y="54"/>
      <point x="175" y="74" type="curve"/>
    </contour>
    <contour>
      <point x="425" y="381" type="curve" smooth="yes"/>
      <point x="238" y="660" type="line" smooth="yes"/>
      <point x="228" y="674"/>
      <point x="225" y="685"/>
      <point x="225" y="692" type="curve" smooth="yes"/>
      <point x="225" y="705"/>
      <point x="235" y="708"/>
      <point x="246" y="711" type="curve" smooth="yes"/>
      <point x="254" y="713"/>
      <point x="263" y="714"/>
      <point x="271" y="714" type="curve"/>
      <point x="271" y="730" type="line"/>
      <point x="70" y="730" type="line"/>
      <point x="70" y="714" type="line"/>
      <point x="78" y="714"/>
      <point x="86" y="713"/>
      <point x="95" y="711" type="curve" smooth="yes"/>
      <point x="105" y="709"/>
      <point x="113" y="702"/>
      <point x="122" y="690" type="curve" smooth="yes"/>
      <point x="164" y="634"/>
      <point x="255" y="506"/>
      <point x="336" y="372" type="curve" smooth="yes"/>
      <point x="339" y="367"/>
      <point x="343" y="361"/>
      <point x="347" y="355" type="curve" smooth="yes"/>
      <point x="535" y="70" type="line" smooth="yes"/>
      <point x="544" y="56"/>
      <point x="549" y="45"/>
      <point x="549" y="38" type="curve" smooth="yes"/>
      <point x="549" y="25"/>
      <point x="540" y="21"/>
      <point x="528" y="18" type="curve" smooth="yes"/>
      <point x="521" y="16"/>
      <point x="515" y="16"/>
      <point x="506" y="16" type="curve"/>
      <point x="506" y="0" type="line"/>
      <point x="708" y="0" type="line"/>
      <point x="708" y="16" type="line"/>
      <point x="699" y="16"/>
      <point x="687" y="17"/>
      <point x="679" y="18" type="curve" smooth="yes"/>
      <point x="668" y="19"/>
      <point x="660" y="28"/>
      <point x="652" y="39" type="curve" smooth="yes"/>
      <point x="628" y="73"/>
      <point x="587" y="134"/>
      <point x="543" y="202" type="curve" smooth="yes"/>
      <point x="506" y="260"/>
      <point x="474" y="308"/>
    </contour>
    <contour>
      <point x="384" y="425" type="line"/>
      <point x="406" y="392" type="line"/>
      <point x="614" y="678" type="line" smooth="yes"/>
      <point x="625" y="694"/>
      <point x="637" y="708"/>
      <point x="652" y="711" type="curve" smooth="yes"/>
      <point x="661" y="713"/>
      <point x="669" y="714"/>
      <point x="677" y="714" type="curve"/>
      <point x="677" y="730" type="line"/>
      <point x="529" y="730" type="line"/>
      <point x="529" y="714" type="line"/>
      <point x="537" y="714"/>
      <point x="545" y="714"/>
      <point x="553" y="712" type="curve" smooth="yes"/>
      <point x="565" y="709"/>
      <point x="573" y="707"/>
      <point x="573" y="697" type="curve" smooth="yes"/>
      <point x="573" y="689"/>
      <point x="568" y="676"/>
      <point x="553" y="656" type="curve" smooth="yes"/>
    </contour>
  </outline>
</glyph>
<glyph name="bracketleft" format="1">
  <advance width="311"/>
  <unicode hex="005B"/>
  <outline>
    <contour>
      <point x="93" y="-87" type="curve" smooth="yes"/>
      <point x="258" y="-87" type="line" smooth="yes"/>
      <point x="264" y="-87"/>
      <point x="267" y="-78"/>
      <point x="267" y="-66" type="curve" smooth="yes"/>
      <point x="267" y="-56"/>
      <point x="264" y="-47"/>
      <point x="258" y="-47" type="curve" smooth="yes"/>
      <point x="128" y="-47" type="line"/>
      <point x="128" y="753" type="line"/>
      <point x="258" y="753" type="line" smooth="yes"/>
      <point x="264" y="753"/>
      <point x="267" y="762"/>
      <point x="267" y="774" type="curve" smooth="yes"/>
      <point x="267" y="784"/>
      <point x="264" y="793"/>
      <point x="258" y="793" type="curve" smooth="yes"/>
      <point x="97" y="793" type="line" smooth="yes"/>
      <point x="81" y="793"/>
      <point x="74" y="787"/>
      <point x="74" y="773" type="curve" smooth="yes"/>
      <point x="74" y="-67" type="line" smooth="yes"/>
      <point x="74" y="-81"/>
      <point x="80" y="-87"/>
    </contour>
  </outline>
</glyph>
<glyph name="backslash" format="1">
  <advance width="398"/>
  <unicode hex="005C"/>
  <outline>
    <contour>
      <point x="327" y="-103" type="curve" smooth="yes"/>
      <point x="337" y="-103"/>
      <point x="347" y="-101"/>
      <point x="356" y="-96" type="curve"/>
      <point x="255" y="183"/>
      <point x="182" y="419"/>
      <point x="110" y="676" type="curve"/>
      <point x="93" y="690"/>
      <point x="76" y="696"/>
      <point x="64" y="696" type="curve" smooth="yes"/>
      <point x="51" y="696"/>
      <point x="43" y="689"/>
      <point x="43" y="676" type="curve"/>
      <point x="108" y="493"/>
      <point x="218" y="149"/>
      <point x="282" y="-58" type="curve" smooth="yes"/>
      <point x="290" y="-84"/>
      <point x="306" y="-103"/>
    </contour>
  </outline>
</glyph>
<glyph name="bracketright" format="1">
  <advance width="311"/>
  <unicode hex="005D"/>
  <outline>
    <contour>
      <point x="51" y="-87" type="curve" smooth="yes"/>
      <point x="216" y="-87" type="line"/>
      <point x="229" y="-87"/>
      <point x="235" y="-81"/>
      <point x="235" y="-67" type="curve" smooth="yes"/>
      <point x="235" y="773" type="line" smooth="yes"/>
      <point x="235" y="787"/>
      <point x="228" y="793"/>
      <point x="212" y="793" type="curve"/>
      <point x="51" y="793" type="line" smooth="yes"/>
      <point x="45" y="793"/>
      <point x="42" y="784"/>
      <point x="42" y="774" type="curve" smooth="yes"/>
      <point x="42" y="762"/>
      <point x="45" y="753"/>
      <point x="51" y="753" type="curve" smooth="yes"/>
      <point x="181" y="753" type="line"/>
      <point x="181" y="-47" type="line"/>
      <point x="51" y="-47" type="line" smooth="yes"/>
      <point x="45" y="-47"/>
      <point x="42" y="-56"/>
      <point x="42" y="-66" type="curve" smooth="yes"/>
      <point x="42" y="-78"/>
      <point x="45" y="-87"/>
    </contour>
  </outline>
</glyph>
<glyph name="asciicircum" format="1">
  <advance width="507"/>
  <unicode hex="005E"/>
  <outline>
    <contour>
      <point x="98" y="559" type="curve"/>
      <point x="255" y="670" type="line"/>
      <point x="412" y="559" type="line"/>
      <point x="421" y="562"/>
      <point x="428" y="568"/>
      <point x="432" y="579" type="curve"/>
      <point x="255" y="756" type="line"/>
      <point x="78" y="579" type="line"/>
      <point x="81" y="569"/>
      <point x="88" y="562"/>
    </contour>
  </outline>
</glyph>
<glyph name="underscore" format="1">
  <advance width="296"/>
  <unicode hex="005F"/>
  <outline>
    <contour>
      <point x="0" y="-3" type="line"/>
      <point x="296" y="-3" type="line"/>
      <point x="296" y="37" type="line"/>
      <point x="0" y="37" type="line"/>
    </contour>
  </outline>
</glyph>
<glyph name="grave" format="1">
  <advance width="270"/>
  <unicode hex="0060"/>
  <outline>
    <contour>
      <point x="215" y="567" type="curve"/>
      <point x="224" y="567" type="line"/>
      <point x="208" y="590"/>
      <point x="187" y="621"/>
      <point x="169" y="649" type="curve" smooth="yes"/>
      <point x="147" y="683"/>
      <point x="131" y="707"/>
      <point x="119" y="721" type="curve" smooth="yes"/>
      <point x="111" y="731"/>
      <point x="100" y="734"/>
      <point x="88" y="734" type="curve" smooth="yes"/>
      <point x="71" y="734"/>
      <point x="50" y="725"/>
      <point x="50" y="707" type="curve" smooth="yes"/>
      <point x="50" y="691"/>
      <point x="68" y="671"/>
      <point x="81" y="658" type="curve" smooth="yes"/>
      <point x="96" y="643"/>
      <point x="162" y="600"/>
    </contour>
    <contour>
      <point x="147" y="507" type="move" name="_top"/>
    </contour>
  </outline>
</glyph>
<glyph name="b" format="1">
  <advance width="561"/>
  <unicode hex="0062"/>
  <outline>
    <contour>
      <point x="151" y="22" type="curve"/>
      <point x="157" y="105" type="line"/>
      <point x="157" y="730" type="line" smooth="yes"/>
      <point x="157" y="742"/>
      <point x="156" y="748"/>
      <point x="151" y="748" type="curve" smooth="yes"/>
      <point x="150" y="748"/>
      <point x="147" y="747"/>
      <point x="144" y="746" type="curve" smooth="yes"/>
      <point x="57" y="723" type="line"/>
      <point x="57" y="709" type="line"/>
      <point x="62" y="709"/>
      <point x="67" y="708"/>
      <point x="72" y="706" type="curve" smooth="yes"/>
      <point x="85" y="701"/>
      <point x="91" y="689"/>
      <point x="91" y="671" type="curve" smooth="yes"/>
      <point x="91" y="34" type="line" smooth="yes"/>
      <point x="91" y="25"/>
      <point x="85" y="15"/>
      <point x="72" y="13" type="curve" smooth="yes"/>
      <point x="66" y="12"/>
      <point x="61" y="12"/>
      <point x="55" y="12" type="curve"/>
      <point x="55" y="-4" type="line"/>
      <point x="114" y="-4"/>
      <point x="132" y="3"/>
    </contour>
    <contour>
      <point x="152" y="136" type="curve"/>
      <point x="137" y="34" type="line"/>
      <point x="180" y="0"/>
      <point x="232" y="-10"/>
      <point x="276" y="-10" type="curve" smooth="yes"/>
      <point x="427" y="-10"/>
      <point x="507" y="73"/>
      <point x="507" y="253" type="curve" smooth="yes"/>
      <point x="507" y="452"/>
      <point x="398" y="512"/>
      <point x="277" y="512" type="curve" smooth="yes"/>
      <point x="224" y="512"/>
      <point x="187" y="498"/>
      <point x="152" y="470" type="curve"/>
      <point x="150" y="444" type="line"/>
      <point x="191" y="469"/>
      <point x="229" y="482"/>
      <point x="261" y="482" type="curve" smooth="yes"/>
      <point x="389" y="482"/>
      <point x="431" y="375"/>
      <point x="431" y="218" type="curve" smooth="yes"/>
      <point x="431" y="95"/>
      <point x="375" y="12"/>
      <point x="290" y="12" type="curve" smooth="yes"/>
      <point x="205" y="12"/>
      <point x="171" y="72"/>
    </contour>
  </outline>
</glyph>
<glyph name="d" format="1">
  <advance width="545"/>
  <unicode hex="0064"/>
  <outline>
    <contour>
      <point x="394" y="35" type="curve"/>
      <point x="396" y="64" type="line"/>
      <point x="358" y="34"/>
      <point x="318" y="20"/>
      <point x="284" y="20" type="curve" smooth="yes"/>
      <point x="155" y="20"/>
      <point x="113" y="126"/>
      <point x="113" y="284" type="curve" smooth="yes"/>
      <point x="113" y="407"/>
      <point x="164" y="492"/>
      <point x="265" y="492" type="curve" smooth="yes"/>
      <point x="340" y="492"/>
      <point x="383" y="432"/>
      <point x="392" y="361" type="curve"/>
      <point x="404" y="456" type="line"/>
      <point x="357" y="501"/>
      <point x="313" y="512"/>
      <point x="264" y="512" type="curve" smooth="yes"/>
      <point x="116" y="512"/>
      <point x="37" y="426"/>
      <point x="37" y="250" type="curve" smooth="yes"/>
      <point x="37" y="51"/>
      <point x="146" y="-10"/>
      <point x="267" y="-10" type="curve" smooth="yes"/>
      <point x="319" y="-10"/>
      <point x="361" y="-1"/>
    </contour>
    <contour>
      <point x="389" y="671" type="curve" smooth="yes"/>
      <point x="389" y="38" type="line"/>
      <point x="389" y="16"/>
      <point x="395" y="-7"/>
      <point x="417" y="-7" type="curve" smooth="yes"/>
      <point x="443" y="-7"/>
      <point x="466" y="4"/>
      <point x="495" y="19" type="curve"/>
      <point x="489" y="43" type="line"/>
      <point x="477" y="39"/>
      <point x="466" y="37"/>
      <point x="455" y="35" type="curve"/>
      <point x="455" y="40"/>
      <point x="455" y="47"/>
      <point x="455" y="53" type="curve" smooth="yes"/>
      <point x="455" y="56"/>
      <point x="455" y="59"/>
      <point x="455" y="62" type="curve" smooth="yes"/>
      <point x="455" y="730" type="line" smooth="yes"/>
      <point x="455" y="739"/>
      <point x="455" y="744"/>
      <point x="453" y="746" type="curve" smooth="yes"/>
      <point x="452" y="747"/>
      <point x="451" y="748"/>
      <point x="449" y="748" type="curve" smooth="yes"/>
      <point x="448" y="748"/>
      <point x="441" y="746"/>
      <point x="438" y="745" type="curve" smooth="yes"/>
      <point x="356" y="723" type="line"/>
      <point x="356" y="709" type="line"/>
      <point x="360" y="709"/>
      <point x="365" y="708"/>
      <point x="370" y="706" type="curve" smooth="yes"/>
      <point x="383" y="701"/>
      <point x="389" y="690"/>
    </contour>
    <contour>
      <point x="259" y="-18" type="move" name="bottom"/>
    </contour>
    <contour>
      <point x="417" y="739" type="move" name="top"/>
    </contour>
  </outline>
</glyph>
<glyph name="g" format="1">
  <advance width="496"/>
  <unicode hex="0067"/>
  <outline>
    <contour>
      <point x="223" y="-236" type="curve" smooth="yes"/>
      <point x="340" y="-236"/>
      <point x="470" y="-178"/>
      <point x="470" y="-72" type="curve" smooth="yes"/>
      <point x="470" y="11"/>
      <point x="404" y="41"/>
      <point x="302" y="46" type="curve" smooth="yes"/>
      <point x="205" y="51" type="line" smooth="yes"/>
      <point x="190" y="52"/>
      <point x="175" y="53"/>
      <point x="169" y="55" type="curve" smooth="yes"/>
      <point x="159" y="58"/>
      <point x="155" y="63"/>
      <point x="155" y="69" type="curve" smooth="yes"/>
      <point x="155" y="73"/>
      <point x="158" y="77"/>
      <point x="163" y="80" type="curve" smooth="yes"/>
      <point x="191" y="97"/>
      <point x="223" y="108"/>
      <point x="254" y="118" type="curve"/>
      <point x="215" y="124" type="line"/>
      <point x="212" y="122"/>
      <point x="198" y="118"/>
      <point x="183" y="114" type="curve" smooth="yes"/>
      <point x="136" y="100"/>
      <point x="60" y="77"/>
      <point x="60" y="45" type="curve" smooth="yes"/>
      <point x="60" y="26"/>
      <point x="89" y="14"/>
      <point x="119" y="8" type="curve" smooth="yes"/>
      <point x="143" y="3"/>
      <point x="178" y="-1"/>
      <point x="219" y="-3" type="curve"/>
      <point x="229" y="-8" type="line"/>
      <point x="249" y="-8" type="line"/>
      <point x="334" y="-8"/>
      <point x="420" y="-22"/>
      <point x="420" y="-101" type="curve" smooth="yes"/>
      <point x="420" y="-169"/>
      <point x="315" y="-211"/>
      <point x="223" y="-211" type="curve" smooth="yes"/>
      <point x="151" y="-211"/>
      <point x="87" y="-184"/>
      <point x="87" y="-122" type="curve" smooth="yes"/>
      <point x="87" y="-53"/>
      <point x="148" y="-35"/>
      <point x="240" y="-7" type="curve"/>
      <point x="223" y="0" type="line"/>
      <point x="220" y="-1"/>
      <point x="213" y="-3"/>
      <point x="209" y="-4" type="curve" smooth="yes"/>
      <point x="138" y="-22"/>
      <point x="20" y="-53"/>
      <point x="20" y="-134" type="curve" smooth="yes"/>
      <point x="20" y="-215"/>
      <point x="121" y="-236"/>
    </contour>
    <contour>
      <point x="254" y="118" type="line"/>
      <point x="335" y="144"/>
      <point x="409" y="170"/>
      <point x="409" y="300" type="curve" smooth="yes"/>
      <point x="409" y="370"/>
      <point x="393" y="418"/>
      <point x="365" y="452" type="curve"/>
      <point x="348" y="468" type="line" smooth="yes"/>
      <point x="315" y="498"/>
      <point x="270" y="510"/>
      <point x="228" y="510" type="curve" smooth="yes"/>
      <point x="215" y="510"/>
      <point x="202" y="510"/>
      <point x="190" y="508" type="curve" smooth="yes"/>
      <point x="110" y="495"/>
      <point x="46" y="441"/>
      <point x="46" y="324" type="curve" smooth="yes"/>
      <point x="46" y="170"/>
      <point x="141" y="123"/>
      <point x="219" y="122" type="curve"/>
    </contour>
    <contour>
      <point x="241" y="153" type="curve" smooth="yes"/>
      <point x="154" y="153"/>
      <point x="119" y="227"/>
      <point x="119" y="345" type="curve" smooth="yes"/>
      <point x="119" y="412"/>
      <point x="144" y="481"/>
      <point x="215" y="481" type="curve" smooth="yes"/>
      <point x="309" y="481"/>
      <point x="341" y="428"/>
      <point x="341" y="305" type="curve" smooth="yes"/>
      <point x="341" y="222"/>
      <point x="325" y="153"/>
    </contour>
    <contour>
      <point x="394" y="442" type="curve" smooth="yes"/>
      <point x="413" y="442"/>
      <point x="427" y="448"/>
      <point x="437" y="458" type="curve" smooth="yes"/>
      <point x="444" y="465"/>
      <point x="452" y="475"/>
      <point x="452" y="488" type="curve" smooth="yes"/>
      <point x="452" y="498"/>
      <point x="445" y="507"/>
      <point x="437" y="507" type="curve" smooth="yes"/>
      <point x="394" y="507"/>
      <point x="366" y="492"/>
      <point x="330" y="469" type="curve"/>
      <point x="358" y="448" type="line"/>
      <point x="372" y="444"/>
      <point x="384" y="442"/>
    </contour>
    <contour>
      <point x="220" y="507" type="move" name="top"/>
    </contour>
  </outline>
</glyph>
<glyph name="k" format="1">
  <advance width="533"/>
  <unicode hex="006B"/>
  <outline>
    <contour>
      <point x="55" y="0" type="line"/>
      <point x="193" y="0" type="line"/>
      <point x="193" y="16" type="line"/>
      <point x="187" y="16"/>
      <point x="182" y="16"/>
      <point x="176" y="17" type="curve"/>
      <point x="164" y="19"/>
      <point x="157" y="28"/>
      <point x="157" y="37" type="curve"/>
      <point x="157" y="292" type="line"/>
      <point x="162" y="296"/>
      <point x="167" y="297"/>
      <point x="173" y="297" type="curve" smooth="yes"/>
      <point x="195" y="297"/>
      <point x="207" y="282"/>
      <point x="224" y="261" type="curve" smooth="yes"/>
      <point x="231" y="253"/>
      <point x="269" y="208"/>
      <point x="278" y="195" type="curve" smooth="yes"/>
      <point x="287" y="183"/>
      <point x="296" y="172"/>
      <point x="305" y="161" type="curve" smooth="yes"/>
      <point x="356" y="99"/>
      <point x="390" y="52"/>
      <point x="390" y="28" type="curve" smooth="yes"/>
      <point x="390" y="23"/>
      <point x="387" y="19"/>
      <point x="379" y="17" type="curve"/>
      <point x="374" y="16"/>
      <point x="372" y="16"/>
      <point x="366" y="16" type="curve"/>
      <point x="366" y="0" type="line"/>
      <point x="506" y="0" type="line"/>
      <point x="506" y="16" type="line"/>
      <point x="502" y="16"/>
      <point x="499" y="16"/>
      <point x="494" y="18" type="curve"/>
      <point x="483" y="22"/>
      <point x="478" y="26"/>
      <point x="462" y="46" type="curve" smooth="yes"/>
      <point x="458" y="51"/>
      <point x="452" y="59"/>
      <point x="445" y="69" type="curve" smooth="yes"/>
      <point x="428" y="94"/>
      <point x="399" y="136"/>
      <point x="348" y="203" type="curve" smooth="yes"/>
      <point x="328" y="230"/>
      <point x="311" y="252"/>
      <point x="297" y="269" type="curve" smooth="yes"/>
      <point x="265" y="310"/>
      <point x="251" y="328"/>
      <point x="251" y="338" type="curve"/>
      <point x="297" y="373"/>
      <point x="329" y="402"/>
      <point x="355" y="426" type="curve" smooth="yes"/>
      <point x="384" y="452"/>
      <point x="406" y="471"/>
      <point x="428" y="482" type="curve" smooth="yes"/>
      <point x="440" y="488"/>
      <point x="456" y="491"/>
      <point x="475" y="491" type="curve"/>
      <point x="475" y="507" type="line"/>
      <point x="336" y="507" type="line"/>
      <point x="336" y="491" type="line"/>
      <point x="342" y="491"/>
      <point x="347" y="491"/>
      <point x="353" y="490" type="curve" smooth="yes"/>
      <point x="357" y="489"/>
      <point x="360" y="487"/>
      <point x="360" y="483" type="curve" smooth="yes"/>
      <point x="360" y="471"/>
      <point x="335" y="445"/>
      <point x="282" y="402" type="curve" smooth="yes"/>
      <point x="271" y="393"/>
      <point x="260" y="384"/>
      <point x="252" y="377" type="curve" smooth="yes"/>
      <point x="206" y="337"/>
      <point x="190" y="326"/>
      <point x="178" y="326" type="curve" smooth="yes"/>
      <point x="169" y="326"/>
      <point x="157" y="329"/>
      <point x="157" y="350" type="curve" smooth="yes"/>
      <point x="157" y="728" type="line"/>
      <point x="157" y="739"/>
      <point x="153" y="744"/>
      <point x="146" y="744" type="curve" smooth="yes"/>
      <point x="143" y="744"/>
      <point x="140" y="743"/>
      <point x="137" y="742" type="curve" smooth="yes"/>
      <point x="57" y="721" type="line"/>
      <point x="57" y="708" type="line"/>
      <point x="62" y="708"/>
      <point x="67" y="708"/>
      <point x="72" y="706" type="curve"/>
      <point x="85" y="701"/>
      <point x="91" y="688"/>
      <point x="91" y="669" type="curve"/>
      <point x="91" y="38" type="line"/>
      <point x="91" y="28"/>
      <point x="85" y="19"/>
      <point x="72" y="17" type="curve"/>
      <point x="66" y="16"/>
      <point x="61" y="16"/>
      <point x="55" y="16" type="curve"/>
    </contour>
  </outline>
</glyph>
<glyph name="l" format="1">
  <advance width="241"/>
  <unicode hex="006C"/>
  <outline>
    <contour>
      <point x="52" y="0" type="line"/>
      <point x="190" y="0" type="line"/>
      <point x="190" y="16" type="line"/>
      <point x="184" y="16"/>
      <point x="179" y="16"/>
      <point x="173" y="17" type="curve"/>
      <point x="160" y="19"/>
      <point x="154" y="28"/>
      <point x="154" y="37" type="curve"/>
      <point x="154" y="752" type="line"/>
      <point x="154" y="764"/>
      <point x="153" y="769"/>
      <point x="148" y="769" type="curve" smooth="yes"/>
      <point x="147" y="769"/>
      <point x="146" y="769"/>
      <point x="145" y="769" type="curve" smooth="yes"/>
      <point x="54" y="745" type="line"/>
      <point x="54" y="731" type="line"/>
      <point x="59" y="731"/>
      <point x="64" y="730"/>
      <point x="69" y="728" type="curve"/>
      <point x="82" y="723"/>
      <point x="88" y="711"/>
      <point x="88" y="693" type="curve"/>
      <point x="88" y="37" type="line"/>
      <point x="88" y="28"/>
      <point x="82" y="19"/>
      <point x="69" y="17" type="curve"/>
      <point x="63" y="16"/>
      <point x="58" y="16"/>
      <point x="52" y="16" type="curve"/>
    </contour>
    <contour>
      <point x="121" y="755" type="move" name="top"/>
    </contour>
  </outline>
</glyph>
<glyph name="m" format="1">
  <advance width="857"/>
  <unicode hex="006D"/>
  <outline>
    <contour>
      <point x="362" y="0" type="line"/>
      <point x="500" y="0" type="line"/>
      <point x="500" y="16" type="line"/>
      <point x="495" y="16"/>
      <point x="489" y="16"/>
      <point x="483" y="17" type="curve"/>
      <point x="471" y="19"/>
      <point x="464" y="28"/>
      <point x="464" y="37" type="curve"/>
      <point x="464" y="384" type="line" smooth="yes"/>
      <point x="464" y="390"/>
      <point x="464" y="398"/>
      <point x="466" y="402" type="curve" smooth="yes"/>
      <point x="501" y="473"/>
      <point x="549" y="481"/>
      <point x="587" y="481" type="curve" smooth="yes"/>
      <point x="658" y="481"/>
      <point x="699" y="426"/>
      <point x="699" y="345" type="curve"/>
      <point x="699" y="37" type="line"/>
      <point x="699" y="28"/>
      <point x="693" y="20"/>
      <point x="680" y="17" type="curve"/>
      <point x="675" y="16"/>
      <point x="669" y="16"/>
      <point x="663" y="16" type="curve"/>
      <point x="663" y="0" type="line"/>
      <point x="801" y="0" type="line"/>
      <point x="801" y="16" type="line"/>
      <point x="796" y="16"/>
      <point x="790" y="16"/>
      <point x="784" y="17" type="curve"/>
      <point x="772" y="19"/>
      <point x="765" y="28"/>
      <point x="765" y="37" type="curve"/>
      <point x="765" y="349" type="line"/>
      <point x="765" y="457"/>
      <point x="681" y="508"/>
      <point x="602" y="508" type="curve" smooth="yes"/>
      <point x="537" y="508"/>
      <point x="489" y="491"/>
      <point x="449" y="425" type="curve"/>
      <point x="417" y="487"/>
      <point x="360" y="510"/>
      <point x="301" y="510" type="curve" smooth="yes"/>
      <point x="240" y="510"/>
      <point x="201" y="492"/>
      <point x="158" y="457" type="curve"/>
      <point x="158" y="435" type="line"/>
      <point x="199" y="467"/>
      <point x="237" y="482"/>
      <point x="280" y="482" type="curve" smooth="yes"/>
      <point x="346" y="482"/>
      <point x="399" y="423"/>
      <point x="399" y="352" type="curve"/>
      <point x="399" y="37" type="line"/>
      <point x="399" y="28"/>
      <point x="392" y="20"/>
      <point x="379" y="17" type="curve"/>
      <point x="374" y="16"/>
      <point x="368" y="16"/>
      <point x="362" y="16" type="curve"/>
    </contour>
    <contour>
      <point x="57" y="0" type="line"/>
      <point x="199" y="0" type="line"/>
      <point x="199" y="16" type="line"/>
      <point x="193" y="16"/>
      <point x="188" y="16"/>
      <point x="182" y="17" type="curve"/>
      <point x="169" y="19"/>
      <point x="163" y="28"/>
      <point x="163" y="37" type="curve"/>
      <point x="163" y="455" type="line" smooth="yes"/>
      <point x="163" y="469"/>
      <point x="163" y="483"/>
      <point x="163" y="497" type="curve"/>
      <point x="163" y="508"/>
      <point x="162" y="514"/>
      <point x="157" y="514" type="curve" smooth="yes"/>
      <point x="156" y="514"/>
      <point x="155" y="514"/>
      <point x="154" y="514" type="curve" smooth="yes"/>
      <point x="59" y="489" type="line"/>
      <point x="59" y="476" type="line"/>
      <point x="64" y="476"/>
      <point x="69" y="475"/>
      <point x="74" y="473" type="curve"/>
      <point x="87" y="468"/>
      <point x="93" y="456"/>
      <point x="93" y="438" type="curve"/>
      <point x="93" y="37" type="line"/>
      <point x="93" y="28"/>
      <point x="87" y="19"/>
      <point x="74" y="17" type="curve"/>
      <point x="68" y="16"/>
      <point x="63" y="16"/>
      <point x="57" y="16" type="curve"/>
    </contour>
  </outline>
</glyph>
<glyph name="o" format="1">
  <advance width="534"/>
  <unicode hex="006F"/>
  <outline>
    <contour>
      <point x="273" y="-10" type="curve" smooth="yes"/>
      <point x="402" y="-10"/>
      <point x="487" y="81"/>
      <point x="487" y="254" type="curve" smooth="yes"/>
      <point x="487" y="442"/>
      <point x="363" y="511"/>
      <point x="252" y="511" type="curve" smooth="yes"/>
      <point x="131" y="511"/>
      <point x="41" y="434"/>
      <point x="41" y="249" type="curve" smooth="yes"/>
      <point x="41" y="54"/>
      <point x="149" y="-10"/>
    </contour>
    <contour>
      <point x="279" y="20" type="curve" smooth="yes"/>
      <point x="147" y="20"/>
      <point x="117" y="167"/>
      <point x="117" y="275" type="curve" smooth="yes"/>
      <point x="117" y="383"/>
      <point x="156" y="481"/>
      <point x="249" y="481" type="curve" smooth="yes"/>
      <point x="394" y="481"/>
      <point x="411" y="323"/>
      <point x="411" y="215" type="curve" smooth="yes"/>
      <point x="411" y="126"/>
      <point x="372" y="20"/>
    </contour>
    <contour>
      <point x="275" y="-18" type="move" name="bottom"/>
    </contour>
    <contour>
      <point x="260" y="507" type="move" name="top"/>
    </contour>
  </outline>
</glyph>
<glyph name="p" format="1">
  <advance width="544"/>
  <unicode hex="0070"/>
  <outline>
    <contour>
      <point x="275" y="-13" type="curve" smooth="yes"/>
      <point x="423" y="-13"/>
      <point x="502" y="73"/>
      <point x="502" y="251" type="curve" smooth="yes"/>
      <point x="502" y="449"/>
      <point x="393" y="509"/>
      <point x="272" y="509" type="curve" smooth="yes"/>
      <point x="220" y="509"/>
      <point x="183" y="495"/>
      <point x="147" y="467" type="curve"/>
      <point x="145" y="442" type="line"/>
      <point x="187" y="467"/>
      <point x="225" y="479"/>
      <point x="257" y="479" type="curve" smooth="yes"/>
      <point x="384" y="479"/>
      <point x="426" y="372"/>
      <point x="426" y="215" type="curve" smooth="yes"/>
      <point x="426" y="92"/>
      <point x="370" y="9"/>
      <point x="285" y="9" type="curve" smooth="yes"/>
      <point x="200" y="9"/>
      <point x="166" y="69"/>
      <point x="147" y="133" type="curve"/>
      <point x="137" y="34" type="line"/>
      <point x="183" y="-2"/>
      <point x="233" y="-13"/>
    </contour>
    <contour>
      <point x="50" y="-232" type="line"/>
      <point x="188" y="-232" type="line"/>
      <point x="188" y="-216" type="line"/>
      <point x="182" y="-216"/>
      <point x="177" y="-216"/>
      <point x="171" y="-215" type="curve"/>
      <point x="158" y="-213"/>
      <point x="152" y="-204"/>
      <point x="152" y="-195" type="curve"/>
      <point x="152" y="504" type="line"/>
      <point x="152" y="510"/>
      <point x="151" y="513"/>
      <point x="146" y="513" type="curve" smooth="yes"/>
      <point x="145" y="513"/>
      <point x="144" y="513"/>
      <point x="143" y="513" type="curve" smooth="yes"/>
      <point x="52" y="489" type="line"/>
      <point x="52" y="475" type="line"/>
      <point x="57" y="475"/>
      <point x="62" y="474"/>
      <point x="67" y="472" type="curve" smooth="yes"/>
      <point x="80" y="467"/>
      <point x="86" y="455"/>
      <point x="86" y="437" type="curve"/>
      <point x="86" y="-195" type="line"/>
      <point x="86" y="-204"/>
      <point x="80" y="-213"/>
      <point x="67" y="-215" type="curve"/>
      <point x="61" y="-216"/>
      <point x="56" y="-216"/>
      <point x="50" y="-216" type="curve"/>
    </contour>
  </outline>
</glyph>
<glyph name="r" format="1">
  <advance width="377"/>
  <unicode hex="0072"/>
  <outline>
    <contour>
      <point x="160" y="37" type="curve"/>
      <point x="160" y="496" type="line"/>
      <point x="160" y="508"/>
      <point x="159" y="513"/>
      <point x="154" y="513" type="curve" smooth="yes"/>
      <point x="153" y="513"/>
      <point x="152" y="513"/>
      <point x="151" y="513" type="curve" smooth="yes"/>
      <point x="58" y="487" type="line"/>
      <point x="58" y="473" type="line"/>
      <point x="63" y="473"/>
      <point x="67" y="473"/>
      <point x="73" y="472" type="curve"/>
      <point x="85" y="470"/>
      <point x="92" y="463"/>
      <point x="92" y="445" type="curve"/>
      <point x="92" y="37" type="line"/>
      <point x="92" y="28"/>
      <point x="86" y="19"/>
      <point x="73" y="17" type="curve"/>
      <point x="67" y="16"/>
      <point x="62" y="16"/>
      <point x="56" y="16" type="curve"/>
      <point x="56" y="0" type="line"/>
      <point x="196" y="0" type="line"/>
      <point x="196" y="16" type="line"/>
      <point x="190" y="16"/>
      <point x="185" y="16"/>
      <point x="179" y="17" type="curve"/>
      <point x="166" y="19"/>
      <point x="160" y="28"/>
    </contour>
    <contour>
      <point x="153" y="431" type="curve"/>
      <point x="158" y="378" type="line"/>
      <point x="160" y="396"/>
      <point x="197" y="450"/>
      <point x="242" y="450" type="curve" smooth="yes"/>
      <point x="254" y="450"/>
      <point x="264" y="447"/>
      <point x="274" y="443" type="curve" smooth="yes"/>
      <point x="285" y="439"/>
      <point x="296" y="436"/>
      <point x="312" y="436" type="curve" smooth="yes"/>
      <point x="339" y="436"/>
      <point x="365" y="453"/>
      <point x="365" y="479" type="curve" smooth="yes"/>
      <point x="365" y="500"/>
      <point x="312" y="503"/>
      <point x="299" y="503" type="curve" smooth="yes"/>
      <point x="230" y="503"/>
      <point x="183" y="460"/>
    </contour>
    <contour>
      <point x="252" y="507" type="move" name="top"/>
    </contour>
  </outline>
</glyph>
<glyph name="s" format="1">
  <advance width="421"/>
  <unicode hex="0073"/>
  <outline>
    <contour>
      <point x="210" y="-10" type="curve" smooth="yes"/>
      <point x="300" y="-10"/>
      <point x="373" y="58"/>
      <point x="373" y="141" type="curve" smooth="yes"/>
      <point x="373" y="203"/>
      <point x="314" y="244"/>
      <point x="261" y="281" type="curve"/>
      <point x="242" y="294" type="line"/>
      <point x="199" y="322"/>
      <point x="141" y="360"/>
      <point x="141" y="406" type="curve" smooth="yes"/>
      <point x="141" y="443"/>
      <point x="172" y="489"/>
      <point x="233" y="489" type="curve" smooth="yes"/>
      <point x="285" y="489"/>
      <point x="308" y="446"/>
      <point x="318" y="427" type="curve" smooth="yes"/>
      <point x="320" y="423"/>
      <point x="323" y="417"/>
      <point x="326" y="417" type="curve" smooth="yes"/>
      <point x="333" y="417"/>
      <point x="348" y="461"/>
      <point x="348" y="472" type="curve" smooth="yes"/>
      <point x="348" y="485"/>
      <point x="289" y="511"/>
      <point x="230" y="511" type="curve" smooth="yes"/>
      <point x="137" y="511"/>
      <point x="79" y="443"/>
      <point x="79" y="375" type="curve" smooth="yes"/>
      <point x="79" y="318"/>
      <point x="142" y="273"/>
      <point x="186" y="245" type="curve"/>
      <point x="207" y="232" type="line"/>
      <point x="251" y="206"/>
      <point x="313" y="161"/>
      <point x="313" y="108" type="curve" smooth="yes"/>
      <point x="313" y="53"/>
      <point x="263" y="17"/>
      <point x="207" y="17" type="curve" smooth="yes"/>
      <point x="119" y="17"/>
      <point x="101" y="84"/>
      <point x="93" y="118" type="curve" smooth="yes"/>
      <point x="92" y="122"/>
      <point x="90" y="124"/>
      <point x="88" y="124" type="curve" smooth="yes"/>
      <point x="78" y="124"/>
      <point x="45" y="89"/>
      <point x="45" y="76" type="curve" smooth="yes"/>
      <point x="45" y="49"/>
      <point x="99" y="-10"/>
    </contour>
    <contour>
      <point x="209" y="-1" type="move" name="bottom"/>
    </contour>
    <contour>
      <point x="213" y="507" type="move" name="top"/>
    </contour>
  </outline>
</glyph>
<glyph name="v" format="1">
  <advance width="533"/>
  <unicode hex="0076"/>
  <outline>
    <contour>
      <point x="256" y="-9" type="curve" smooth="yes"/>
      <point x="262" y="-9"/>
      <point x="267" y="-5"/>
      <point x="270" y="0" type="curve" smooth="yes"/>
      <point x="275" y="9"/>
      <point x="341" y="172"/>
      <point x="395" y="306" type="curve" smooth="yes"/>
      <point x="434" y="402"/>
      <point x="467" y="479"/>
      <point x="468" y="481" type="curve" smooth="yes"/>
      <point x="469" y="483"/>
      <point x="473" y="489"/>
      <point x="478" y="490" type="curve"/>
      <point x="481" y="491"/>
      <point x="492" y="491"/>
      <point x="495" y="491" type="curve"/>
      <point x="495" y="507" type="line"/>
      <point x="380" y="507" type="line"/>
      <point x="380" y="491" type="line"/>
      <point x="386" y="491"/>
      <point x="389" y="491"/>
      <point x="395" y="490" type="curve" smooth="yes"/>
      <point x="405" y="488"/>
      <point x="413" y="482"/>
      <point x="413" y="474" type="curve" smooth="yes"/>
      <point x="413" y="472"/>
      <point x="411" y="465"/>
      <point x="410" y="463" type="curve"/>
      <point x="358" y="321" type="line" smooth="yes"/>
      <point x="323" y="224"/>
      <point x="280" y="131"/>
      <point x="270" y="111" type="curve"/>
      <point x="276" y="111" type="line"/>
      <point x="273" y="113"/>
      <point x="234" y="223"/>
      <point x="204" y="311" type="curve" smooth="yes"/>
      <point x="152" y="465" type="line"/>
      <point x="150" y="470"/>
      <point x="149" y="475"/>
      <point x="149" y="479" type="curve" smooth="yes"/>
      <point x="149" y="485"/>
      <point x="152" y="489"/>
      <point x="160" y="490" type="curve"/>
      <point x="166" y="491"/>
      <point x="172" y="492"/>
      <point x="178" y="492" type="curve"/>
      <point x="178" y="507" type="line"/>
      <point x="46" y="507" type="line"/>
      <point x="46" y="491" type="line"/>
      <point x="50" y="491"/>
      <point x="57" y="491"/>
      <point x="61" y="490" type="curve"/>
      <point x="67" y="489"/>
      <point x="69" y="485"/>
      <point x="72" y="478" type="curve"/>
      <point x="142" y="287" type="line" smooth="yes"/>
      <point x="183" y="174"/>
      <point x="224" y="52"/>
      <point x="229" y="37" type="curve" smooth="yes"/>
      <point x="234" y="22"/>
      <point x="240" y="6"/>
      <point x="243" y="0" type="curve" smooth="yes"/>
      <point x="246" y="-6"/>
      <point x="251" y="-9"/>
    </contour>
    <contour>
      <point x="282" y="-14" type="move" name="bottom"/>
    </contour>
  </outline>
</glyph>
<glyph name="w" format="1">
  <advance width="834"/>
  <unicode hex="0077"/>
  <outline>
    <contour>
      <point x="425" y="362" type="curve"/>
      <point x="401" y="420" type="line"/>
      <point x="392" y="393"/>
      <point x="378" y="357"/>
      <point x="363" y="319" type="curve" smooth="yes"/>
      <point x="326" y="226"/>
      <point x="277" y="119"/>
      <point x="270" y="103" type="curve"/>
      <point x="292" y="103" type="line"/>
      <point x="276" y="138"/>
      <point x="245" y="219"/>
      <point x="214" y="309" type="curve"/>
      <point x="161" y="464" type="line"/>
      <point x="158" y="472"/>
      <point x="158" y="474"/>
      <point x="158" y="477" type="curve" smooth="yes"/>
      <point x="158" y="483"/>
      <point x="161" y="489"/>
      <point x="169" y="490" type="curve" smooth="yes"/>
      <point x="175" y="491"/>
      <point x="181" y="491"/>
      <point x="187" y="491" type="curve"/>
      <point x="187" y="507" type="line"/>
      <point x="52" y="507" type="line"/>
      <point x="52" y="490" type="line"/>
      <point x="56" y="490"/>
      <point x="62" y="490"/>
      <point x="66" y="489" type="curve" smooth="yes"/>
      <point x="74" y="487"/>
      <point x="75" y="484"/>
      <point x="77" y="478" type="curve"/>
      <point x="149" y="285" type="line"/>
      <point x="189" y="177"/>
      <point x="233" y="57"/>
      <point x="240" y="37" type="curve" smooth="yes"/>
      <point x="241" y="34"/>
      <point x="252" y="1"/>
      <point x="253" y="-1" type="curve" smooth="yes"/>
      <point x="255" y="-5"/>
      <point x="260" y="-8"/>
      <point x="265" y="-8" type="curve" smooth="yes"/>
      <point x="270" y="-8"/>
      <point x="276" y="-6"/>
      <point x="278" y="-2" type="curve" smooth="yes"/>
      <point x="282" y="7"/>
      <point x="350" y="169"/>
      <point x="401" y="304" type="curve" smooth="yes"/>
      <point x="409" y="325"/>
      <point x="417" y="345"/>
    </contour>
    <contour>
      <point x="371" y="478" type="curve" smooth="yes"/>
      <point x="413" y="362" type="line"/>
      <point x="423" y="339"/>
      <point x="433" y="312"/>
      <point x="443" y="285" type="curve" smooth="yes"/>
      <point x="468" y="217"/>
      <point x="531" y="37"/>
      <point x="533" y="31" type="curve" smooth="yes"/>
      <point x="537" y="20"/>
      <point x="541" y="9"/>
      <point x="546" y="-1" type="curve" smooth="yes"/>
      <point x="548" y="-5"/>
      <point x="552" y="-7"/>
      <point x="557" y="-7" type="curve" smooth="yes"/>
      <point x="562" y="-7"/>
      <point x="566" y="-6"/>
      <point x="568" y="-2" type="curve" smooth="yes"/>
      <point x="573" y="7"/>
      <point x="637" y="170"/>
      <point x="689" y="304" type="curve" smooth="yes"/>
      <point x="726" y="400"/>
      <point x="763" y="482"/>
      <point x="764" y="484" type="curve" smooth="yes"/>
      <point x="765" y="487"/>
      <point x="767" y="489"/>
      <point x="772" y="490" type="curve" smooth="yes"/>
      <point x="775" y="491"/>
      <point x="782" y="491"/>
      <point x="785" y="491" type="curve"/>
      <point x="785" y="507" type="line"/>
      <point x="672" y="507" type="line"/>
      <point x="672" y="491" type="line"/>
      <point x="678" y="491"/>
      <point x="683" y="491"/>
      <point x="689" y="490" type="curve" smooth="yes"/>
      <point x="699" y="488"/>
      <point x="707" y="480"/>
      <point x="707" y="472" type="curve" smooth="yes"/>
      <point x="707" y="469"/>
      <point x="707" y="468"/>
      <point x="706" y="465" type="curve" smooth="yes"/>
      <point x="651" y="319" type="line" smooth="yes"/>
      <point x="616" y="226"/>
      <point x="566" y="114"/>
      <point x="560" y="103" type="curve"/>
      <point x="581" y="103" type="line"/>
      <point x="575" y="120"/>
      <point x="538" y="219"/>
      <point x="505" y="309" type="curve" smooth="yes"/>
      <point x="479" y="380"/>
      <point x="455" y="448"/>
      <point x="451" y="462" type="curve" smooth="yes"/>
      <point x="450" y="466"/>
      <point x="449" y="471"/>
      <point x="449" y="478" type="curve" smooth="yes"/>
      <point x="449" y="484"/>
      <point x="452" y="489"/>
      <point x="460" y="490" type="curve" smooth="yes"/>
      <point x="466" y="491"/>
      <point x="472" y="491"/>
      <point x="478" y="491" type="curve"/>
      <point x="478" y="507" type="line"/>
      <point x="346" y="507" type="line"/>
      <point x="346" y="491" type="line"/>
      <point x="349" y="491"/>
      <point x="355" y="491"/>
      <point x="360" y="490" type="curve" smooth="yes"/>
      <point x="366" y="489"/>
      <point x="369" y="483"/>
    </contour>
    <contour>
      <point x="413" y="507" type="move" name="top"/>
    </contour>
  </outline>
</glyph>
<glyph name="x" format="1">
  <advance width="572"/>
  <unicode hex="0078"/>
  <outline>
    <contour>
      <point x="369" y="0" type="line"/>
      <point x="516" y="0" type="line"/>
      <point x="516" y="16" type="line"/>
      <point x="510" y="16"/>
      <point x="506" y="16"/>
      <point x="501" y="17" type="curve" smooth="yes"/>
      <point x="494" y="18"/>
      <point x="489" y="22"/>
      <point x="486" y="25" type="curve" smooth="yes"/>
      <point x="453" y="58"/>
      <point x="401" y="136"/>
      <point x="304" y="297" type="curve"/>
      <point x="187" y="469" type="line"/>
      <point x="185" y="472"/>
      <point x="183" y="476"/>
      <point x="183" y="482" type="curve" smooth="yes"/>
      <point x="183" y="486"/>
      <point x="186" y="489"/>
      <point x="193" y="490" type="curve" smooth="yes"/>
      <point x="199" y="491"/>
      <point x="204" y="491"/>
      <point x="209" y="491" type="curve"/>
      <point x="209" y="507" type="line"/>
      <point x="70" y="507" type="line"/>
      <point x="70" y="491" type="line"/>
      <point x="76" y="491"/>
      <point x="81" y="491"/>
      <point x="86" y="489" type="curve" smooth="yes"/>
      <point x="95" y="486"/>
      <point x="99" y="482"/>
      <point x="104" y="476" type="curve" smooth="yes"/>
      <point x="105" y="475"/>
      <point x="206" y="330"/>
      <point x="258" y="247" type="curve" smooth="yes"/>
      <point x="283" y="207"/>
      <point x="297" y="186"/>
      <point x="342" y="120" type="curve" smooth="yes"/>
      <point x="356" y="100"/>
      <point x="374" y="74"/>
      <point x="398" y="38" type="curve" smooth="yes"/>
      <point x="399" y="36"/>
      <point x="400" y="34"/>
      <point x="400" y="32" type="curve" smooth="yes"/>
      <point x="400" y="25"/>
      <point x="394" y="19"/>
      <point x="383" y="17" type="curve" smooth="yes"/>
      <point x="378" y="16"/>
      <point x="374" y="16"/>
      <point x="369" y="16" type="curve"/>
    </contour>
    <contour>
      <point x="52" y="0" type="line"/>
      <point x="169" y="0" type="line"/>
      <point x="169" y="16" type="line"/>
      <point x="163" y="16"/>
      <point x="157" y="16"/>
      <point x="152" y="17" type="curve" smooth="yes"/>
      <point x="142" y="19"/>
      <point x="137" y="24"/>
      <point x="137" y="30" type="curve" smooth="yes"/>
      <point x="137" y="33"/>
      <point x="138" y="35"/>
      <point x="140" y="38" type="curve"/>
      <point x="167" y="78"/>
      <point x="225" y="159"/>
      <point x="280" y="232" type="curve"/>
      <point x="259" y="262" type="line"/>
      <point x="211" y="202"/>
      <point x="147" y="116"/>
      <point x="111" y="66" type="curve" smooth="yes"/>
      <point x="93" y="42"/>
      <point x="81" y="26"/>
      <point x="80" y="25" type="curve" smooth="yes"/>
      <point x="76" y="21"/>
      <point x="73" y="18"/>
      <point x="66" y="17" type="curve" smooth="yes"/>
      <point x="61" y="16"/>
      <point x="58" y="16"/>
      <point x="52" y="16" type="curve"/>
    </contour>
    <contour>
      <point x="310" y="272" type="line"/>
      <point x="473" y="484" type="line"/>
      <point x="478" y="489"/>
      <point x="487" y="491"/>
      <point x="498" y="491" type="curve"/>
      <point x="498" y="507" type="line"/>
      <point x="379" y="507" type="line"/>
      <point x="379" y="491" type="line"/>
      <point x="393" y="491"/>
      <point x="414" y="489"/>
      <point x="414" y="477" type="curve" smooth="yes"/>
      <point x="414" y="474"/>
      <point x="413" y="472"/>
      <point x="410" y="468" type="curve"/>
      <point x="291" y="302" type="line"/>
    </contour>
    <contour>
      <point x="293" y="507" type="move" name="top"/>
    </contour>
  </outline>
</glyph>
<glyph name="y" format="1">
  <advance width="546"/>
  <unicode hex="0079"/>
  <outline>
    <contour>
      <point x="102" y="-227" type="curve" smooth="yes"/>
      <point x="160" y="-227"/>
      <point x="236" y="-93"/>
      <point x="258" y="-54" type="curve" smooth="yes"/>
      <point x="269" y="-35"/>
      <point x="291" y="17"/>
      <point x="305" y="57" type="curve" smooth="yes"/>
      <point x="321" y="103"/>
      <point x="344" y="164"/>
      <point x="371" y="226" type="curve" smooth="yes"/>
      <point x="381" y="249"/>
      <point x="390" y="271"/>
      <point x="399" y="294" type="curve" smooth="yes"/>
      <point x="437" y="390"/>
      <point x="466" y="468"/>
      <point x="470" y="479" type="curve" smooth="yes"/>
      <point x="473" y="487"/>
      <point x="488" y="491"/>
      <point x="500" y="492" type="curve"/>
      <point x="500" y="507" type="line"/>
      <point x="383" y="507" type="line"/>
      <point x="383" y="492" type="line"/>
      <point x="405" y="491"/>
      <point x="421" y="487"/>
      <point x="421" y="471" type="curve" smooth="yes"/>
      <point x="421" y="468"/>
      <point x="420" y="463"/>
      <point x="418" y="458" type="curve"/>
      <point x="362" y="309" type="line" smooth="yes"/>
      <point x="348" y="272"/>
      <point x="332" y="233"/>
      <point x="317" y="198" type="curve" smooth="yes"/>
      <point x="293" y="143"/>
      <point x="272" y="93"/>
      <point x="271" y="82" type="curve"/>
      <point x="293" y="82" type="line"/>
      <point x="286" y="91"/>
      <point x="274" y="123"/>
      <point x="260" y="161" type="curve" smooth="yes"/>
      <point x="246" y="199"/>
      <point x="227" y="251"/>
      <point x="210" y="298" type="curve" smooth="yes"/>
      <point x="196" y="336"/>
      <point x="186" y="366"/>
      <point x="178" y="390" type="curve" smooth="yes"/>
      <point x="159" y="446"/>
      <point x="152" y="467"/>
      <point x="152" y="476" type="curve" smooth="yes"/>
      <point x="152" y="491"/>
      <point x="168" y="491"/>
      <point x="181" y="491" type="curve"/>
      <point x="181" y="507" type="line"/>
      <point x="47" y="507" type="line"/>
      <point x="47" y="491" type="line"/>
      <point x="64" y="491"/>
      <point x="68" y="485"/>
      <point x="71" y="477" type="curve"/>
      <point x="147" y="275" type="line" smooth="yes"/>
      <point x="188" y="165"/>
      <point x="230" y="47"/>
      <point x="237" y="27" type="curve" smooth="yes"/>
      <point x="238" y="24"/>
      <point x="243" y="8"/>
      <point x="244" y="1" type="curve"/>
      <point x="238" y="-18"/>
      <point x="212" y="-78"/>
      <point x="195" y="-99" type="curve" smooth="yes"/>
      <point x="174" y="-125"/>
      <point x="155" y="-134"/>
      <point x="137" y="-142" type="curve" smooth="yes"/>
      <point x="117" y="-151"/>
      <point x="102" y="-158"/>
      <point x="92" y="-186" type="curve" smooth="yes"/>
      <point x="90" y="-192"/>
      <point x="88" y="-200"/>
      <point x="88" y="-208" type="curve" smooth="yes"/>
      <point x="88" y="-218"/>
      <point x="93" y="-227"/>
    </contour>
    <contour>
      <point x="276" y="507" type="move" name="top"/>
    </contour>
  </outline>
</glyph>
<glyph name="bar" format="1">
  <advance width="200"/>
  <unicode hex="007C"/>
  <outline>
    <contour>
      <point x="100" y="-57" type="curve" smooth="yes"/>
      <point x="113" y="-57"/>
      <point x="127" y="-54"/>
      <point x="127" y="-47" type="curve"/>
      <point x="127" y="736" type="line"/>
      <point x="127" y="742"/>
      <point x="115" y="745"/>
      <point x="102" y="745" type="curve" smooth="yes"/>
      <point x="88" y="745"/>
      <point x="74" y="742"/>
      <point x="74" y="736" type="curve"/>
      <point x="74" y="-47" type="line"/>
      <point x="74" y="-54"/>
      <point x="87" y="-57"/>
    </contour>
  </outline>
</glyph>
<glyph name="braceright" format="1">
  <advance width="217"/>
  <unicode hex="007D"/>
  <outline>
    <contour>
      <point x="19" y="-85" type="line"/>
      <point x="47" y="-85"/>
      <point x="143" y="-77"/>
      <point x="143" y="22" type="curve" smooth="yes"/>
      <point x="143" y="75"/>
      <point x="136" y="131"/>
      <point x="132" y="163" type="curve" smooth="yes"/>
      <point x="128" y="196"/>
      <point x="125" y="228"/>
      <point x="125" y="264" type="curve" smooth="yes"/>
      <point x="125" y="315"/>
      <point x="164" y="334"/>
      <point x="180" y="341" type="curve" smooth="yes"/>
      <point x="188" y="345"/>
      <point x="198" y="352"/>
      <point x="198" y="358" type="curve" smooth="yes"/>
      <point x="198" y="364"/>
      <point x="188" y="370"/>
      <point x="180" y="374" type="curve" smooth="yes"/>
      <point x="164" y="381"/>
      <point x="125" y="401"/>
      <point x="125" y="452" type="curve" smooth="yes"/>
      <point x="125" y="488"/>
      <point x="128" y="520"/>
      <point x="132" y="553" type="curve" smooth="yes"/>
      <point x="136" y="585"/>
      <point x="143" y="641"/>
      <point x="143" y="694" type="curve" smooth="yes"/>
      <point x="143" y="793"/>
      <point x="47" y="801"/>
      <point x="19" y="801" type="curve"/>
      <point x="19" y="785" type="line"/>
      <point x="49" y="785"/>
      <point x="87" y="760"/>
      <point x="87" y="695" type="curve" smooth="yes"/>
      <point x="87" y="658"/>
      <point x="82" y="598"/>
      <point x="77" y="548" type="curve" smooth="yes"/>
      <point x="73" y="511"/>
      <point x="71" y="478"/>
      <point x="71" y="458" type="curve" smooth="yes"/>
      <point x="71" y="396"/>
      <point x="94" y="365"/>
      <point x="131" y="358" type="curve"/>
      <point x="94" y="351"/>
      <point x="71" y="320"/>
      <point x="71" y="258" type="curve" smooth="yes"/>
      <point x="71" y="238"/>
      <point x="73" y="205"/>
      <point x="77" y="168" type="curve" smooth="yes"/>
      <point x="82" y="118"/>
      <point x="87" y="58"/>
      <point x="87" y="21" type="curve" smooth="yes"/>
      <point x="87" y="-44"/>
      <point x="49" y="-69"/>
      <point x="19" y="-69" type="curve"/>
    </contour>
  </outline>
</glyph>
<glyph name="cent" format="1">
  <advance width="530"/>
  <unicode hex="00A2"/>
  <outline>
    <contour>
      <point x="207" y="127"/>
      <point x="278" y="127" type="curve" smooth="yes"/>
      <point x="346" y="127"/>
      <point x="385" y="139"/>
      <point x="431" y="185" type="curve"/>
      <point x="420" y="201" type="line"/>
      <point x="381" y="172"/>
      <point x="343" y="159"/>
      <point x="311" y="159" type="curve" smooth="yes"/>
      <point x="218" y="159"/>
      <point x="166" y="245"/>
      <point x="166" y="351" type="curve" smooth="yes"/>
      <point x="166" y="454"/>
      <point x="219" y="507"/>
      <point x="273" y="507" type="curve" smooth="yes"/>
      <point x="307" y="507"/>
      <point x="322" y="497"/>
      <point x="344" y="465" type="curve" smooth="yes"/>
      <point x="353" y="452"/>
      <point x="365" y="436"/>
      <point x="389" y="436" type="curve" smooth="yes"/>
      <point x="403" y="436"/>
      <point x="423" y="444"/>
      <point x="423" y="455" type="curve" smooth="yes"/>
      <point x="423" y="491"/>
      <point x="337" y="524"/>
      <point x="286" y="524" type="curve" smooth="yes"/>
      <point x="173" y="524"/>
      <point x="106" y="465"/>
      <point x="106" y="333" type="curve" smooth="yes"/>
      <point x="106" y="185"/>
    </contour>
    <contour>
      <point x="277" y="518" type="line"/>
      <point x="317" y="512" type="line"/>
      <point x="324" y="602" type="line"/>
      <point x="283" y="602" type="line"/>
    </contour>
    <contour>
      <point x="250" y="163" type="line"/>
      <point x="290" y="151" type="line"/>
      <point x="317" y="509" type="line"/>
      <point x="277" y="515" type="line"/>
    </contour>
    <contour>
      <point x="290" y="137" type="line"/>
      <point x="249" y="141" type="line"/>
      <point x="239" y="16" type="line"/>
      <point x="280" y="16" type="line"/>
    </contour>
  </outline>
</glyph>
<glyph name="sterling" format="1">
  <advance width="487"/>
  <unicode hex="00A3"/>
  <outline>
    <contour>
      <point x="212" y="179"/>
      <point x="203" y="217" type="curve" smooth="yes"/>
      <point x="198" y="238"/>
      <point x="191" y="264"/>
      <point x="176" y="304" type="curve" smooth="yes"/>
      <point x="159" y="350"/>
      <point x="156" y="403"/>
      <point x="156" y="464" type="curve" smooth="yes"/>
      <point x="156" y="526"/>
      <point x="169" y="611"/>
      <point x="255" y="611" type="curve" smooth="yes"/>
      <point x="341" y="611"/>
      <point x="349" y="558"/>
      <point x="349" y="543" type="curve" smooth="yes"/>
      <point x="349" y="529"/>
      <point x="345" y="520"/>
      <point x="340" y="515" type="curve" smooth="yes"/>
      <point x="334" y="509"/>
      <point x="324" y="498"/>
      <point x="324" y="485" type="curve" smooth="yes"/>
      <point x="324" y="471"/>
      <point x="339" y="455"/>
      <point x="357" y="455" type="curve" smooth="yes"/>
      <point x="383" y="455"/>
      <point x="394" y="477"/>
      <point x="394" y="501" type="curve" smooth="yes"/>
      <point x="394" y="574"/>
      <point x="354" y="639"/>
      <point x="261" y="639" type="curve" smooth="yes"/>
      <point x="161" y="639"/>
      <point x="93" y="562"/>
      <point x="93" y="469" type="curve"/>
      <point x="93" y="405"/>
      <point x="99" y="352"/>
      <point x="117" y="305" type="curve" smooth="yes"/>
      <point x="133" y="263"/>
      <point x="144" y="234"/>
      <point x="151" y="212" type="curve" smooth="yes"/>
      <point x="164" y="172"/>
      <point x="167" y="158"/>
      <point x="170" y="131" type="curve"/>
      <point x="156" y="141"/>
      <point x="140" y="146"/>
      <point x="113" y="146" type="curve" smooth="yes"/>
      <point x="66" y="146"/>
      <point x="31" y="114"/>
      <point x="31" y="71" type="curve" smooth="yes"/>
      <point x="31" y="33"/>
      <point x="62" y="-7"/>
      <point x="107" y="-7" type="curve" smooth="yes"/>
      <point x="156" y="-7"/>
      <point x="178" y="22"/>
      <point x="196" y="64" type="curve"/>
      <point x="218" y="38"/>
      <point x="257" y="-8"/>
      <point x="318" y="-8" type="curve" smooth="yes"/>
      <point x="394" y="-8"/>
      <point x="447" y="39"/>
      <point x="461" y="121" type="curve"/>
      <point x="447" y="121" type="line"/>
      <point x="429" y="72"/>
      <point x="406" y="54"/>
      <point x="340" y="54" type="curve" smooth="yes"/>
      <point x="284" y="54"/>
      <point x="238" y="77"/>
      <point x="209" y="109" type="curve"/>
      <point x="212" y="119"/>
      <point x="214" y="130"/>
      <point x="214" y="141" type="curve" smooth="yes"/>
      <point x="214" y="167"/>
    </contour>
    <contour>
      <point x="111" y="28" type="curve" smooth="yes"/>
      <point x="78" y="28"/>
      <point x="57" y="51"/>
      <point x="57" y="75" type="curve" smooth="yes"/>
      <point x="57" y="97"/>
      <point x="77" y="120"/>
      <point x="112" y="120" type="curve" smooth="yes"/>
      <point x="140" y="120"/>
      <point x="159" y="105"/>
      <point x="170" y="91" type="curve"/>
      <point x="169" y="66"/>
      <point x="142" y="28"/>
    </contour>
    <contour>
      <point x="132" y="280" type="line"/>
      <point x="123" y="312" type="line"/>
      <point x="51" y="312" type="line"/>
      <point x="51" y="280" type="line"/>
    </contour>
    <contour>
      <point x="166" y="312" type="line"/>
      <point x="174" y="280" type="line"/>
      <point x="313" y="280" type="line"/>
      <point x="313" y="312" type="line"/>
    </contour>
  </outline>
</glyph>
<glyph name="yen" format="1">
  <advance width="630"/>
  <unicode hex="00A5"/>
  <outline>
    <contour>
      <point x="227" y="0" type="line"/>
      <point x="391" y="0" type="line"/>
      <point x="391" y="14" type="line"/>
      <point x="383" y="14"/>
      <point x="376" y="15"/>
      <point x="369" y="16" type="curve" smooth="yes"/>
      <point x="353" y="18"/>
      <point x="345" y="31"/>
      <point x="345" y="42" type="curve" smooth="yes"/>
      <point x="343" y="103"/>
      <point x="342" y="163"/>
      <point x="342" y="223" type="curve" smooth="yes"/>
      <point x="342" y="264"/>
      <point x="343" y="304"/>
      <point x="345" y="344" type="curve"/>
      <point x="513" y="601" type="line" smooth="yes"/>
      <point x="520" y="612"/>
      <point x="538" y="621"/>
      <point x="560" y="621" type="curve"/>
      <point x="560" y="635" type="line"/>
      <point x="431" y="635" type="line"/>
      <point x="431" y="621" type="line"/>
      <point x="438" y="621"/>
      <point x="444" y="621"/>
      <point x="451" y="620" type="curve" smooth="yes"/>
      <point x="460" y="619"/>
      <point x="469" y="615"/>
      <point x="469" y="606" type="curve" smooth="yes"/>
      <point x="469" y="599"/>
      <point x="463" y="589"/>
      <point x="452" y="571" type="curve" smooth="yes"/>
      <point x="314" y="352" type="line"/>
      <point x="343" y="352" type="line"/>
      <point x="214" y="574" type="line" smooth="yes"/>
      <point x="207" y="586"/>
      <point x="202" y="595"/>
      <point x="202" y="602" type="curve" smooth="yes"/>
      <point x="202" y="613"/>
      <point x="212" y="618"/>
      <point x="222" y="619" type="curve" smooth="yes"/>
      <point x="229" y="620"/>
      <point x="236" y="621"/>
      <point x="243" y="621" type="curve"/>
      <point x="243" y="635" type="line"/>
      <point x="70" y="635" type="line"/>
      <point x="70" y="621" type="line"/>
      <point x="77" y="621"/>
      <point x="84" y="621"/>
      <point x="91" y="619" type="curve" smooth="yes"/>
      <point x="100" y="616"/>
      <point x="107" y="611"/>
      <point x="115" y="601" type="curve" smooth="yes"/>
      <point x="145" y="564"/>
      <point x="191" y="485"/>
      <point x="238" y="399" type="curve"/>
      <point x="273" y="335" type="line"/>
      <point x="275" y="298"/>
      <point x="276" y="261"/>
      <point x="276" y="224" type="curve" smooth="yes"/>
      <point x="276" y="163"/>
      <point x="275" y="103"/>
      <point x="273" y="42" type="curve" smooth="yes"/>
      <point x="273" y="31"/>
      <point x="265" y="18"/>
      <point x="248" y="16" type="curve" smooth="yes"/>
      <point x="241" y="15"/>
      <point x="234" y="14"/>
      <point x="227" y="14" type="curve"/>
    </contour>
    <contour>
      <point x="104" y="294" type="line"/>
      <point x="282" y="294" type="line"/>
      <point x="282" y="320" type="line"/>
      <point x="104" y="320" type="line"/>
    </contour>
    <contour>
      <point x="104" y="381" type="line"/>
      <point x="255" y="381" type="line"/>
      <point x="241" y="407" type="line"/>
      <point x="104" y="407" type="line"/>
    </contour>
    <contour>
      <point x="336" y="294" type="line"/>
      <point x="518" y="294" type="line"/>
      <point x="518" y="320" type="line"/>
      <point x="336" y="320" type="line"/>
    </contour>
    <contour>
      <point x="361" y="381" type="line"/>
      <point x="518" y="381" type="line"/>
      <point x="518" y="407" type="line"/>
      <point x="378" y="407" type="line"/>
    </contour>
  </outline>
</glyph>
<glyph name="brokenbar" format="1">
  <advance width="191"/>
  <unicode hex="00A6"/>
  <outline>
    <contour>
      <point x="70" y="369" type="line"/>
      <point x="70" y="369"/>
      <point x="114" y="378"/>
      <point x="114" y="389" type="curve" smooth="yes"/>
      <point x="114" y="752" type="line" smooth="yes"/>
      <point x="114" y="752"/>
      <point x="114" y="752"/>
      <point x="113" y="752" type="curve" smooth="yes"/>
      <point x="108" y="752"/>
      <point x="70" y="746"/>
      <point x="70" y="732" type="curve" smooth="yes"/>
    </contour>
    <contour>
      <point x="70" y="-70" type="line"/>
      <point x="70" y="-70"/>
      <point x="114" y="-61"/>
      <point x="114" y="-50" type="curve" smooth="yes"/>
      <point x="114" y="313" type="line" smooth="yes"/>
      <point x="114" y="313"/>
      <point x="114" y="313"/>
      <point x="113" y="313" type="curve" smooth="yes"/>
      <point x="108" y="313"/>
      <point x="70" y="307"/>
      <point x="70" y="293" type="curve" smooth="yes"/>
    </contour>
  </outline>
</glyph>
<glyph name="section" format="1">
  <advance width="442"/>
  <unicode hex="00A7"/>
  <outline>
    <contour>
      <point x="227" y="-72" type="curve" smooth="yes"/>
      <point x="273" y="-72"/>
      <point x="340" y="-19"/>
      <point x="340" y="89" type="curve" smooth="yes"/>
      <point x="340" y="106"/>
      <point x="333" y="130"/>
      <point x="327" y="145" type="curve"/>
      <point x="363" y="198"/>
      <point x="390" y="257"/>
      <point x="390" y="296" type="curve" smooth="yes"/>
      <point x="390" y="374"/>
      <point x="339" y="415"/>
      <point x="286" y="456" type="curve" smooth="yes"/>
      <point x="229" y="500"/>
      <point x="171" y="546"/>
      <point x="171" y="641" type="curve" smooth="yes"/>
      <point x="171" y="720"/>
      <point x="207" y="779"/>
      <point x="245" y="779" type="curve" smooth="yes"/>
      <point x="271" y="779"/>
      <point x="278" y="749"/>
      <point x="282" y="723" type="curve" smooth="yes"/>
      <point x="285" y="703"/>
      <point x="289" y="687"/>
      <point x="301" y="687" type="curve" smooth="yes"/>
      <point x="313" y="687"/>
      <point x="323" y="695"/>
      <point x="323" y="722" type="curve" smooth="yes"/>
      <point x="323" y="749"/>
      <point x="293" y="798"/>
      <point x="248" y="798" type="curve" smooth="yes"/>
      <point x="191" y="798"/>
      <point x="120" y="727"/>
      <point x="120" y="591" type="curve" smooth="yes"/>
      <point x="120" y="573"/>
      <point x="122" y="556"/>
      <point x="126" y="541" type="curve"/>
      <point x="83" y="506"/>
      <point x="52" y="431"/>
      <point x="52" y="394" type="curve" smooth="yes"/>
      <point x="52" y="304"/>
      <point x="111" y="260"/>
      <point x="170" y="216" type="curve" smooth="yes"/>
      <point x="227" y="173"/>
      <point x="284" y="128"/>
      <point x="284" y="41" type="curve" smooth="yes"/>
      <point x="284" y="-28"/>
      <point x="261" y="-53"/>
      <point x="227" y="-53" type="curve" smooth="yes"/>
      <point x="199" y="-53"/>
      <point x="188" y="-25"/>
      <point x="188" y="5" type="curve" smooth="yes"/>
      <point x="188" y="10"/>
      <point x="189" y="14"/>
      <point x="190" y="18" type="curve" smooth="yes"/>
      <point x="191" y="21"/>
      <point x="192" y="25"/>
      <point x="192" y="29" type="curve" smooth="yes"/>
      <point x="192" y="47"/>
      <point x="171" y="57"/>
      <point x="162" y="57" type="curve" smooth="yes"/>
      <point x="152" y="57"/>
      <point x="148" y="48"/>
      <point x="148" y="34" type="curve" smooth="yes"/>
      <point x="148" y="-17"/>
      <point x="171" y="-72"/>
    </contour>
    <contour>
      <point x="316" y="168" type="curve"/>
      <point x="299" y="211"/>
      <point x="256" y="241"/>
      <point x="212" y="270" type="curve" smooth="yes"/>
      <point x="152" y="309"/>
      <point x="93" y="350"/>
      <point x="93" y="423" type="curve" smooth="yes"/>
      <point x="93" y="444"/>
      <point x="115" y="500"/>
      <point x="132" y="522" type="curve"/>
      <point x="153" y="466"/>
      <point x="200" y="432"/>
      <point x="245" y="401" type="curve" smooth="yes"/>
      <point x="297" y="365"/>
      <point x="344" y="329"/>
      <point x="344" y="263" type="curve" smooth="yes"/>
      <point x="344" y="244"/>
      <point x="331" y="200"/>
    </contour>
  </outline>
</glyph>
<glyph name="dieresis" format="1">
  <advance width="416"/>
  <unicode hex="00A8"/>
  <outline>
    <contour>
      <point x="320" y="634" type="curve" smooth="yes"/>
      <point x="345" y="634"/>
      <point x="366" y="654"/>
      <point x="366" y="680" type="curve" smooth="yes"/>
      <point x="366" y="706"/>
      <point x="345" y="726"/>
      <point x="320" y="726" type="curve" smooth="yes"/>
      <point x="294" y="726"/>
      <point x="273" y="706"/>
      <point x="273" y="680" type="curve" smooth="yes"/>
      <point x="273" y="654"/>
      <point x="294" y="634"/>
    </contour>
    <contour>
      <point x="96" y="634" type="curve" smooth="yes"/>
      <point x="122" y="634"/>
      <point x="143" y="654"/>
      <point x="143" y="680" type="curve" smooth="yes"/>
      <point x="143" y="706"/>
      <point x="122" y="726"/>
      <point x="96" y="726" type="curve" smooth="yes"/>
      <point x="71" y="726"/>
      <point x="50" y="706"/>
      <point x="50" y="680" type="curve" smooth="yes"/>
      <point x="50" y="654"/>
      <point x="71" y="634"/>
    </contour>
    <contour>
      <point x="208" y="791" type="move" name="_bottom"/>
    </contour>
    <contour>
      <point x="208" y="507" type="move" name="_top"/>
    </contour>
  </outline>
</glyph>
<glyph name="macron" format="1">
  <advance width="500"/>
  <unicode hex="00AF"/>
  <outline>
    <contour>
      <point x="114" y="606" type="line"/>
      <point x="367" y="606" type="line" smooth="yes"/>
      <point x="381" y="606"/>
      <point x="387" y="631"/>
      <point x="387" y="646" type="curve"/>
      <point x="387" y="650" type="line"/>
      <point x="134" y="650" type="line" smooth="yes"/>
      <point x="127" y="650"/>
      <point x="114" y="628"/>
      <point x="114" y="611" type="curve"/>
    </contour>
    <contour>
      <point x="251" y="507" type="move" name="_top"/>
    </contour>
  </outline>
</glyph>
<glyph name="degree" format="1">
  <advance width="201"/>
  <unicode hex="00B0"/>
  <outline>
    <contour>
      <point x="100" y="490" type="curve" smooth="yes"/>
      <point x="137" y="490"/>
      <point x="170" y="523"/>
      <point x="170" y="560" type="curve" smooth="yes"/>
      <point x="170" y="597"/>
      <point x="136" y="632"/>
      <point x="98" y="632" type="curve" smooth="yes"/>
      <point x="61" y="632"/>
      <point x="31" y="596"/>
      <point x="31" y="559" type="curve" smooth="yes"/>
      <point x="31" y="522"/>
      <point x="62" y="490"/>
    </contour>
    <contour>
      <point x="102" y="519" type="curve" smooth="yes"/>
      <point x="78" y="519"/>
      <point x="60" y="540"/>
      <point x="60" y="562" type="curve" smooth="yes"/>
      <point x="60" y="585"/>
      <point x="80" y="603"/>
      <point x="102" y="603" type="curve" smooth="yes"/>
      <point x="125" y="603"/>
      <point x="142" y="582"/>
      <point x="142" y="561" type="curve" smooth="yes"/>
      <point x="142" y="537"/>
      <point x="123" y="519"/>
    </contour>
  </outline>
</glyph>
<glyph name="uni00B3" format="1">
  <advance width="241"/>
  <unicode hex="00B3"/>
  <outline>
    <contour>
      <point x="103" y="358" type="curve" smooth="yes"/>
      <point x="162" y="358"/>
      <point x="215" y="390"/>
      <point x="215" y="442" type="curve" smooth="yes"/>
      <point x="215" y="493"/>
      <point x="168" y="515"/>
      <point x="122" y="515" type="curve"/>
      <point x="150" y="536"/>
      <point x="184" y="562"/>
      <point x="184" y="591" type="curve" smooth="yes"/>
      <point x="184" y="620"/>
      <point x="161" y="639"/>
      <point x="122" y="639" type="curve" smooth="yes"/>
      <point x="86" y="639"/>
      <point x="53" y="611"/>
      <point x="38" y="589" type="curve"/>
      <point x="45" y="581" type="line"/>
      <point x="62" y="604"/>
      <point x="90" y="618"/>
      <point x="113" y="618" type="curve" smooth="yes"/>
      <point x="136" y="618"/>
      <point x="151" y="603"/>
      <point x="151" y="578" type="curve" smooth="yes"/>
      <point x="151" y="550"/>
      <point x="104" y="513"/>
      <point x="68" y="494" type="curve"/>
      <point x="66" y="493"/>
      <point x="65" y="492"/>
      <point x="65" y="490" type="curve" smooth="yes"/>
      <point x="65" y="488"/>
      <point x="68" y="486"/>
      <point x="71" y="486" type="curve" smooth="yes"/>
      <point x="73" y="486"/>
      <point x="79" y="487"/>
      <point x="87" y="489" type="curve" smooth="yes"/>
      <point x="94" y="491"/>
      <point x="103" y="491"/>
      <point x="112" y="491" type="curve" smooth="yes"/>
      <point x="153" y="491"/>
      <point x="184" y="467"/>
      <point x="184" y="428" type="curve" smooth="yes"/>
      <point x="184" y="397"/>
      <point x="135" y="378"/>
      <point x="103" y="378" type="curve" smooth="yes"/>
      <point x="88" y="378"/>
      <point x="71" y="381"/>
      <point x="61" y="389" type="curve" smooth="yes"/>
      <point x="55" y="394"/>
      <point x="50" y="395"/>
      <point x="45" y="395" type="curve" smooth="yes"/>
      <point x="41" y="395"/>
      <point x="34" y="391"/>
      <point x="34" y="386" type="curve" smooth="yes"/>
      <point x="34" y="376"/>
      <point x="73" y="358"/>
    </contour>
  </outline>
</glyph>
<glyph name="acute" format="1">
  <advance width="251"/>
  <unicode hex="00B4"/>
  <outline>
    <contour>
      <point x="59" y="609" type="line"/>
      <point x="75" y="620"/>
      <point x="93" y="632"/>
      <point x="109" y="642" type="curve" smooth="yes"/>
      <point x="147" y="666"/>
      <point x="182" y="690"/>
      <point x="192" y="700" type="curve" smooth="yes"/>
      <point x="206" y="714"/>
      <point x="223" y="733"/>
      <point x="223" y="749" type="curve" smooth="yes"/>
      <point x="223" y="767"/>
      <point x="203" y="776"/>
      <point x="186" y="776" type="curve" smooth="yes"/>
      <point x="174" y="776"/>
      <point x="162" y="772"/>
      <point x="154" y="763" type="curve" smooth="yes"/>
      <point x="146" y="754"/>
      <point x="122" y="719"/>
      <point x="99" y="683" type="curve" smooth="yes"/>
      <point x="81" y="654"/>
      <point x="65" y="630"/>
      <point x="50" y="609" type="curve"/>
    </contour>
    <contour>
      <point x="136" y="507" type="move" name="_top"/>
    </contour>
  </outline>
</glyph>
<glyph name="paragraph" format="1">
  <advance width="440"/>
  <unicode hex="00B6"/>
  <outline>
    <contour>
      <point x="237" y="-10" type="curve"/>
      <point x="267" y="-10" type="line"/>
      <point x="267" y="710" type="line"/>
      <point x="307" y="710" type="line"/>
      <point x="307" y="-10" type="line"/>
      <point x="336" y="-10" type="line"/>
      <point x="334" y="45"/>
      <point x="333" y="278"/>
      <point x="333" y="393" type="curve" smooth="yes"/>
      <point x="333" y="489"/>
      <point x="335" y="657"/>
      <point x="336" y="683" type="curve" smooth="yes"/>
      <point x="337" y="696"/>
      <point x="345" y="707"/>
      <point x="364" y="712" type="curve" smooth="yes"/>
      <point x="372" y="714"/>
      <point x="380" y="714"/>
      <point x="388" y="714" type="curve"/>
      <point x="388" y="740" type="line"/>
      <point x="365" y="739"/>
      <point x="342" y="738"/>
      <point x="319" y="738" type="curve" smooth="yes"/>
      <point x="296" y="738"/>
      <point x="272" y="739"/>
      <point x="249" y="740" type="curve" smooth="yes"/>
      <point x="236" y="741"/>
      <point x="218" y="741"/>
      <point x="209" y="741" type="curve" smooth="yes"/>
      <point x="130" y="741"/>
      <point x="52" y="669"/>
      <point x="52" y="575" type="curve" smooth="yes"/>
      <point x="52" y="468"/>
      <point x="111" y="399"/>
      <point x="179" y="399" type="curve" smooth="yes"/>
      <point x="192" y="399"/>
      <point x="216" y="400"/>
      <point x="239" y="401" type="curve"/>
      <point x="239" y="391"/>
      <point x="239" y="392"/>
      <point x="239" y="382" type="curve" smooth="yes"/>
      <point x="239" y="267"/>
      <point x="239" y="45"/>
    </contour>
  </outline>
</glyph>
<glyph name="cedilla" format="1">
  <advance width="556"/>
  <unicode hex="00B8"/>
  <outline>
    <contour>
      <point x="277" y="-152" type="curve" smooth="yes"/>
      <point x="308" y="-152"/>
      <point x="354" y="-136"/>
      <point x="354" y="-92" type="curve" smooth="yes"/>
      <point x="354" y="-56"/>
      <point x="334" y="-33"/>
      <point x="298" y="-33" type="curve"/>
      <point x="330" y="24" type="line"/>
      <point x="288" y="24" type="line"/>
      <point x="237" y="-60" type="line"/>
      <point x="244" y="-55"/>
      <point x="256" y="-54"/>
      <point x="264" y="-54" type="curve" smooth="yes"/>
      <point x="285" y="-54"/>
      <point x="305" y="-72"/>
      <point x="305" y="-94" type="curve" smooth="yes"/>
      <point x="305" y="-112"/>
      <point x="288" y="-127"/>
      <point x="267" y="-127" type="curve" smooth="yes"/>
      <point x="251" y="-127"/>
      <point x="229" y="-119"/>
      <point x="214" y="-102" type="curve"/>
      <point x="202" y="-120" type="line"/>
      <point x="216" y="-138"/>
      <point x="242" y="-152"/>
    </contour>
    <contour>
      <point x="280" y="7" type="move" name="_bottom"/>
    </contour>
  </outline>
</glyph>
<glyph name="uni00B9" format="1">
  <advance width="180"/>
  <unicode hex="00B9"/>
  <outline>
    <contour>
      <point x="50" y="317" type="line"/>
      <point x="117" y="317" type="line"/>
      <point x="117" y="326" type="line"/>
      <point x="114" y="326" type="line" smooth="yes"/>
      <point x="105" y="326"/>
      <point x="101" y="331"/>
      <point x="101" y="336" type="curve" smooth="yes"/>
      <point x="101" y="592" type="line" smooth="yes"/>
      <point x="101" y="596"/>
      <point x="97" y="599"/>
      <point x="93" y="599" type="curve" smooth="yes"/>
      <point x="92" y="599"/>
      <point x="90" y="599"/>
      <point x="88" y="597" type="curve" smooth="yes"/>
      <point x="76" y="585"/>
      <point x="64" y="578"/>
      <point x="48" y="572" type="curve"/>
      <point x="48" y="562" type="line"/>
      <point x="51" y="563"/>
      <point x="54" y="564"/>
      <point x="62" y="564" type="curve" smooth="yes"/>
      <point x="65" y="564"/>
      <point x="66" y="556"/>
      <point x="66" y="548" type="curve" smooth="yes"/>
      <point x="66" y="336" type="line" smooth="yes"/>
      <point x="66" y="332"/>
      <point x="62" y="326"/>
      <point x="53" y="326" type="curve" smooth="yes"/>
      <point x="50" y="326" type="line"/>
    </contour>
  </outline>
</glyph>
<glyph name="ordmasculine" format="1">
  <advance width="255"/>
  <unicode hex="00BA"/>
  <outline>
    <contour>
      <point x="131" y="564" type="curve" smooth="yes"/>
      <point x="180" y="564"/>
      <point x="211" y="587"/>
      <point x="211" y="652" type="curve" smooth="yes"/>
      <point x="211" y="714"/>
      <point x="172" y="739"/>
      <point x="128" y="739" type="curve" smooth="yes"/>
      <point x="80" y="739"/>
      <point x="49" y="714"/>
      <point x="49" y="652" type="curve" smooth="yes"/>
      <point x="49" y="589"/>
      <point x="83" y="564"/>
    </contour>
    <contour>
      <point x="133" y="576" type="curve" smooth="yes"/>
      <point x="96" y="576"/>
      <point x="81" y="607"/>
      <point x="81" y="659" type="curve" smooth="yes"/>
      <point x="81" y="700"/>
      <point x="97" y="732"/>
      <point x="128" y="732" type="curve" smooth="yes"/>
      <point x="166" y="732"/>
      <point x="178" y="698"/>
      <point x="178" y="646" type="curve" smooth="yes"/>
      <point x="178" y="617"/>
      <point x="168" y="576"/>
    </contour>
  </outline>
</glyph>
<glyph name="onequarter" format="1">
  <advance width="555"/>
  <unicode hex="00BC"/>
  <outline>
    <contour>
      <point x="70" y="-10" type="line"/>
      <point x="99" y="-10" type="line"/>
      <point x="409" y="644" type="line"/>
      <point x="380" y="644" type="line"/>
    </contour>
    <contour>
      <point x="394" y="62" type="curve" smooth="yes"/>
      <point x="417" y="62" type="line" smooth="yes"/>
      <point x="421" y="62"/>
      <point x="423" y="66"/>
      <point x="423" y="69" type="curve" smooth="yes"/>
      <point x="423" y="181" type="line"/>
      <point x="466" y="181" type="line"/>
      <point x="466" y="185"/>
      <point x="465" y="189"/>
      <point x="465" y="193" type="curve" smooth="yes"/>
      <point x="465" y="197"/>
      <point x="466" y="201"/>
      <point x="467" y="206" type="curve"/>
      <point x="454" y="204"/>
      <point x="441" y="202"/>
      <point x="423" y="202" type="curve"/>
      <point x="423" y="334" type="line" smooth="yes"/>
      <point x="423" y="341"/>
      <point x="419" y="343"/>
      <point x="415" y="343" type="curve" smooth="yes"/>
      <point x="409" y="343"/>
      <point x="405" y="343"/>
      <point x="401" y="342" type="curve" smooth="yes"/>
      <point x="342" y="327"/>
      <point x="317" y="243"/>
      <point x="277" y="194" type="curve"/>
      <point x="276" y="192"/>
      <point x="275" y="190"/>
      <point x="275" y="187" type="curve" smooth="yes"/>
      <point x="275" y="183"/>
      <point x="278" y="181"/>
      <point x="281" y="181" type="curve" smooth="yes"/>
      <point x="386" y="181" type="line"/>
      <point x="388" y="68" type="line" smooth="yes"/>
      <point x="388" y="65"/>
      <point x="390" y="62"/>
    </contour>
    <contour>
      <point x="92" y="317" type="line"/>
      <point x="159" y="317" type="line"/>
      <point x="159" y="326" type="line"/>
      <point x="156" y="326" type="line" smooth="yes"/>
      <point x="147" y="326"/>
      <point x="143" y="331"/>
      <point x="143" y="336" type="curve" smooth="yes"/>
      <point x="143" y="592" type="line" smooth="yes"/>
      <point x="143" y="596"/>
      <point x="139" y="599"/>
      <point x="135" y="599" type="curve" smooth="yes"/>
      <point x="134" y="599"/>
      <point x="132" y="599"/>
      <point x="130" y="597" type="curve" smooth="yes"/>
      <point x="118" y="585"/>
      <point x="106" y="578"/>
      <point x="90" y="572" type="curve"/>
      <point x="90" y="562" type="line"/>
      <point x="93" y="563"/>
      <point x="96" y="564"/>
      <point x="104" y="564" type="curve" smooth="yes"/>
      <point x="107" y="564"/>
      <point x="108" y="556"/>
      <point x="108" y="548" type="curve" smooth="yes"/>
      <point x="108" y="336" type="line" smooth="yes"/>
      <point x="108" y="332"/>
      <point x="104" y="326"/>
      <point x="95" y="326" type="curve" smooth="yes"/>
      <point x="92" y="326" type="line"/>
    </contour>
    <contour>
      <point x="314" y="202" type="curve"/>
      <point x="334" y="225"/>
      <point x="365" y="260"/>
      <point x="386" y="288" type="curve"/>
      <point x="386" y="202" type="line"/>
      <point x="374" y="202"/>
      <point x="337" y="202"/>
    </contour>
  </outline>
</glyph>
<glyph name="threequarters" format="1">
  <advance width="555"/>
  <unicode hex="00BE"/>
  <outline>
    <contour>
      <point x="104" y="-10" type="line"/>
      <point x="133" y="-10" type="line"/>
      <point x="443" y="644" type="line"/>
      <point x="414" y="644" type="line"/>
    </contour>
    <contour>
      <point x="102" y="314" type="curve" smooth="yes"/>
      <point x="170" y="314"/>
      <point x="210" y="349"/>
      <point x="210" y="404" type="curve" smooth="yes"/>
      <point x="210" y="447"/>
      <point x="172" y="480"/>
      <point x="130" y="484" type="curve"/>
      <point x="157" y="503"/>
      <point x="187" y="527"/>
      <point x="187" y="552" type="curve" smooth="yes"/>
      <point x="187" y="580"/>
      <point x="165" y="597"/>
      <point x="121" y="597" type="curve" smooth="yes"/>
      <point x="70" y="597"/>
      <point x="40" y="551"/>
      <point x="39" y="549" type="curve"/>
      <point x="49" y="542" type="line"/>
      <point x="64" y="562"/>
      <point x="88" y="577"/>
      <point x="112" y="577" type="curve" smooth="yes"/>
      <point x="133" y="577"/>
      <point x="151" y="563"/>
      <point x="151" y="543" type="curve" smooth="yes"/>
      <point x="151" y="511"/>
      <point x="66" y="453"/>
      <point x="64" y="452" type="curve"/>
      <point x="64" y="452"/>
      <point x="61" y="450"/>
      <point x="61" y="447" type="curve" smooth="yes"/>
      <point x="61" y="444"/>
      <point x="64" y="442"/>
      <point x="68" y="442" type="curve" smooth="yes"/>
      <point x="74" y="442"/>
      <point x="92" y="452"/>
      <point x="109" y="452" type="curve" smooth="yes"/>
      <point x="122" y="452"/>
      <point x="135" y="451"/>
      <point x="148" y="447" type="curve"/>
      <point x="167" y="439"/>
      <point x="178" y="415"/>
      <point x="178" y="393" type="curve" smooth="yes"/>
      <point x="178" y="357"/>
      <point x="145" y="326"/>
      <point x="102" y="326" type="curve" smooth="yes"/>
      <point x="88" y="326"/>
      <point x="73" y="335"/>
      <point x="64" y="341" type="curve"/>
      <point x="59" y="345"/>
      <point x="53" y="347"/>
      <point x="48" y="347" type="curve" smooth="yes"/>
      <point x="41" y="347"/>
      <point x="39" y="345"/>
      <point x="37" y="342" type="curve" smooth="yes"/>
      <point x="36" y="340"/>
      <point x="36" y="338"/>
      <point x="36" y="337" type="curve" smooth="yes"/>
      <point x="36" y="323"/>
      <point x="75" y="314"/>
    </contour>
    <contour>
      <point x="442" y="62" type="curve" smooth="yes"/>
      <point x="465" y="62" type="line" smooth="yes"/>
      <point x="469" y="62"/>
      <point x="471" y="66"/>
      <point x="471" y="69" type="curve" smooth="yes"/>
      <point x="471" y="181" type="line"/>
      <point x="514" y="181" type="line"/>
      <point x="514" y="185"/>
      <point x="513" y="189"/>
      <point x="513" y="193" type="curve" smooth="yes"/>
      <point x="513" y="197"/>
      <point x="514" y="201"/>
      <point x="515" y="206" type="curve"/>
      <point x="502" y="204"/>
      <point x="489" y="202"/>
      <point x="471" y="202" type="curve"/>
      <point x="471" y="334" type="line" smooth="yes"/>
      <point x="471" y="341"/>
      <point x="467" y="343"/>
      <point x="463" y="343" type="curve" smooth="yes"/>
      <point x="457" y="343"/>
      <point x="453" y="343"/>
      <point x="449" y="342" type="curve" smooth="yes"/>
      <point x="390" y="327"/>
      <point x="365" y="243"/>
      <point x="325" y="194" type="curve"/>
      <point x="324" y="192"/>
      <point x="323" y="190"/>
      <point x="323" y="187" type="curve" smooth="yes"/>
      <point x="323" y="183"/>
      <point x="326" y="181"/>
      <point x="329" y="181" type="curve" smooth="yes"/>
      <point x="434" y="181" type="line"/>
      <point x="436" y="68" type="line" smooth="yes"/>
      <point x="436" y="65"/>
      <point x="438" y="62"/>
    </contour>
    <contour>
      <point x="434" y="202" type="line"/>
      <point x="422" y="202"/>
      <point x="385" y="202"/>
      <point x="362" y="202" type="curve"/>
      <point x="382" y="225"/>
      <point x="413" y="260"/>
      <point x="434" y="288" type="curve"/>
    </contour>
  </outline>
</glyph>
<glyph name="AE" format="1">
  <advance width="948"/>
  <unicode hex="00C6"/>
  <outline>
    <contour>
      <point x="43" y="0" type="line"/>
      <point x="207" y="0" type="line"/>
      <point x="207" y="16" type="line"/>
      <point x="199" y="16"/>
      <point x="192" y="16"/>
      <point x="184" y="17" type="curve" smooth="yes"/>
      <point x="170.738" y="19.792"/>
      <point x="157.477" y="24.045"/>
      <point x="157.477" y="42.002" type="curve" smooth="yes"/>
      <point x="157.477" y="49.772"/>
      <point x="159.96" y="60.107"/>
      <point x="166" y="74" type="curve" smooth="yes"/>
      <point x="299.53" y="333.771" type="line" smooth="yes"/>
      <point x="301.376" y="338.257"/>
      <point x="303" y="342"/>
      <point x="309" y="342" type="curve" smooth="yes"/>
      <point x="480.245" y="342" type="line"/>
      <point x="480.245" y="254.173"/>
      <point x="480.238" y="136.347"/>
      <point x="480.238" y="48.52" type="curve"/>
      <point x="480.238" y="48.52"/>
      <point x="471.471" y="22.266"/>
      <point x="452.368" y="18.395" type="curve" smooth="yes"/>
      <point x="442.523" y="16.399"/>
      <point x="432.33" y="16.059"/>
      <point x="421.997" y="15.947" type="curve"/>
      <point x="421.997" y="0" type="line"/>
      <point x="507.557" y="0" type="line"/>
      <point x="520.997" y="0" type="line"/>
      <point x="535.488" y="0" type="line"/>
      <point x="615.047" y="0" type="line"/>
      <point x="855.997" y="0" type="line"/>
      <point x="872.997" y="140" type="line"/>
      <point x="856.997" y="139.014" type="line"/>
      <point x="844.464" y="78.53"/>
      <point x="817.114" y="47.06"/>
      <point x="755.997" y="32.197" type="curve" smooth="yes"/>
      <point x="713.014" y="21.745"/>
      <point x="670.02" y="20.992"/>
      <point x="637.997" y="20.992" type="curve" smooth="yes"/>
      <point x="619.909" y="20.992"/>
      <point x="609.602" y="22.131"/>
      <point x="590.677" y="24.395" type="curve" smooth="yes"/>
      <point x="571.323" y="26.709"/>
      <point x="562.807" y="41.235"/>
      <point x="562.807" y="54.52" type="curve" smooth="yes"/>
      <point x="559.466" y="337.353" type="line"/>
      <point x="588.37" y="339.911"/>
      <point x="640.08" y="343"/>
      <point x="662.997" y="343" type="curve" smooth="yes"/>
      <point x="686.747" y="343"/>
      <point x="709.265" y="339.43"/>
      <point x="738.933" y="336.53" type="curve" smooth="yes"/>
      <point x="748.406" y="334.352"/>
      <point x="766.29" y="324.951"/>
      <point x="768.796" y="307.396" type="curve" smooth="yes"/>
      <point x="771.231" y="295.186"/>
      <point x="770.41" y="284.124"/>
      <point x="771.243" y="283.025" type="curve" smooth="yes"/>
      <point x="787.118" y="283.025" type="line"/>
      <point x="787.118" y="430.521" type="line"/>
      <point x="771.243" y="430.521" type="line" smooth="yes"/>
      <point x="770.41" y="429.422"/>
      <point x="771.231" y="415.186"/>
      <point x="768.796" y="406.152" type="curve" smooth="yes"/>
      <point x="765.176" y="391.029"/>
      <point x="754.183" y="380.343"/>
      <point x="741.985" y="377.659" type="curve" smooth="yes"/>
      <point x="711.699" y="374.864"/>
      <point x="690.124" y="372"/>
      <point x="662.997" y="372" type="curve" smooth="yes"/>
      <point x="641.063" y="372"/>
      <point x="588.696" y="374.792"/>
      <point x="559.369" y="377.077" type="curve"/>
      <point x="562.811" y="681.031" type="line" smooth="yes"/>
      <point x="562.959" y="692.576"/>
      <point x="573.511" y="703.611"/>
      <point x="590.186" y="705.605" type="curve" smooth="yes"/>
      <point x="610.132" y="707.991"/>
      <point x="620.506" y="709"/>
      <point x="640.506" y="709" type="curve" smooth="yes"/>
      <point x="668.188" y="709"/>
      <point x="701.455" y="707.155"/>
      <point x="721.506" y="699.803" type="curve" smooth="yes"/>
      <point x="780.559" y="678.148"/>
      <point x="809.973" y="651.47"/>
      <point x="822.506" y="590.986" type="curve"/>
      <point x="838.506" y="590" type="line"/>
      <point x="821.506" y="730" type="line"/>
      <point x="623.044" y="730" type="line"/>
      <point x="623.044" y="730.333" type="line"/>
      <point x="363" y="730.333" type="line"/>
      <point x="363" y="714.458" type="line"/>
      <point x="371.292" y="714.349"/>
      <point x="379.414" y="713.622"/>
      <point x="387.371" y="712.012" type="curve" smooth="yes"/>
      <point x="405.844" y="708.273"/>
      <point x="415.211" y="703"/>
      <point x="415.211" y="683.17" type="curve" smooth="yes"/>
      <point x="415.211" y="676.345"/>
      <point x="410.128" y="669.056"/>
      <point x="408" y="665" type="curve" smooth="yes"/>
      <point x="97" y="55" type="line" smooth="yes"/>
      <point x="88.28" y="38.379"/>
      <point x="82" y="22"/>
      <point x="67" y="18" type="curve" smooth="yes"/>
      <point x="59" y="17"/>
      <point x="51" y="16"/>
      <point x="43" y="16" type="curve"/>
    </contour>
    <contour>
      <point x="326" y="371" type="line" smooth="yes"/>
      <point x="322.101" y="371"/>
      <point x="319.374" y="372.825"/>
      <point x="319.374" y="376" type="curve" smooth="yes"/>
      <point x="319.374" y="376.896"/>
      <point x="319.56" y="377.899"/>
      <point x="320" y="379" type="curve" smooth="yes"/>
      <point x="473.562" y="688" type="line" smooth="yes"/>
      <point x="474.896" y="690.685"/>
      <point x="476.7" y="691.94"/>
      <point x="478.197" y="691.94" type="curve" smooth="yes"/>
      <point x="479.767" y="691.94"/>
      <point x="481" y="690.56"/>
      <point x="481" y="688" type="curve" smooth="yes"/>
      <point x="481" y="379" type="line" smooth="yes"/>
      <point x="481.44" y="377.899"/>
      <point x="481.739" y="376.896"/>
      <point x="481.739" y="376" type="curve" smooth="yes"/>
      <point x="481.739" y="372.825"/>
      <point x="479.68" y="371"/>
      <point x="475" y="371" type="curve" smooth="yes"/>
      <point x="467" y="371" type="line"/>
    </contour>
  </outline>
</glyph>
<glyph name="Eth" format="1">
  <advance width="776"/>
  <unicode hex="00D0"/>
  <outline>
    <contour>
      <point x="27" y="372" type="curve"/>
      <point x="280" y="372" type="line"/>
      <point x="285" y="372"/>
      <point x="286" y="381"/>
      <point x="286" y="391" type="curve" smooth="yes"/>
      <point x="286" y="403"/>
      <point x="284" y="416"/>
      <point x="280" y="416" type="curve"/>
      <point x="27" y="416" type="line"/>
      <point x="21" y="416"/>
      <point x="18" y="407"/>
      <point x="18" y="396" type="curve" smooth="yes"/>
      <point x="18" y="385"/>
      <point x="21" y="374"/>
    </contour>
    <component base="D"/>
  </outline>
</glyph>
<glyph name="multiply" format="1">
  <advance width="360"/>
  <unicode hex="00D7"/>
  <outline>
    <contour>
      <point x="93" y="167" type="curve" smooth="yes"/>
      <point x="178" y="252" type="line" smooth="yes"/>
      <point x="182" y="256"/>
      <point x="185" y="255"/>
      <point x="188" y="252" type="curve" smooth="yes"/>
      <point x="267" y="173" type="line" smooth="yes"/>
      <point x="271" y="169"/>
      <point x="278" y="175"/>
      <point x="286" y="182" type="curve" smooth="yes"/>
      <point x="295" y="190"/>
      <point x="302" y="202"/>
      <point x="299" y="205" type="curve"/>
      <point x="220" y="284" type="line" smooth="yes"/>
      <point x="216" y="288"/>
      <point x="219" y="291"/>
      <point x="222" y="294" type="curve" smooth="yes"/>
      <point x="297" y="370" type="line"/>
      <point x="295" y="376"/>
      <point x="292" y="382"/>
      <point x="286" y="388" type="curve" smooth="yes"/>
      <point x="280" y="394"/>
      <point x="273" y="398"/>
      <point x="264" y="403" type="curve"/>
      <point x="189" y="328" type="line" smooth="yes"/>
      <point x="187" y="326"/>
      <point x="182" y="322"/>
      <point x="176" y="328" type="curve" smooth="yes"/>
      <point x="101" y="403" type="line" smooth="yes"/>
      <point x="96" y="408"/>
      <point x="88" y="403"/>
      <point x="80" y="395" type="curve" smooth="yes"/>
      <point x="72" y="387"/>
      <point x="66" y="377"/>
      <point x="69" y="371" type="curve"/>
      <point x="146" y="294" type="line" smooth="yes"/>
      <point x="149" y="291"/>
      <point x="147" y="286"/>
      <point x="144" y="283" type="curve" smooth="yes"/>
      <point x="61" y="199" type="line" smooth="yes"/>
      <point x="57" y="195"/>
      <point x="64" y="184"/>
      <point x="72" y="176" type="curve" smooth="yes"/>
      <point x="80" y="168"/>
      <point x="89" y="163"/>
    </contour>
  </outline>
</glyph>
<glyph name="Oslash" format="1">
  <advance width="800"/>
  <unicode hex="00D8"/>
  <outline>
    <contour>
      <point x="131" y="110" type="curve" smooth="yes"/>
      <point x="144" y="95" type="line"/>
      <point x="221" y="13"/>
      <point x="332" y="-10"/>
      <point x="399" y="-10" type="curve" smooth="yes"/>
      <point x="555" y="-10"/>
      <point x="746" y="123"/>
      <point x="746" y="361" type="curve" smooth="yes"/>
      <point x="746" y="473"/>
      <point x="711" y="562"/>
      <point x="657" y="624" type="curve" smooth="yes"/>
      <point x="641" y="642" type="line"/>
      <point x="579" y="702"/>
      <point x="494" y="734"/>
      <point x="403" y="734" type="curve" smooth="yes"/>
      <point x="397" y="734" type="line" smooth="yes"/>
      <point x="213" y="734"/>
      <point x="55" y="601"/>
      <point x="55" y="352" type="curve" smooth="yes"/>
      <point x="55" y="242"/>
      <point x="86" y="164"/>
    </contour>
    <contour>
      <point x="192" y="150" type="curve" smooth="yes"/>
      <point x="184" y="165" type="line"/>
      <point x="160" y="217"/>
      <point x="144" y="288"/>
      <point x="144" y="385" type="curve" smooth="yes"/>
      <point x="144" y="464"/>
      <point x="172" y="699"/>
      <point x="390" y="699" type="curve" smooth="yes"/>
      <point x="490" y="699"/>
      <point x="558" y="660"/>
      <point x="601" y="599" type="curve"/>
      <point x="612" y="580" type="line" smooth="yes"/>
      <point x="645" y="522"/>
      <point x="658" y="451"/>
      <point x="658" y="377" type="curve" smooth="yes"/>
      <point x="658" y="97"/>
      <point x="536" y="27"/>
      <point x="407" y="27" type="curve" smooth="yes"/>
      <point x="357" y="27"/>
      <point x="252" y="37"/>
    </contour>
    <contour>
      <point x="626" y="642" type="curve"/>
      <point x="654" y="608" type="line"/>
      <point x="675" y="629"/>
      <point x="693" y="647"/>
      <point x="709" y="663" type="curve"/>
      <point x="709" y="680"/>
      <point x="677" y="690"/>
      <point x="670" y="690" type="curve"/>
      <point x="657" y="674"/>
      <point x="639" y="655"/>
    </contour>
    <contour>
      <point x="174" y="165" type="curve"/>
      <point x="194" y="133" type="line"/>
      <point x="299" y="246"/>
      <point x="485" y="437"/>
      <point x="624" y="578" type="curve"/>
      <point x="602" y="614" type="line"/>
      <point x="471" y="471"/>
      <point x="323" y="316"/>
    </contour>
    <contour>
      <point x="164" y="101" type="curve"/>
      <point x="133" y="123" type="line"/>
      <point x="107" y="98"/>
      <point x="81" y="72"/>
      <point x="56" y="46" type="curve"/>
      <point x="56" y="39"/>
      <point x="84" y="35"/>
      <point x="100" y="35" type="curve" smooth="yes"/>
      <point x="107" y="35"/>
      <point x="112" y="36"/>
      <point x="112" y="38" type="curve" smooth="yes"/>
      <point x="112" y="41"/>
      <point x="132" y="65"/>
    </contour>
  </outline>
</glyph>
<glyph name="germandbls" format="1">
  <advance width="616"/>
  <unicode hex="00DF"/>
  <outline>
    <contour>
      <point x="391" y="-9" type="curve" smooth="yes"/>
      <point x="507" y="-9"/>
      <point x="568" y="72"/>
      <point x="568" y="153" type="curve" smooth="yes"/>
      <point x="568" y="235"/>
      <point x="522" y="270"/>
      <point x="448" y="324" type="curve" smooth="yes"/>
      <point x="368" y="383"/>
      <point x="321" y="399"/>
      <point x="321" y="452" type="curve" smooth="yes"/>
      <point x="321" y="508"/>
      <point x="427" y="554"/>
      <point x="427" y="637" type="curve" smooth="yes"/>
      <point x="427" y="711"/>
      <point x="360" y="735"/>
      <point x="278" y="735" type="curve" smooth="yes"/>
      <point x="142" y="735"/>
      <point x="110" y="627"/>
      <point x="110" y="510" type="curve" smooth="yes"/>
      <point x="110" y="49" type="line" smooth="yes"/>
      <point x="110" y="36"/>
      <point x="101" y="20"/>
      <point x="82" y="18" type="curve" smooth="yes"/>
      <point x="74" y="17"/>
      <point x="66" y="16"/>
      <point x="58" y="16" type="curve"/>
      <point x="58" y="0" type="line"/>
      <point x="238" y="0" type="line"/>
      <point x="238" y="16" type="line"/>
      <point x="230" y="16"/>
      <point x="225" y="16"/>
      <point x="217" y="18" type="curve" smooth="yes"/>
      <point x="198" y="23"/>
      <point x="189" y="36"/>
      <point x="189" y="49" type="curve" smooth="yes"/>
      <point x="189" y="511" type="line" smooth="yes"/>
      <point x="189" y="616"/>
      <point x="193" y="706"/>
      <point x="281" y="706" type="curve" smooth="yes"/>
      <point x="332" y="706"/>
      <point x="386" y="663"/>
      <point x="386" y="619" type="curve" smooth="yes"/>
      <point x="386" y="585"/>
      <point x="356" y="552"/>
      <point x="325" y="523" type="curve" smooth="yes"/>
      <point x="293" y="493"/>
      <point x="250" y="465"/>
      <point x="250" y="417" type="curve" smooth="yes"/>
      <point x="250" y="363"/>
      <point x="317" y="325"/>
      <point x="380" y="281" type="curve" smooth="yes"/>
      <point x="439" y="240"/>
      <point x="513" y="192"/>
      <point x="513" y="127" type="curve" smooth="yes"/>
      <point x="513" y="64"/>
      <point x="469" y="27"/>
      <point x="416" y="27" type="curve" smooth="yes"/>
      <point x="343" y="27"/>
      <point x="312" y="102"/>
      <point x="291" y="123" type="curve" smooth="yes"/>
      <point x="289" y="125"/>
      <point x="287" y="126"/>
      <point x="285" y="126" type="curve" smooth="yes"/>
      <point x="272" y="126"/>
      <point x="250" y="91"/>
      <point x="250" y="72" type="curve" smooth="yes"/>
      <point x="250" y="68"/>
      <point x="251" y="66"/>
      <point x="253" y="64" type="curve" smooth="yes"/>
      <point x="274" y="43"/>
      <point x="293" y="-9"/>
    </contour>
  </outline>
</glyph>
<glyph name="ae" format="1">
  <advance width="802"/>
  <unicode hex="00E6"/>
  <outline>
    <contour>
      <point x="214" y="-10" type="curve" smooth="yes"/>
      <point x="282" y="-10"/>
      <point x="349" y="12"/>
      <point x="397" y="54" type="curve"/>
      <point x="442" y="-2"/>
      <point x="503" y="-10"/>
      <point x="568" y="-10" type="curve" smooth="yes"/>
      <point x="657" y="-10"/>
      <point x="686" y="7"/>
      <point x="744" y="65" type="curve"/>
      <point x="729" y="85" type="line"/>
      <point x="674" y="43"/>
      <point x="630" y="31"/>
      <point x="585" y="31" type="curve" smooth="yes"/>
      <point x="527" y="31"/>
      <point x="485" y="48"/>
      <point x="454" y="98" type="curve" smooth="yes"/>
      <point x="441" y="119"/>
      <point x="440" y="150"/>
      <point x="440" y="196" type="curve" smooth="yes"/>
      <point x="440" y="219"/>
      <point x="440" y="279"/>
      <point x="441" y="295" type="curve"/>
      <point x="503" y="314"/>
      <point x="567" y="331"/>
      <point x="617" y="343" type="curve" smooth="yes"/>
      <point x="664" y="354"/>
      <point x="712" y="367"/>
      <point x="762" y="382" type="curve"/>
      <point x="762" y="479"/>
      <point x="661" y="505"/>
      <point x="587" y="505" type="curve" smooth="yes"/>
      <point x="509" y="505"/>
      <point x="461" y="489"/>
      <point x="417" y="437" type="curve"/>
      <point x="397" y="469"/>
      <point x="336" y="512"/>
      <point x="258" y="512" type="curve" smooth="yes"/>
      <point x="204" y="512"/>
      <point x="127" y="499"/>
      <point x="77" y="432" type="curve" smooth="yes"/>
      <point x="74" y="428"/>
      <point x="73" y="424"/>
      <point x="73" y="421" type="curve" smooth="yes"/>
      <point x="73" y="406"/>
      <point x="99" y="396"/>
      <point x="118" y="396" type="curve" smooth="yes"/>
      <point x="152" y="396"/>
      <point x="166" y="417"/>
      <point x="180" y="439" type="curve" smooth="yes"/>
      <point x="194" y="462"/>
      <point x="209" y="485"/>
      <point x="246" y="485" type="curve" smooth="yes"/>
      <point x="309" y="485"/>
      <point x="371" y="436"/>
      <point x="374" y="396" type="curve" smooth="yes"/>
      <point x="375" y="384"/>
      <point x="375" y="366"/>
      <point x="375" y="349" type="curve" smooth="yes"/>
      <point x="375" y="337"/>
      <point x="375" y="326"/>
      <point x="374" y="315" type="curve"/>
      <point x="336" y="303"/>
      <point x="322" y="298"/>
      <point x="285" y="284" type="curve" smooth="yes"/>
      <point x="226" y="262"/>
      <point x="176" y="243"/>
      <point x="124" y="210" type="curve" smooth="yes"/>
      <point x="80" y="182"/>
      <point x="51" y="133"/>
      <point x="51" y="91" type="curve" smooth="yes"/>
      <point x="51" y="9"/>
      <point x="135" y="-10"/>
    </contour>
    <contour>
      <point x="241" y="18" type="curve" smooth="yes"/>
      <point x="179" y="18"/>
      <point x="127" y="49"/>
      <point x="127" y="112" type="curve" smooth="yes"/>
      <point x="127" y="163"/>
      <point x="169" y="194"/>
      <point x="213" y="217" type="curve" smooth="yes"/>
      <point x="265" y="244"/>
      <point x="306" y="256"/>
      <point x="374" y="276" type="curve"/>
      <point x="373" y="257"/>
      <point x="372" y="238"/>
      <point x="372" y="219" type="curve" smooth="yes"/>
      <point x="372" y="159"/>
      <point x="376" y="105"/>
      <point x="385" y="76" type="curve"/>
      <point x="356" y="50"/>
      <point x="304" y="18"/>
    </contour>
    <contour>
      <point x="444" y="332" type="curve"/>
      <point x="444" y="428"/>
      <point x="495" y="482"/>
      <point x="571" y="482" type="curve" smooth="yes"/>
      <point x="621" y="482"/>
      <point x="671" y="454"/>
      <point x="686" y="400" type="curve"/>
      <point x="620" y="377"/>
      <point x="507" y="345"/>
    </contour>
  </outline>
</glyph>
<glyph name="eth" format="1">
  <advance width="534"/>
  <unicode hex="00F0"/>
  <outline>
    <contour>
      <point x="271.92" y="-11.148" type="curve" smooth="yes"/>
      <point x="388.904" y="-11.148"/>
      <point x="472.733" y="71.842"/>
      <point x="472.733" y="229.34" type="curve" smooth="yes"/>
      <point x="472.733" y="408.059"/>
      <point x="369.289" y="515.298"/>
      <point x="292.54" y="574.335" type="curve" smooth="yes"/>
      <point x="239.868" y="614.851"/>
      <point x="150.008" y="647.205"/>
      <point x="92" y="661.647" type="curve" smooth="yes"/>
      <point x="77.625" y="633.153" type="line"/>
      <point x="117.215" y="622.974"/>
      <point x="177.756" y="600.736"/>
      <point x="233.721" y="560.762" type="curve" smooth="yes"/>
      <point x="273.281" y="532.503"/>
      <point x="304.989" y="493.045"/>
      <point x="329.037" y="450.258" type="curve"/>
      <point x="304.173" y="458.857"/>
      <point x="278.103" y="462.795"/>
      <point x="252.81" y="462.795" type="curve" smooth="yes"/>
      <point x="142.6" y="462.795"/>
      <point x="60.748" y="392.828"/>
      <point x="60.748" y="224.79" type="curve" smooth="yes"/>
      <point x="60.748" y="47.297"/>
      <point x="158.771" y="-11.148"/>
    </contour>
    <contour>
      <point x="277.646" y="18.574" type="curve" smooth="yes"/>
      <point x="157.191" y="18.574"/>
      <point x="130.176" y="151.364"/>
      <point x="130.176" y="249.466" type="curve" smooth="yes"/>
      <point x="130.176" y="348.137"/>
      <point x="165.282" y="432.982"/>
      <point x="249.838" y="432.982" type="curve" smooth="yes"/>
      <point x="382.12" y="432.982"/>
      <point x="397.308" y="292.181"/>
      <point x="397.308" y="194.079" type="curve" smooth="yes"/>
      <point x="397.308" y="112.632"/>
      <point x="362.252" y="18.574"/>
    </contour>
    <contour>
      <point x="186.604" y="510.388" type="line"/>
      <point x="345.741" y="614.979" type="line"/>
      <point x="327.964" y="639.253" type="line"/>
      <point x="168.827" y="534.662" type="line"/>
    </contour>
  </outline>
</glyph>
<glyph name="divide" format="1">
  <advance width="408"/>
  <unicode hex="00F7"/>
  <outline>
    <contour>
      <point x="79" y="276" type="curve"/>
      <point x="332" y="276" type="line"/>
      <point x="337" y="276"/>
      <point x="338" y="285"/>
      <point x="338" y="295" type="curve" smooth="yes"/>
      <point x="338" y="307"/>
      <point x="336" y="320"/>
      <point x="332" y="320" type="curve"/>
      <point x="79" y="320" type="line"/>
      <point x="73" y="320"/>
      <point x="70" y="311"/>
      <point x="70" y="300" type="curve" smooth="yes"/>
      <point x="70" y="289"/>
      <point x="73" y="278"/>
    </contour>
    <contour>
      <point x="203" y="159" type="curve" smooth="yes"/>
      <point x="222" y="159"/>
      <point x="239" y="175"/>
      <point x="239" y="195" type="curve" smooth="yes"/>
      <point x="239" y="215"/>
      <point x="222" y="231"/>
      <point x="203" y="231" type="curve" smooth="yes"/>
      <point x="183" y="231"/>
      <point x="166" y="215"/>
      <point x="166" y="195" type="curve" smooth="yes"/>
      <point x="166" y="175"/>
      <point x="183" y="159"/>
    </contour>
    <contour>
      <point x="203" y="364" type="curve" smooth="yes"/>
      <point x="222" y="364"/>
      <point x="239" y="380"/>
      <point x="239" y="400" type="curve" smooth="yes"/>
      <point x="239" y="419"/>
      <point x="222" y="435"/>
      <point x="203" y="435" type="curve" smooth="yes"/>
      <point x="183" y="435"/>
      <point x="166" y="419"/>
      <point x="166" y="400" type="curve" smooth="yes"/>
      <point x="166" y="380"/>
      <point x="183" y="364"/>
    </contour>
  </outline>
</glyph>
<glyph name="thorn" format="1">
  <advance width="526"/>
  <unicode hex="00FE"/>
  <outline>
    <contour>
      <point x="137" y="-195" type="curve" smooth="yes"/>
      <point x="137" y="452" type="line"/>
      <point x="137" y="471" type="line"/>
      <point x="137" y="467"/>
      <point x="137" y="747"/>
      <point x="137" y="755" type="curve" smooth="yes"/>
      <point x="137" y="767"/>
      <point x="136" y="772"/>
      <point x="131" y="772" type="curve" smooth="yes"/>
      <point x="130" y="772"/>
      <point x="129" y="772"/>
      <point x="128" y="772" type="curve" smooth="yes"/>
      <point x="37" y="748" type="line"/>
      <point x="37" y="734" type="line"/>
      <point x="42" y="734"/>
      <point x="47" y="733"/>
      <point x="52" y="731" type="curve" smooth="yes"/>
      <point x="65" y="726"/>
      <point x="71" y="714"/>
      <point x="71" y="696" type="curve" smooth="yes"/>
      <point x="71" y="-195" type="line" smooth="yes"/>
      <point x="71" y="-204"/>
      <point x="65" y="-213"/>
      <point x="52" y="-215" type="curve" smooth="yes"/>
      <point x="46" y="-216"/>
      <point x="41" y="-216"/>
      <point x="35" y="-216" type="curve"/>
      <point x="35" y="-232" type="line"/>
      <point x="173" y="-232" type="line"/>
      <point x="173" y="-216" type="line"/>
      <point x="167" y="-216"/>
      <point x="162" y="-216"/>
      <point x="156" y="-215" type="curve" smooth="yes"/>
      <point x="143" y="-213"/>
      <point x="137" y="-204"/>
    </contour>
    <contour>
      <point x="132" y="133" type="curve"/>
      <point x="122" y="34" type="line"/>
      <point x="168" y="-2"/>
      <point x="218" y="-13"/>
      <point x="260" y="-13" type="curve" smooth="yes"/>
      <point x="408" y="-13"/>
      <point x="487" y="73"/>
      <point x="487" y="251" type="curve" smooth="yes"/>
      <point x="487" y="449"/>
      <point x="378" y="509"/>
      <point x="257" y="509" type="curve" smooth="yes"/>
      <point x="205" y="509"/>
      <point x="168" y="495"/>
      <point x="132" y="467" type="curve"/>
      <point x="130" y="442" type="line"/>
      <point x="172" y="467"/>
      <point x="210" y="479"/>
      <point x="242" y="479" type="curve" smooth="yes"/>
      <point x="369" y="479"/>
      <point x="411" y="372"/>
      <point x="411" y="215" type="curve" smooth="yes"/>
      <point x="411" y="92"/>
      <point x="355" y="9"/>
      <point x="270" y="9" type="curve" smooth="yes"/>
      <point x="185" y="9"/>
      <point x="151" y="69"/>
    </contour>
  </outline>
</glyph>
<glyph name="kgreenlandic" format="1">
  <advance width="660"/>
  <unicode hex="0138"/>
  <outline>
    <contour>
      <point x="384" y="0" type="line"/>
      <point x="587" y="0" type="line"/>
      <point x="587" y="16" type="line"/>
      <point x="579" y="16"/>
      <point x="567" y="16"/>
      <point x="558" y="18" type="curve" smooth="yes"/>
      <point x="548" y="20"/>
      <point x="539" y="23"/>
      <point x="531" y="32" type="curve" smooth="yes"/>
      <point x="510" y="55"/>
      <point x="393" y="186"/>
      <point x="295" y="297" type="curve"/>
      <point x="475" y="466" type="line" smooth="yes"/>
      <point x="487" y="477"/>
      <point x="498" y="486"/>
      <point x="513" y="489" type="curve" smooth="yes"/>
      <point x="522" y="491"/>
      <point x="530" y="491"/>
      <point x="538" y="491" type="curve"/>
      <point x="538" y="507" type="line"/>
      <point x="371" y="507" type="line"/>
      <point x="371" y="491" type="line"/>
      <point x="380" y="491"/>
      <point x="388" y="490"/>
      <point x="395" y="489" type="curve" smooth="yes"/>
      <point x="405" y="488"/>
      <point x="415" y="486"/>
      <point x="415" y="478" type="curve" smooth="yes"/>
      <point x="415" y="472"/>
      <point x="408" y="463"/>
      <point x="395" y="451" type="curve" smooth="yes"/>
      <point x="235" y="306" type="line" smooth="yes"/>
      <point x="224" y="296"/>
      <point x="198" y="272"/>
      <point x="194" y="268" type="curve"/>
      <point x="413" y="54" type="line"/>
      <point x="412" y="54" type="line"/>
      <point x="422" y="44"/>
      <point x="426" y="36"/>
      <point x="426" y="31" type="curve" smooth="yes"/>
      <point x="426" y="23"/>
      <point x="417" y="19"/>
      <point x="405" y="17" type="curve" smooth="yes"/>
      <point x="398" y="16"/>
      <point x="392" y="16"/>
      <point x="384" y="16" type="curve"/>
    </contour>
    <contour>
      <point x="54" y="0" type="line"/>
      <point x="244" y="0" type="line"/>
      <point x="244" y="16" type="line"/>
      <point x="236" y="16"/>
      <point x="228" y="16"/>
      <point x="220" y="18" type="curve" smooth="yes"/>
      <point x="201" y="23"/>
      <point x="192" y="35"/>
      <point x="192" y="49" type="curve"/>
      <point x="188" y="288" type="line" smooth="yes"/>
      <point x="187" y="355"/>
      <point x="192" y="460"/>
      <point x="192" y="460" type="curve" smooth="yes"/>
      <point x="192" y="473"/>
      <point x="201" y="484"/>
      <point x="220" y="489" type="curve" smooth="yes"/>
      <point x="228" y="491"/>
      <point x="236" y="491"/>
      <point x="244" y="491" type="curve"/>
      <point x="244" y="507" type="line"/>
      <point x="180" y="507"/>
      <point x="66" y="507"/>
      <point x="54" y="507" type="curve"/>
      <point x="54" y="491" type="line"/>
      <point x="62" y="491"/>
      <point x="70" y="491"/>
      <point x="78" y="489" type="curve" smooth="yes"/>
      <point x="97" y="484"/>
      <point x="106" y="472"/>
      <point x="106" y="459" type="curve" smooth="yes"/>
      <point x="106" y="366"/>
      <point x="109" y="343"/>
      <point x="109" y="290" type="curve" smooth="yes"/>
      <point x="109" y="212"/>
      <point x="106" y="167"/>
      <point x="106" y="49" type="curve" smooth="yes"/>
      <point x="106" y="35"/>
      <point x="97" y="20"/>
      <point x="78" y="18" type="curve" smooth="yes"/>
      <point x="70" y="17"/>
      <point x="62" y="16"/>
      <point x="54" y="16" type="curve"/>
    </contour>
  </outline>
</glyph>
<glyph name="Tbar" format="1">
  <advance width="681"/>
  <unicode hex="0166"/>
  <outline>
    <contour>
      <point x="247.953" y="0" type="line"/>
      <point x="447.997" y="0" type="line"/>
      <point x="447.997" y="15.875" type="line"/>
      <point x="439.705" y="15.984"/>
      <point x="431.583" y="16.711"/>
      <point x="423.626" y="18.321" type="curve" smooth="yes"/>
      <point x="404.522" y="22.188"/>
      <point x="395.907" y="35.516"/>
      <point x="395.742" y="48.445" type="curve" smooth="yes"/>
      <point x="393.715" y="141.524"/>
      <point x="392.886" y="234.723"/>
      <point x="392.886" y="328" type="curve" smooth="yes"/>
      <point x="392.886" y="357.992"/>
      <point x="392.966" y="387.993"/>
      <point x="393.113" y="418" type="curve"/>
      <point x="501" y="418" type="line" smooth="yes"/>
      <point x="515" y="418"/>
      <point x="521.132" y="455.602"/>
      <point x="521.132" y="461.284" type="curve" smooth="yes"/>
      <point x="521.132" y="461.749"/>
      <point x="521" y="462"/>
      <point x="521" y="462" type="curve"/>
      <point x="393.375" y="462" type="line"/>
      <point x="393.878" y="533.909"/>
      <point x="394.731" y="605.853"/>
      <point x="395.759" y="677.813" type="curve" smooth="yes"/>
      <point x="395.897" y="691.097"/>
      <point x="404.143" y="707.526"/>
      <point x="423.629" y="707.938" type="curve" smooth="yes"/>
      <point x="441.829" y="708.323"/>
      <point x="459.807" y="708.759"/>
      <point x="477.127" y="708.759" type="curve" smooth="yes"/>
      <point x="536.258" y="708.759"/>
      <point x="565.35" y="707.884"/>
      <point x="588.953" y="703" type="curve" smooth="yes"/>
      <point x="606.055" y="699.462"/>
      <point x="622.953" y="683"/>
      <point x="628.953" y="650" type="curve" smooth="yes"/>
      <point x="632.972" y="633.351"/>
      <point x="633" y="613.372"/>
      <point x="633" y="613.372" type="curve"/>
      <point x="650" y="612.386" type="line"/>
      <point x="654" y="733" type="line"/>
      <point x="654" y="733.088" type="line" smooth="yes"/>
      <point x="654" y="736.641"/>
      <point x="649.241" y="737.774"/>
      <point x="642.371" y="737.774" type="curve" smooth="yes"/>
      <point x="638.18" y="737.774"/>
      <point x="631.755" y="734.867"/>
      <point x="627.953" y="734.756" type="curve" smooth="yes"/>
      <point x="538.26" y="731.861"/>
      <point x="461" y="731"/>
      <point x="353.953" y="730" type="curve" smooth="yes"/>
      <point x="231.927" y="730"/>
      <point x="131.759" y="732.208"/>
      <point x="94.953" y="732.765" type="curve" smooth="yes"/>
      <point x="87.052" y="732.884"/>
      <point x="77.002" y="735.953"/>
      <point x="71" y="735.953" type="curve" smooth="yes"/>
      <point x="68.419" y="735.953"/>
      <point x="66.587" y="735.105"/>
      <point x="66" y="733" type="curve" smooth="yes"/>
      <point x="48" y="614.333" type="line"/>
      <point x="68" y="614.319" type="line"/>
      <point x="77.177" y="663.401"/>
      <point x="98.761" y="693.452"/>
      <point x="141.953" y="701" type="curve" smooth="yes"/>
      <point x="171.401" y="706.146"/>
      <point x="220.996" y="709.115"/>
      <point x="255" y="709.115" type="curve" smooth="yes"/>
      <point x="268.544" y="709.115"/>
      <point x="279.615" y="708.671"/>
      <point x="285.953" y="707.71" type="curve" smooth="yes"/>
      <point x="296.728" y="706.075"/>
      <point x="308.19" y="693.871"/>
      <point x="308.19" y="678.813" type="curve"/>
      <point x="308.208" y="678.813"/>
      <point x="308.244" y="647.819"/>
      <point x="308.244" y="647.819" type="curve" smooth="yes"/>
      <point x="309.265" y="585.862"/>
      <point x="310.041" y="523.921"/>
      <point x="310.512" y="462" type="curve"/>
      <point x="208" y="462" type="line" smooth="yes"/>
      <point x="197" y="462"/>
      <point x="188" y="418"/>
      <point x="188" y="418" type="curve"/>
      <point x="310.795" y="418" type="line"/>
      <point x="310.951" y="387.995"/>
      <point x="311.033" y="357.994"/>
      <point x="311.033" y="328" type="curve" smooth="yes"/>
      <point x="311.033" y="234.746"/>
      <point x="310.142" y="141.547"/>
      <point x="308.175" y="48.421" type="curve" smooth="yes"/>
      <point x="308.013" y="35.813"/>
      <point x="299.56" y="24.705"/>
      <point x="283.324" y="19.321" type="curve" smooth="yes"/>
      <point x="271.812" y="15.504"/>
      <point x="259.989" y="16.029"/>
      <point x="247.953" y="15.875" type="curve"/>
    </contour>
  </outline>
</glyph>
<glyph name="longs" format="1">
  <advance width="458"/>
  <unicode hex="017F"/>
  <outline>
    <contour>
      <point x="60" y="0" type="line"/>
      <point x="198" y="0" type="line"/>
      <point x="198" y="16" type="line"/>
      <point x="192" y="16"/>
      <point x="187" y="16"/>
      <point x="181" y="17" type="curve" smooth="yes"/>
      <point x="168" y="19"/>
      <point x="161" y="26"/>
      <point x="161" y="38" type="curve" smooth="yes"/>
      <point x="161" y="572" type="line" smooth="yes"/>
      <point x="161" y="645"/>
      <point x="179" y="729"/>
      <point x="283" y="729" type="curve" smooth="yes"/>
      <point x="357" y="729"/>
      <point x="337" y="656"/>
      <point x="393" y="656" type="curve" smooth="yes"/>
      <point x="406" y="656"/>
      <point x="429" y="667"/>
      <point x="429" y="684" type="curve" smooth="yes"/>
      <point x="429" y="736"/>
      <point x="334" y="756"/>
      <point x="304" y="756" type="curve" smooth="yes"/>
      <point x="150" y="756"/>
      <point x="112" y="684"/>
      <point x="97" y="577" type="curve" smooth="yes"/>
      <point x="96" y="570"/>
      <point x="96" y="561"/>
      <point x="96" y="553" type="curve" smooth="yes"/>
      <point x="96" y="537"/>
      <point x="96" y="519"/>
      <point x="96" y="515" type="curve"/>
      <point x="74" y="505" type="line"/>
      <point x="65" y="501"/>
      <point x="49" y="491"/>
      <point x="41" y="483" type="curve" smooth="yes"/>
      <point x="38" y="480"/>
      <point x="34" y="475"/>
      <point x="34" y="471" type="curve" smooth="yes"/>
      <point x="34" y="467"/>
      <point x="39" y="463"/>
      <point x="43" y="463" type="curve" smooth="yes"/>
      <point x="61" y="463"/>
      <point x="78" y="463"/>
      <point x="96" y="463" type="curve"/>
      <point x="96" y="37" type="line" smooth="yes"/>
      <point x="96" y="28"/>
      <point x="90" y="19"/>
      <point x="77" y="17" type="curve" smooth="yes"/>
      <point x="71" y="16"/>
      <point x="66" y="16"/>
      <point x="60" y="16" type="curve"/>
    </contour>
  </outline>
</glyph>
<glyph name="uni01C7" format="1">
  <advance width="1035"/>
  <unicode hex="01C7"/>
  <outline>
    <contour>
      <point x="51" y="0" type="line"/>
      <point x="136.56" y="0" type="line"/>
      <point x="150" y="0" type="line"/>
      <point x="164.491" y="0" type="line"/>
      <point x="244.05" y="0" type="line"/>
      <point x="492" y="0" type="line"/>
      <point x="509" y="140" type="line"/>
      <point x="493" y="139.014" type="line"/>
      <point x="480.467" y="78.53"/>
      <point x="453.117" y="47.06"/>
      <point x="392" y="32.197" type="curve" smooth="yes"/>
      <point x="349.426" y="21.845"/>
      <point x="331.42" y="21.343"/>
      <point x="270" y="21" type="curve"/>
      <point x="250" y="21"/>
      <point x="239.626" y="22.009"/>
      <point x="219.68" y="24.395" type="curve" smooth="yes"/>
      <point x="200.326" y="26.709"/>
      <point x="191.81" y="39.235"/>
      <point x="191.81" y="52.52" type="curve" smooth="yes"/>
      <point x="190.129" y="168.755"/>
      <point x="188.961" y="284.941"/>
      <point x="188.961" y="401" type="curve" smooth="yes"/>
      <point x="188.961" y="494.734"/>
      <point x="189.809" y="588.384"/>
      <point x="191.825" y="681.912" type="curve" smooth="yes"/>
      <point x="191.987" y="694.52"/>
      <point x="200.44" y="705.628"/>
      <point x="216.676" y="711.012" type="curve" smooth="yes"/>
      <point x="228.188" y="714.829"/>
      <point x="240.011" y="714.304"/>
      <point x="252.047" y="714.458" type="curve"/>
      <point x="252.047" y="730.333" type="line"/>
      <point x="57.003" y="730.333" type="line"/>
      <point x="57.003" y="714.458" type="line"/>
      <point x="65.295" y="714.349"/>
      <point x="73.417" y="713.622"/>
      <point x="81.374" y="712.012" type="curve" smooth="yes"/>
      <point x="100.478" y="708.146"/>
      <point x="109.244" y="694.819"/>
      <point x="109.244" y="681.888" type="curve"/>
      <point x="109.258" y="681.888" type="line"/>
      <point x="111.283" y="589.037"/>
      <point x="112.116" y="496.06"/>
      <point x="112.116" y="403" type="curve" smooth="yes"/>
      <point x="112.116" y="284.943"/>
      <point x="110.898" y="166.753"/>
      <point x="109.241" y="48.52" type="curve" smooth="yes"/>
      <point x="109.241" y="35.235"/>
      <point x="100.474" y="22.266"/>
      <point x="81.371" y="18.395" type="curve" smooth="yes"/>
      <point x="71.526" y="16.399"/>
      <point x="61.333" y="16.059"/>
      <point x="51" y="15.947" type="curve"/>
    </contour>
    <component base="J" xOffset="450"/>
  </outline>
</glyph>
<glyph name="uni01DD" format="1">
  <advance width="523"/>
  <unicode hex="01DD"/>
  <outline>
    <contour>
      <point x="236" y="-10" type="curve" smooth="yes"/>
      <point x="378" y="-10"/>
      <point x="479" y="66"/>
      <point x="479" y="252" type="curve" smooth="yes"/>
      <point x="479" y="438"/>
      <point x="359" y="511"/>
      <point x="229" y="511" type="curve" smooth="yes"/>
      <point x="154" y="511"/>
      <point x="104" y="488"/>
      <point x="51" y="436" type="curve"/>
      <point x="66" y="415" type="line"/>
      <point x="118" y="454"/>
      <point x="169" y="470"/>
      <point x="212" y="470" type="curve" smooth="yes"/>
      <point x="343" y="470"/>
      <point x="401" y="365"/>
      <point x="401" y="251" type="curve" smooth="yes"/>
      <point x="401" y="224"/>
      <point x="397" y="202"/>
      <point x="393" y="184" type="curve"/>
      <point x="55" y="185" type="line"/>
      <point x="55" y="171" type="line"/>
      <point x="55" y="74"/>
      <point x="120" y="-10"/>
    </contour>
    <contour>
      <point x="255" y="12" type="curve" smooth="yes"/>
      <point x="182" y="12"/>
      <point x="129" y="62"/>
      <point x="127" y="152" type="curve"/>
      <point x="154" y="155"/>
      <point x="225" y="156"/>
      <point x="259" y="156" type="curve" smooth="yes"/>
      <point x="321" y="156"/>
      <point x="360" y="152"/>
      <point x="396" y="148" type="curve"/>
      <point x="379" y="75"/>
      <point x="333" y="12"/>
    </contour>
  </outline>
</glyph>
<glyph name="uni01E5" format="1">
  <advance width="403"/>
  <unicode hex="01E5"/>
  <outline>
    <contour>
      <point x="223" y="-246" type="curve" smooth="yes"/>
      <point x="321" y="-246"/>
      <point x="429" y="-205"/>
      <point x="461" y="-129" type="curve"/>
      <point x="508" y="-129" type="line" smooth="yes"/>
      <point x="522" y="-129"/>
      <point x="528" y="-94"/>
      <point x="528" y="-89" type="curve"/>
      <point x="470" y="-89" type="line"/>
      <point x="470" y="-87"/>
      <point x="470" y="-84"/>
      <point x="470" y="-82" type="curve" smooth="yes"/>
      <point x="470" y="1"/>
      <point x="404" y="29"/>
      <point x="302" y="36" type="curve" smooth="yes"/>
      <point x="205" y="43" type="line" smooth="yes"/>
      <point x="196" y="44"/>
      <point x="175" y="43"/>
      <point x="169" y="45" type="curve" smooth="yes"/>
      <point x="159" y="48"/>
      <point x="155" y="53"/>
      <point x="155" y="59" type="curve" smooth="yes"/>
      <point x="155" y="63"/>
      <point x="158" y="67"/>
      <point x="163" y="70" type="curve" smooth="yes"/>
      <point x="264" y="131"/>
      <point x="409" y="109"/>
      <point x="409" y="290" type="curve" smooth="yes"/>
      <point x="409" y="355"/>
      <point x="395" y="402"/>
      <point x="370" y="435" type="curve"/>
      <point x="379" y="433"/>
      <point x="387" y="432"/>
      <point x="394" y="432" type="curve" smooth="yes"/>
      <point x="413" y="432"/>
      <point x="427" y="438"/>
      <point x="437" y="448" type="curve" smooth="yes"/>
      <point x="445" y="456"/>
      <point x="452" y="465"/>
      <point x="452" y="478" type="curve" smooth="yes"/>
      <point x="452" y="488"/>
      <point x="445" y="497"/>
      <point x="437" y="497" type="curve" smooth="yes"/>
      <point x="398" y="497"/>
      <point x="371" y="485"/>
      <point x="340" y="465" type="curve"/>
      <point x="308" y="490"/>
      <point x="267" y="500"/>
      <point x="228" y="500" type="curve" smooth="yes"/>
      <point x="215" y="500"/>
      <point x="202" y="500"/>
      <point x="190" y="498" type="curve" smooth="yes"/>
      <point x="110" y="485"/>
      <point x="46" y="431"/>
      <point x="46" y="314" type="curve" smooth="yes"/>
      <point x="46" y="166"/>
      <point x="134" y="117"/>
      <point x="210" y="112" type="curve"/>
      <point x="177" y="100"/>
      <point x="60" y="75"/>
      <point x="60" y="35" type="curve" smooth="yes"/>
      <point x="60" y="16"/>
      <point x="89" y="4"/>
      <point x="119" y="-2" type="curve" smooth="yes"/>
      <point x="142" y="-7"/>
      <point x="174" y="-11"/>
      <point x="212" y="-13" type="curve"/>
      <point x="160" y="-28"/>
      <point x="81" y="-47"/>
      <point x="43" y="-89" type="curve"/>
      <point x="-15" y="-89" type="line" smooth="yes"/>
      <point x="-25" y="-89"/>
      <point x="-35" y="-123"/>
      <point x="-35" y="-129" type="curve"/>
      <point x="22" y="-129" type="line"/>
      <point x="21" y="-134"/>
      <point x="20" y="-139"/>
      <point x="20" y="-144" type="curve" smooth="yes"/>
      <point x="20" y="-225"/>
      <point x="121" y="-246"/>
    </contour>
    <contour>
      <point x="223" y="-221" type="curve" smooth="yes"/>
      <point x="88" y="-221"/>
      <point x="81" y="-140"/>
      <point x="87" y="-129" type="curve"/>
      <point x="418" y="-129" type="line"/>
      <point x="401" y="-187"/>
      <point x="307" y="-221"/>
    </contour>
    <contour>
      <point x="98" y="-89" type="line"/>
      <point x="119" y="-55"/>
      <point x="169" y="-39"/>
      <point x="234" y="-18" type="curve"/>
      <point x="348" y="-18"/>
      <point x="405" y="-38"/>
      <point x="418" y="-89" type="curve"/>
    </contour>
    <contour>
      <point x="241" y="143" type="curve" smooth="yes"/>
      <point x="154" y="143"/>
      <point x="119" y="217"/>
      <point x="119" y="335" type="curve" smooth="yes"/>
      <point x="119" y="402"/>
      <point x="144" y="471"/>
      <point x="215" y="471" type="curve" smooth="yes"/>
      <point x="309" y="471"/>
      <point x="341" y="418"/>
      <point x="341" y="295" type="curve" smooth="yes"/>
      <point x="341" y="212"/>
      <point x="325" y="143"/>
    </contour>
  </outline>
</glyph>
<glyph name="uni0202" format="1">
  <advance width="777"/>
  <unicode hex="0202"/>
  <outline>
    <contour>
      <point x="330.625" y="793.811" type="curve" smooth="yes"/>
      <point x="340.157" y="793.811"/>
      <point x="343.925" y="807.11"/>
      <point x="348.825" y="816.21" type="curve" smooth="yes"/>
      <point x="355.106" y="827.875"/>
      <point x="365.025" y="849.811"/>
      <point x="394.325" y="849.811" type="curve" smooth="yes"/>
      <point x="433.337" y="849.811"/>
      <point x="441.313" y="828.278"/>
      <point x="458.164" y="803.003" type="curve" smooth="yes"/>
      <point x="461.481" y="798.027"/>
      <point x="464.266" y="794.569"/>
      <point x="469.225" y="794.569" type="curve" smooth="yes"/>
      <point x="477.628" y="794.569"/>
      <point x="478.935" y="800.008"/>
      <point x="478.935" y="805.71" type="curve" smooth="yes"/>
      <point x="478.935" y="839.512"/>
      <point x="441.811" y="900.91"/>
      <point x="388.725" y="900.91" type="curve" smooth="yes"/>
      <point x="344.187" y="900.91"/>
      <point x="319.065" y="847.371"/>
      <point x="319.065" y="808.511" type="curve" smooth="yes"/>
      <point x="319.065" y="800.378"/>
      <point x="323.278" y="793.811"/>
    </contour>
    <component base="A"/>
  </outline>
</glyph>
<glyph name="uni020F" format="1">
  <advance width="534"/>
  <unicode hex="020F"/>
  <outline>
    <contour>
      <point x="188.625" y="570.54" type="curve" smooth="yes"/>
      <point x="198.157" y="570.54"/>
      <point x="201.925" y="583.84"/>
      <point x="206.825" y="592.939" type="curve" smooth="yes"/>
      <point x="213.106" y="604.604"/>
      <point x="223.025" y="626.54"/>
      <point x="252.325" y="626.54" type="curve" smooth="yes"/>
      <point x="291.337" y="626.54"/>
      <point x="299.313" y="605.008"/>
      <point x="316.164" y="579.732" type="curve" smooth="yes"/>
      <point x="319.481" y="574.757"/>
      <point x="322.266" y="571.299"/>
      <point x="327.225" y="571.299" type="curve" smooth="yes"/>
      <point x="335.628" y="571.299"/>
      <point x="336.935" y="576.737"/>
      <point x="336.935" y="582.439" type="curve" smooth="yes"/>
      <point x="336.935" y="616.241"/>
      <point x="299.811" y="677.64"/>
      <point x="246.725" y="677.64" type="curve" smooth="yes"/>
      <point x="202.187" y="677.64"/>
      <point x="177.065" y="624.101"/>
      <point x="177.065" y="585.24" type="curve" smooth="yes"/>
      <point x="177.065" y="577.107"/>
      <point x="181.278" y="570.54"/>
    </contour>
    <component base="o"/>
  </outline>
</glyph>
<glyph name="uni0237" format="1">
  <advance width="244"/>
  <unicode hex="0237"/>
  <outline>
    <contour>
      <point x="-49" y="-154" type="curve" smooth="yes"/>
      <point x="28" y="-154"/>
      <point x="89" y="-111"/>
      <point x="116" y="-84" type="curve" smooth="yes"/>
      <point x="158" y="-42"/>
      <point x="170" y="-7"/>
      <point x="170" y="46" type="curve"/>
      <point x="170" y="489" type="line"/>
      <point x="170" y="502"/>
      <point x="169" y="507"/>
      <point x="164" y="507" type="curve" smooth="yes"/>
      <point x="163" y="507"/>
      <point x="153" y="504"/>
      <point x="143" y="501" type="curve" smooth="yes"/>
      <point x="69" y="480" type="line"/>
      <point x="69" y="467" type="line"/>
      <point x="73" y="467"/>
      <point x="78" y="466"/>
      <point x="83" y="465" type="curve"/>
      <point x="95" y="463"/>
      <point x="103" y="456"/>
      <point x="103" y="438" type="curve"/>
      <point x="103" y="28" type="line"/>
      <point x="103" y="-40"/>
      <point x="100" y="-70"/>
      <point x="46" y="-100" type="curve" smooth="yes"/>
      <point x="35" y="-106"/>
      <point x="25" y="-108"/>
      <point x="16" y="-108" type="curve" smooth="yes"/>
      <point x="0" y="-108"/>
      <point x="-14" y="-102"/>
      <point x="-27" y="-95" type="curve" smooth="yes"/>
      <point x="-40" y="-88"/>
      <point x="-55" y="-83"/>
      <point x="-70" y="-83" type="curve" smooth="yes"/>
      <point x="-96" y="-83"/>
      <point x="-129" y="-105"/>
      <point x="-129" y="-128" type="curve" smooth="yes"/>
      <point x="-129" y="-134"/>
      <point x="-126" y="-139"/>
      <point x="-118" y="-142" type="curve" smooth="yes"/>
      <point x="-94" y="-151"/>
      <point x="-71" y="-154"/>
    </contour>
    <contour>
      <point x="129" y="507" type="move" name="top"/>
    </contour>
  </outline>
</glyph>
<glyph name="uni0270" format="1">
  <advance width="857"/>
  <unicode hex="0270"/>
  <outline>
    <contour>
      <point x="703" y="-218" type="curve" smooth="yes"/>
      <point x="704" y="-218"/>
      <point x="705" y="-217"/>
      <point x="706" y="-217" type="curve" smooth="yes"/>
      <point x="801" y="-193" type="line"/>
      <point x="801" y="-180" type="line"/>
      <point x="797" y="-180"/>
      <point x="792" y="-178"/>
      <point x="786" y="-176" type="curve" smooth="yes"/>
      <point x="773" y="-172"/>
      <point x="767" y="-160"/>
      <point x="767" y="-141" type="curve" smooth="yes"/>
      <point x="767" y="469" type="line" smooth="yes"/>
      <point x="767" y="478"/>
      <point x="773" y="487"/>
      <point x="786" y="489" type="curve" smooth="yes"/>
      <point x="792" y="490"/>
      <point x="797" y="491"/>
      <point x="803" y="491" type="curve"/>
      <point x="803" y="506" type="line"/>
      <point x="661" y="506" type="line"/>
      <point x="661" y="491" type="line"/>
      <point x="667" y="491"/>
      <point x="672" y="490"/>
      <point x="678" y="489" type="curve" smooth="yes"/>
      <point x="691" y="487"/>
      <point x="697" y="478"/>
      <point x="697" y="469" type="curve" smooth="yes"/>
      <point x="697" y="68" type="line"/>
      <point x="658" y="39"/>
      <point x="621" y="24"/>
      <point x="580" y="24" type="curve" smooth="yes"/>
      <point x="514" y="24"/>
      <point x="462" y="83"/>
      <point x="462" y="155" type="curve" smooth="yes"/>
      <point x="462" y="469" type="line" smooth="yes"/>
      <point x="462" y="478"/>
      <point x="468" y="486"/>
      <point x="481" y="489" type="curve" smooth="yes"/>
      <point x="486" y="490"/>
      <point x="492" y="491"/>
      <point x="498" y="491" type="curve"/>
      <point x="498" y="506" type="line"/>
      <point x="360" y="506" type="line"/>
      <point x="360" y="491" type="line"/>
      <point x="365" y="491"/>
      <point x="371" y="490"/>
      <point x="377" y="489" type="curve" smooth="yes"/>
      <point x="389" y="487"/>
      <point x="396" y="478"/>
      <point x="396" y="469" type="curve" smooth="yes"/>
      <point x="396" y="124" type="line" smooth="yes"/>
      <point x="396" y="118"/>
      <point x="396" y="110"/>
      <point x="396" y="105" type="curve" smooth="yes"/>
      <point x="396" y="62"/>
      <point x="311" y="25"/>
      <point x="273" y="25" type="curve" smooth="yes"/>
      <point x="202" y="25"/>
      <point x="161" y="80"/>
      <point x="161" y="162" type="curve" smooth="yes"/>
      <point x="161" y="469" type="line" smooth="yes"/>
      <point x="161" y="478"/>
      <point x="167" y="486"/>
      <point x="180" y="489" type="curve" smooth="yes"/>
      <point x="185" y="490"/>
      <point x="191" y="491"/>
      <point x="197" y="491" type="curve"/>
      <point x="197" y="506" type="line"/>
      <point x="59" y="506" type="line"/>
      <point x="59" y="491" type="line"/>
      <point x="65" y="491"/>
      <point x="70" y="490"/>
      <point x="76" y="489" type="curve" smooth="yes"/>
      <point x="88" y="487"/>
      <point x="95" y="478"/>
      <point x="95" y="469" type="curve" smooth="yes"/>
      <point x="95" y="158" type="line" smooth="yes"/>
      <point x="95" y="49"/>
      <point x="179" y="-2"/>
      <point x="259" y="-2" type="curve" smooth="yes"/>
      <point x="323" y="-2"/>
      <point x="371" y="15"/>
      <point x="411" y="82" type="curve"/>
      <point x="443" y="19"/>
      <point x="500" y="-4"/>
      <point x="559" y="-4" type="curve" smooth="yes"/>
      <point x="618" y="-4"/>
      <point x="656" y="14"/>
      <point x="697" y="46" type="curve"/>
      <point x="697" y="34"/>
      <point x="697" y="-188"/>
      <point x="697" y="-200" type="curve" smooth="yes"/>
      <point x="697" y="-212"/>
      <point x="698" y="-218"/>
    </contour>
  </outline>
</glyph>
<glyph name="circumflex" format="1">
  <advance width="500"/>
  <unicode hex="02C6"/>
  <outline>
    <contour>
      <point x="128" y="521" type="curve" smooth="yes"/>
      <point x="129" y="521"/>
      <point x="130" y="522"/>
      <point x="131" y="523" type="curve" smooth="yes"/>
      <point x="238" y="660" type="line" smooth="yes"/>
      <point x="241" y="664"/>
      <point x="246" y="666"/>
      <point x="250" y="666" type="curve" smooth="yes"/>
      <point x="254" y="666"/>
      <point x="259" y="664"/>
      <point x="262" y="660" type="curve" smooth="yes"/>
      <point x="369" y="523" type="line" smooth="yes"/>
      <point x="370" y="522"/>
      <point x="371" y="521"/>
      <point x="372" y="521" type="curve" smooth="yes"/>
      <point x="377" y="521"/>
      <point x="387" y="529"/>
      <point x="389" y="537" type="curve"/>
      <point x="264" y="753" type="line" smooth="yes"/>
      <point x="261" y="759"/>
      <point x="255" y="765"/>
      <point x="250" y="765" type="curve" smooth="yes"/>
      <point x="245" y="765"/>
      <point x="239" y="759"/>
      <point x="236" y="753" type="curve" smooth="yes"/>
      <point x="111" y="537" type="line"/>
      <point x="113" y="529"/>
      <point x="123" y="521"/>
    </contour>
    <contour>
      <point x="250" y="507" type="move" name="_top"/>
    </contour>
  </outline>
</glyph>
<glyph name="caron" format="1">
  <advance width="500"/>
  <unicode hex="02C7"/>
  <outline>
    <contour>
      <point x="113" y="823" type="curve"/>
      <point x="235" y="608" type="line"/>
      <point x="238" y="602"/>
      <point x="244" y="595"/>
      <point x="250" y="595" type="curve" smooth="yes"/>
      <point x="256" y="595"/>
      <point x="262" y="602"/>
      <point x="265" y="608" type="curve"/>
      <point x="387" y="823" type="line"/>
      <point x="384" y="832"/>
      <point x="375" y="839"/>
      <point x="370" y="839" type="curve" smooth="yes"/>
      <point x="369" y="839"/>
      <point x="368" y="838"/>
      <point x="367" y="837" type="curve"/>
      <point x="262" y="700" type="line"/>
      <point x="259" y="696"/>
      <point x="254" y="694"/>
      <point x="250" y="694" type="curve" smooth="yes"/>
      <point x="246" y="694"/>
      <point x="241" y="696"/>
      <point x="238" y="700" type="curve"/>
      <point x="133" y="837" type="line"/>
      <point x="132" y="838"/>
      <point x="131" y="839"/>
      <point x="130" y="839" type="curve" smooth="yes"/>
      <point x="125" y="839"/>
      <point x="116" y="832"/>
    </contour>
    <contour>
      <point x="250" y="507" type="move" name="_top"/>
    </contour>
  </outline>
</glyph>
<glyph name="breve" format="1">
  <advance width="500"/>
  <unicode hex="02D8"/>
  <outline>
    <contour>
      <point x="239" y="587" type="curve" smooth="yes"/>
      <point x="292" y="587"/>
      <point x="330" y="648"/>
      <point x="330" y="682" type="curve" smooth="yes"/>
      <point x="330" y="688"/>
      <point x="328" y="693"/>
      <point x="320" y="693" type="curve" smooth="yes"/>
      <point x="316" y="693"/>
      <point x="312" y="691"/>
      <point x="309" y="685" type="curve" smooth="yes"/>
      <point x="296" y="659"/>
      <point x="284" y="638"/>
      <point x="245" y="638" type="curve" smooth="yes"/>
      <point x="216" y="638"/>
      <point x="205" y="660"/>
      <point x="200" y="672" type="curve" smooth="yes"/>
      <point x="196" y="682"/>
      <point x="191" y="694"/>
      <point x="181" y="694" type="curve" smooth="yes"/>
      <point x="174" y="694"/>
      <point x="170" y="687"/>
      <point x="170" y="679" type="curve" smooth="yes"/>
      <point x="170" y="640"/>
      <point x="195" y="587"/>
    </contour>
    <contour>
      <point x="246" y="507" type="move" name="_top"/>
    </contour>
  </outline>
</glyph>
<glyph name="dotaccent" format="1">
  <advance width="203"/>
  <unicode hex="02D9"/>
  <outline>
    <contour>
      <point x="102" y="628" type="curve" smooth="yes"/>
      <point x="130" y="628"/>
      <point x="153" y="651"/>
      <point x="153" y="679" type="curve" smooth="yes"/>
      <point x="153" y="707"/>
      <point x="130" y="730"/>
      <point x="102" y="730" type="curve" smooth="yes"/>
      <point x="73" y="730"/>
      <point x="50" y="707"/>
      <point x="50" y="679" type="curve" smooth="yes"/>
      <point x="50" y="651"/>
      <point x="73" y="628"/>
    </contour>
    <contour>
      <point x="102" y="506" type="move" name="_top"/>
    </contour>
  </outline>
</glyph>
<glyph name="ring" format="1">
  <advance width="600"/>
  <unicode hex="02DA"/>
  <outline>
    <contour>
      <point x="300" y="572" type="curve" smooth="yes"/>
      <point x="337" y="572"/>
      <point x="370" y="605"/>
      <point x="370" y="642" type="curve" smooth="yes"/>
      <point x="370" y="679"/>
      <point x="336" y="714"/>
      <point x="298" y="714" type="curve" smooth="yes"/>
      <point x="261" y="714"/>
      <point x="231" y="678"/>
      <point x="231" y="641" type="curve" smooth="yes"/>
      <point x="231" y="604"/>
      <point x="262" y="572"/>
    </contour>
    <contour>
      <point x="302" y="601" type="curve" smooth="yes"/>
      <point x="278" y="601"/>
      <point x="260" y="622"/>
      <point x="260" y="644" type="curve" smooth="yes"/>
      <point x="260" y="667"/>
      <point x="280" y="685"/>
      <point x="302" y="685" type="curve" smooth="yes"/>
      <point x="325" y="685"/>
      <point x="342" y="664"/>
      <point x="342" y="643" type="curve" smooth="yes"/>
      <point x="342" y="619"/>
      <point x="323" y="601"/>
    </contour>
    <contour>
      <point x="299" y="513" type="move" name="_top"/>
    </contour>
  </outline>
</glyph>
<glyph name="ogonek" format="1">
  <advance width="600"/>
  <unicode hex="02DB"/>
  <outline>
    <contour>
      <point x="304" y="-143" type="curve" smooth="yes"/>
      <point x="332" y="-143"/>
      <point x="377" y="-106"/>
      <point x="377" y="-87" type="curve" smooth="yes"/>
      <point x="377" y="-83"/>
      <point x="376" y="-77"/>
      <point x="370" y="-77" type="curve" smooth="yes"/>
      <point x="366" y="-77"/>
      <point x="363" y="-78"/>
      <point x="361" y="-81" type="curve" smooth="yes"/>
      <point x="357" y="-87"/>
      <point x="344" y="-103"/>
      <point x="324" y="-103" type="curve" smooth="yes"/>
      <point x="302" y="-103"/>
      <point x="289" y="-86"/>
      <point x="289" y="-64" type="curve" smooth="yes"/>
      <point x="289" y="-41"/>
      <point x="301" y="-7"/>
      <point x="336" y="14" type="curve"/>
      <point x="313" y="14" type="line"/>
      <point x="268" y="-8"/>
      <point x="243" y="-51"/>
      <point x="243" y="-86" type="curve" smooth="yes"/>
      <point x="243" y="-118"/>
      <point x="262" y="-143"/>
    </contour>
    <contour>
      <point x="106" y="-12" type="move" name="_bottom"/>
    </contour>
  </outline>
</glyph>
<glyph name="tilde" format="1">
  <advance width="600"/>
  <unicode hex="02DC"/>
  <outline>
    <contour>
      <point x="355" y="583" type="curve" smooth="yes"/>
      <point x="401" y="583"/>
      <point x="450" y="642"/>
      <point x="450" y="659" type="curve" smooth="yes"/>
      <point x="450" y="662"/>
      <point x="447" y="664"/>
      <point x="443" y="664" type="curve" smooth="yes"/>
      <point x="439" y="664"/>
      <point x="433" y="661"/>
      <point x="424" y="654" type="curve" smooth="yes"/>
      <point x="409" y="642"/>
      <point x="384" y="630"/>
      <point x="362" y="630" type="curve" smooth="yes"/>
      <point x="334" y="630"/>
      <point x="317" y="640"/>
      <point x="299" y="653" type="curve" smooth="yes"/>
      <point x="281" y="666"/>
      <point x="264" y="676"/>
      <point x="238" y="676" type="curve" smooth="yes"/>
      <point x="196" y="676"/>
      <point x="150" y="615"/>
      <point x="150" y="610" type="curve" smooth="yes"/>
      <point x="150" y="605"/>
      <point x="153" y="602"/>
      <point x="157" y="602" type="curve" smooth="yes"/>
      <point x="159" y="602"/>
      <point x="165" y="605"/>
      <point x="172" y="609" type="curve" smooth="yes"/>
      <point x="187" y="617"/>
      <point x="213" y="630"/>
      <point x="235" y="630" type="curve" smooth="yes"/>
      <point x="262" y="630"/>
      <point x="278" y="619"/>
      <point x="294" y="607" type="curve" smooth="yes"/>
      <point x="313" y="593"/>
      <point x="328" y="583"/>
    </contour>
  </outline>
</glyph>
<glyph name="acutecomb" format="1">
  <advance width="285"/>
  <unicode hex="0301"/>
  <outline>
    <contour>
      <point x="58" y="610" type="line"/>
      <point x="74" y="621"/>
      <point x="92" y="633"/>
      <point x="108" y="643" type="curve" smooth="yes"/>
      <point x="146" y="667"/>
      <point x="181" y="691"/>
      <point x="191" y="701" type="curve" smooth="yes"/>
      <point x="205" y="715"/>
      <point x="222" y="734"/>
      <point x="222" y="750" type="curve" smooth="yes"/>
      <point x="222" y="768"/>
      <point x="202" y="777"/>
      <point x="185" y="777" type="curve" smooth="yes"/>
      <point x="173" y="777"/>
      <point x="161" y="773"/>
      <point x="153" y="764" type="curve" smooth="yes"/>
      <point x="145" y="755"/>
      <point x="121" y="720"/>
      <point x="98" y="684" type="curve" smooth="yes"/>
      <point x="80" y="655"/>
      <point x="64" y="631"/>
      <point x="49" y="610" type="curve"/>
    </contour>
    <contour>
      <point x="136" y="507" type="move" name="_top"/>
    </contour>
  </outline>
</glyph>
<glyph name="tildecomb" format="1">
  <advance width="600"/>
  <unicode hex="0303"/>
  <outline>
    <component base="tilde"/>
    <contour>
      <point x="300" y="507" type="move" name="_top"/>
    </contour>
  </outline>
</glyph>
<glyph name="uni0305" format="1">
  <advance width="403"/>
  <unicode hex="0305"/>
  <outline>
    <contour>
      <point x="77" y="750" type="curve"/>
      <point x="330" y="750" type="line"/>
      <point x="335" y="750"/>
      <point x="336" y="759"/>
      <point x="336" y="769" type="curve" smooth="yes"/>
      <point x="336" y="781"/>
      <point x="334" y="794"/>
      <point x="330" y="794" type="curve"/>
      <point x="77" y="794" type="line"/>
      <point x="71" y="794"/>
      <point x="68" y="785"/>
      <point x="68" y="774" type="curve" smooth="yes"/>
      <point x="68" y="763"/>
      <point x="71" y="752"/>
    </contour>
  </outline>
</glyph>
<glyph name="uni0306" format="1">
  <advance width="271"/>
  <unicode hex="0306"/>
  <outline>
    <contour>
      <point x="65" y="570" type="curve" smooth="yes"/>
      <point x="75" y="570"/>
      <point x="81" y="583"/>
      <point x="85" y="592" type="curve" smooth="yes"/>
      <point x="91" y="606"/>
      <point x="100" y="626"/>
      <point x="129" y="626" type="curve" smooth="yes"/>
      <point x="168" y="626"/>
      <point x="180" y="606"/>
      <point x="193" y="579" type="curve" smooth="yes"/>
      <point x="196" y="574"/>
      <point x="199" y="571"/>
      <point x="204" y="571" type="curve" smooth="yes"/>
      <point x="212" y="571"/>
      <point x="214" y="576"/>
      <point x="214" y="582" type="curve" smooth="yes"/>
      <point x="214" y="616"/>
      <point x="176" y="677"/>
      <point x="123" y="677" type="curve" smooth="yes"/>
      <point x="79" y="677"/>
      <point x="54" y="624"/>
      <point x="54" y="585" type="curve" smooth="yes"/>
      <point x="54" y="577"/>
      <point x="58" y="570"/>
    </contour>
    <contour>
      <point x="134" y="507" type="move" name="_top"/>
    </contour>
  </outline>
</glyph>
<glyph name="dotaccentcomb" format="1">
  <advance width="600"/>
  <unicode hex="0307"/>
  <outline>
    <contour>
      <point x="252" y="536" type="curve" smooth="yes"/>
      <point x="278" y="536"/>
      <point x="299" y="556"/>
      <point x="299" y="582" type="curve" smooth="yes"/>
      <point x="299" y="608"/>
      <point x="278" y="628"/>
      <point x="252" y="628" type="curve" smooth="yes"/>
      <point x="227" y="628"/>
      <point x="206" y="608"/>
      <point x="206" y="582" type="curve" smooth="yes"/>
      <point x="206" y="556"/>
      <point x="227" y="536"/>
    </contour>
    <contour>
      <point x="252" y="507" type="move" name="_top"/>
    </contour>
  </outline>
</glyph>
<glyph name="uni030A" format="1">
  <advance width="192"/>
  <unicode hex="030A"/>
  <outline>
    <contour>
      <point x="90" y="572" type="curve" smooth="yes"/>
      <point x="127" y="572"/>
      <point x="160" y="605"/>
      <point x="160" y="642" type="curve" smooth="yes"/>
      <point x="160" y="679"/>
      <point x="126" y="714"/>
      <point x="88" y="714" type="curve" smooth="yes"/>
      <point x="51" y="714"/>
      <point x="21" y="678"/>
      <point x="21" y="641" type="curve" smooth="yes"/>
      <point x="21" y="604"/>
      <point x="52" y="572"/>
    </contour>
    <contour>
      <point x="92" y="601" type="curve" smooth="yes"/>
      <point x="68" y="601"/>
      <point x="50" y="622"/>
      <point x="50" y="644" type="curve" smooth="yes"/>
      <point x="50" y="667"/>
      <point x="70" y="685"/>
      <point x="92" y="685" type="curve" smooth="yes"/>
      <point x="115" y="685"/>
      <point x="132" y="664"/>
      <point x="132" y="643" type="curve" smooth="yes"/>
      <point x="132" y="619"/>
      <point x="113" y="601"/>
    </contour>
    <contour>
      <point x="88" y="507" type="move" name="_top"/>
    </contour>
  </outline>
</glyph>
<glyph name="uni0316" format="1">
  <advance width="285"/>
  <unicode hex="0316"/>
  <outline>
    <contour>
      <point x="225" y="-128" type="curve"/>
      <point x="233" y="-128" type="line"/>
      <point x="197" y="-76"/>
      <point x="144" y="11"/>
      <point x="129" y="26" type="curve" smooth="yes"/>
      <point x="120" y="35"/>
      <point x="110" y="39"/>
      <point x="98" y="39" type="curve" smooth="yes"/>
      <point x="81" y="39"/>
      <point x="63" y="30"/>
      <point x="60" y="12" type="curve" smooth="yes"/>
      <point x="57" y="-4"/>
      <point x="78" y="-24"/>
      <point x="91" y="-37" type="curve" smooth="yes"/>
      <point x="106" y="-52"/>
      <point x="172" y="-93"/>
    </contour>
  </outline>
</glyph>
<glyph name="uni0317" format="1">
  <advance width="285"/>
  <unicode hex="0317"/>
  <outline>
    <contour>
      <point x="59" y="-128" type="curve"/>
      <point x="68" y="-128" type="line"/>
      <point x="120" y="-95"/>
      <point x="186" y="-52"/>
      <point x="201" y="-37" type="curve" smooth="yes"/>
      <point x="215" y="-23"/>
      <point x="232" y="-4"/>
      <point x="232" y="12" type="curve" smooth="yes"/>
      <point x="232" y="30"/>
      <point x="212" y="39"/>
      <point x="195" y="39" type="curve" smooth="yes"/>
      <point x="183" y="39"/>
      <point x="171" y="35"/>
      <point x="163" y="26" type="curve" smooth="yes"/>
      <point x="155" y="17"/>
      <point x="130" y="-15"/>
      <point x="108" y="-54" type="curve" smooth="yes"/>
      <point x="92" y="-82"/>
      <point x="75" y="-107"/>
    </contour>
  </outline>
</glyph>
<glyph name="uni031B" format="1">
  <advance width="216"/>
  <unicode hex="031B"/>
  <outline>
    <contour>
      <point x="17" y="460" type="line"/>
      <point x="105" y="460"/>
      <point x="182" y="510"/>
      <point x="182" y="624" type="curve" smooth="yes"/>
      <point x="182" y="659"/>
      <point x="152" y="682"/>
      <point x="122" y="682" type="curve" smooth="yes"/>
      <point x="92" y="682"/>
      <point x="70" y="662"/>
      <point x="70" y="633" type="curve" smooth="yes"/>
      <point x="70" y="612"/>
      <point x="83" y="598"/>
      <point x="95" y="589" type="curve" smooth="yes"/>
      <point x="107" y="580"/>
      <point x="116" y="572"/>
      <point x="116" y="561" type="curve" smooth="yes"/>
      <point x="116" y="532"/>
      <point x="91" y="484"/>
      <point x="18" y="484" type="curve"/>
    </contour>
  </outline>
</glyph>
<glyph name="uni0328" format="1">
  <advance width="214"/>
  <unicode hex="0328"/>
  <outline>
    <contour>
      <point x="109" y="-147" type="curve" smooth="yes"/>
      <point x="137" y="-147"/>
      <point x="182" y="-110"/>
      <point x="182" y="-91" type="curve" smooth="yes"/>
      <point x="182" y="-87"/>
      <point x="181" y="-81"/>
      <point x="175" y="-81" type="curve" smooth="yes"/>
      <point x="171" y="-81"/>
      <point x="168" y="-82"/>
      <point x="166" y="-85" type="curve" smooth="yes"/>
      <point x="162" y="-91"/>
      <point x="149" y="-107"/>
      <point x="129" y="-107" type="curve" smooth="yes"/>
      <point x="107" y="-107"/>
      <point x="94" y="-90"/>
      <point x="94" y="-68" type="curve" smooth="yes"/>
      <point x="94" y="-45"/>
      <point x="106" y="-11"/>
      <point x="141" y="10" type="curve"/>
      <point x="118" y="10" type="line"/>
      <point x="73" y="-12"/>
      <point x="48" y="-55"/>
      <point x="48" y="-90" type="curve" smooth="yes"/>
      <point x="48" y="-122"/>
      <point x="67" y="-147"/>
    </contour>
    <contour>
      <point x="106" y="-12" type="move" name="_bottom"/>
    </contour>
  </outline>
</glyph>
<glyph name="tonos" format="1">
  <advance width="290"/>
  <unicode hex="0384"/>
  <outline>
    <contour>
      <point x="101" y="552" type="curve" smooth="yes"/>
      <point x="105" y="552"/>
      <point x="113" y="558"/>
      <point x="117" y="563" type="curve" smooth="yes"/>
      <point x="142" y="595"/>
      <point x="200" y="696"/>
      <point x="200" y="725" type="curve" smooth="yes"/>
      <point x="200" y="745"/>
      <point x="176" y="762"/>
      <point x="161" y="762" type="curve" smooth="yes"/>
      <point x="145" y="762"/>
      <point x="139" y="756"/>
      <point x="133" y="741" type="curve" smooth="yes"/>
      <point x="128" y="729"/>
      <point x="90" y="571"/>
      <point x="90" y="562" type="curve" smooth="yes"/>
      <point x="90" y="555"/>
      <point x="97" y="552"/>
    </contour>
  </outline>
</glyph>
